<?xml version="1.0" encoding="iso-8859-1"?>
<!-- Generator: Adobe Illustrator 19.0.0, SVG Export Plug-In . SVG Version: 6.00 Build 0)  -->
<svg version="1.1" id="Capa_1" xmlns="http://www.w3.org/2000/svg" xmlns:xlink="http://www.w3.org/1999/xlink" x="0px" y="0px"
	 viewBox="0 0 511 511" style="enable-background:new 0 0 511 511;" xml:space="preserve">
<g>
	<g>
		<path style="fill:#FDDD88;" d="M255.5,87.5c-66.274,0-120,53.726-120,120c0,80,48,88,64,144c4.914,17.2,8,56,8,56h96
			c0,0,3.086-38.8,8-56c16-56,64-64,64-144C375.5,141.226,321.774,87.5,255.5,87.5z"/>
		<path style="fill:#FCD56A;" d="M250.863,382.5c-7.897,0-14.589-5.768-15.813-13.57c-1.034-6.59-2.226-12.794-3.55-17.43
			c-16-56-64-64-64-144c0-60.849,45.291-111.112,104-118.936c-5.235-0.698-10.574-1.064-16-1.064c-66.274,0-120,53.726-120,120
			c0,80,48,88,64,144c4.914,17.2,8,56,8,56h96c0,0,0.926-11.643,2.571-25H250.863z"/>
		<g>
			<path style="fill:#AAB4BD;" d="M295.5,503.5h-80c-13.255,0-24-10.745-24-24v-72h128v72C319.5,492.755,308.755,503.5,295.5,503.5z
				"/>
			<path style="fill:#95A1AC;" d="M239.5,487.5c-13.255,0-24-10.745-24-24v-56h-24v72c0,13.255,10.745,24,24,24h80
				c10.449,0,19.334-6.68,22.629-16H239.5z"/>
		</g>
	</g>
	<g>
		<path d="M255.5,80C185.196,80,128,137.196,128,207.5c0,50.586,18.379,74.071,36.154,96.782
			c11.384,14.547,22.137,28.287,28.135,49.278c3.326,11.642,5.834,34.32,7.005,46.439H191.5c-4.142,0-7.5,3.358-7.5,7.5v72
			c0,17.369,14.131,31.5,31.5,31.5h80c17.369,0,31.5-14.131,31.5-31.5v-72c0-4.142-3.358-7.5-7.5-7.5h-7.794
			c1.17-12.117,3.677-34.79,7.006-46.44c1.767-6.186,4.009-11.982,6.854-17.719c1.84-3.711,0.324-8.211-3.387-10.051
			c-3.711-1.84-8.212-0.324-10.051,3.387c-3.254,6.563-5.818,13.19-7.839,20.262c-3.825,13.387-6.514,38.423-7.656,50.561h-82.265
			c-1.142-12.138-3.831-37.174-7.656-50.561c-6.802-23.808-18.974-39.361-30.745-54.402C159.013,273.375,143,252.914,143,207.5
			C143,145.467,193.467,95,255.5,95S368,145.467,368,207.5c0,45.414-16.013,65.875-32.965,87.537
			c-1.837,2.346-4.374,4.73-4.743,7.831c-0.303,2.545,0.744,5.121,2.74,6.73c2.001,1.613,4.746,2.09,7.175,1.247
			c3.041-1.056,4.758-4.158,6.641-6.563C364.621,281.57,383,258.085,383,207.5C383,137.196,325.804,80,255.5,80z M312,464H199v-17
			h113V464z M295.5,496h-80c-9.098,0-16.5-7.402-16.5-16.5V479h113v0.5C312,488.598,304.598,496,295.5,496z M312,432H199v-17h113
			V432z"/>
		<path d="M287.5,215c4.142,0,7.5-3.358,7.5-7.5v-8c0-17.369-14.131-31.5-31.5-31.5H263v-16.5c0-4.142-3.358-7.5-7.5-7.5
			s-7.5,3.358-7.5,7.5v16.674c-17.938,1.764-32,16.932-32,35.326c0,19.575,15.925,35.5,35.5,35.5h8c11.304,0,20.5,9.196,20.5,20.5
			s-9.196,20.5-20.5,20.5h-12c-9.098,0-16.5-7.402-16.5-16.5c0-4.142-3.358-7.5-7.5-7.5s-7.5,3.358-7.5,7.5
			c0,17.369,14.131,31.5,31.5,31.5h0.5v16.5c0,4.142,3.358,7.5,7.5,7.5s7.5-3.358,7.5-7.5v-16.674c17.938-1.764,32-16.932,32-35.326
			c0-19.575-15.925-35.5-35.5-35.5h-8c-11.304,0-20.5-9.196-20.5-20.5s9.196-20.5,20.5-20.5h12c9.098,0,16.5,7.402,16.5,16.5v8
			C280,211.642,283.358,215,287.5,215z"/>
		<path d="M255.5,47c4.142,0,7.5-3.358,7.5-7.5v-32c0-4.142-3.358-7.5-7.5-7.5S248,3.358,248,7.5v32C248,43.642,251.358,47,255.5,47
			z"/>
		<path d="M184.28,55.158c1.669,4.029,6.569,5.79,10.431,3.761c3.384-1.778,4.888-5.975,3.427-9.502l-12.246-29.564
			c-1.585-3.827-5.973-5.644-9.799-4.059s-5.644,5.973-4.059,9.799L184.28,55.158z"/>
		<path d="M136.706,96.206c6.558,0,9.924-8.183,5.303-12.803l-22.627-22.627c-2.929-2.929-7.678-2.929-10.606,0
			c-2.929,2.929-2.929,7.678,0,10.606l22.627,22.627C132.867,95.474,134.787,96.206,136.706,96.206z"/>
		<path d="M103.158,136.28l-29.564-12.246c-3.828-1.585-8.214,0.232-9.799,4.059c-1.585,3.827,0.232,8.214,4.059,9.799
			l29.564,12.246c4.036,1.671,8.742-0.558,10.035-4.716C108.589,141.772,106.685,137.741,103.158,136.28z"/>
		<path d="M95,207.5c0-4.142-3.358-7.5-7.5-7.5h-32c-4.142,0-7.5,3.358-7.5,7.5s3.358,7.5,7.5,7.5h32
			C91.642,215,95,211.642,95,207.5z"/>
		<path d="M97.418,264.862l-29.564,12.246c-3.533,1.463-5.423,5.49-4.295,9.142c1.285,4.161,6.007,6.385,10.035,4.716l29.564-12.246
			c3.827-1.585,5.644-5.973,4.059-9.799S101.245,263.277,97.418,264.862z"/>
		<path d="M443.146,277.107l-29.564-12.246c-3.828-1.584-8.214,0.232-9.799,4.059s0.232,8.214,4.059,9.799l29.564,12.246
			c4.036,1.671,8.742-0.558,10.035-4.716C448.577,282.6,446.673,278.568,443.146,277.107z"/>
		<path d="M455.5,200h-32c-4.142,0-7.5,3.358-7.5,7.5s3.358,7.5,7.5,7.5h32c4.142,0,7.5-3.358,7.5-7.5S459.642,200,455.5,200z"/>
		<path d="M403.783,146.079c1.564,3.775,6.019,5.625,9.799,4.059l29.564-12.246c3.827-1.585,5.644-5.973,4.059-9.799
			s-5.972-5.644-9.799-4.059l-29.564,12.246C404.015,137.865,402.198,142.252,403.783,146.079z"/>
		<path d="M402.225,60.775c-2.929-2.929-7.678-2.929-10.606,0l-22.627,22.627c-2.731,2.73-2.912,7.241-0.399,10.176
			c2.805,3.275,7.954,3.481,11.005,0.43l22.627-22.627C405.154,68.453,405.154,63.704,402.225,60.775z"/>
		<path d="M316.921,59.217c0.939,0.389,1.911,0.573,2.867,0.573c2.943,0,5.736-1.744,6.932-4.632l12.246-29.564
			c1.585-3.827-0.232-8.214-4.059-9.799c-3.828-1.584-8.214,0.232-9.799,4.059l-12.246,29.564
			C311.277,53.245,313.094,57.632,316.921,59.217z"/>
	</g>
</g>
<g>
</g>
<g>
</g>
<g>
</g>
<g>
</g>
<g>
</g>
<g>
</g>
<g>
</g>
<g>
</g>
<g>
</g>
<g>
</g>
<g>
</g>
<g>
</g>
<g>
</g>
<g>
</g>
<g>
</g>
</svg>
