<?xml version="1.0" encoding="iso-8859-1"?>
<!-- Generator: Adobe Illustrator 19.0.0, SVG Export Plug-In . SVG Version: 6.00 Build 0)  -->
<svg version="1.1" id="Capa_1" xmlns="http://www.w3.org/2000/svg" xmlns:xlink="http://www.w3.org/1999/xlink" x="0px" y="0px"
	 viewBox="0 0 511.001 511.001" style="enable-background:new 0 0 511.001 511.001;" xml:space="preserve">
<g>
	<g>
		<path style="fill:#EAECEE;" d="M463.501,191.5c0-101.62-82.38-184-184-184s-184,82.38-184,184c0,2.682,0.07,5.346,0.184,8h-0.184
			l-48,96l48,24v80h106.286l13.714,104h208l-25.04-171.639C438.245,298.109,463.501,247.758,463.501,191.5z"/>
		<path style="fill:#EAECEE;" d="M463.501,191.5c0-101.62-82.38-184-184-184s-184,82.38-184,184c0,2.682,0.07,5.346,0.184,8h-0.184
			l-48,96l48,24v80h106.286l13.714,104h208l-25.04-171.639C438.245,298.109,463.501,247.758,463.501,191.5z"/>
		<path style="fill:#FCD56A;" d="M327.501,163.5c6.627,0,12-5.373,12-12v-12c0-26.467-21.533-48-48-48v-24c0-6.627-5.373-12-12-12
			s-12,5.373-12,12v24.341c-26.961,2.995-48,25.912-48,53.659c0,29.776,24.224,54,54,54h12c16.542,0,30,13.458,30,30
			s-13.458,30-30,30h-18c-13.234,0-24-10.766-24-24c0-6.627-5.373-12-12-12s-12,5.373-12,12c0,26.467,21.533,48,48,48v24
			c0,6.627,5.373,12,12,12s12-5.373,12-12v-24.341c26.961-2.995,48-25.912,48-53.659c0-29.776-24.224-54-54-54h-12
			c-16.542,0-30-13.458-30-30s13.458-30,30-30h18c13.234,0,24,10.766,24,24v12C315.501,158.127,320.874,163.5,327.501,163.5z"/>
	</g>
	<g>
		<path d="M403.705,367.806c4.099-0.598,6.937-4.405,6.339-8.504l-3.569-24.463c41.061-36.392,64.526-88.394,64.526-143.338
			c0-105.593-85.907-191.5-191.5-191.5s-191.5,85.907-191.5,191.5c0,1.919,0.034,3.905,0.104,6.023l-47.312,94.623
			c-1.853,3.705-0.351,8.21,3.354,10.062l43.854,21.927V399.5c0,4.142,3.358,7.5,7.5,7.5h99.71l12.854,97.48
			c0.498,3.774,3.72,6.521,7.426,6.521c0.327,0,0.657-0.021,0.99-0.065c4.106-0.542,6.997-4.31,6.455-8.416l-13.714-104
			c-0.492-3.731-3.672-6.52-7.436-6.52h-98.786v-72.5c0-2.841-1.605-5.438-4.146-6.708l-41.292-20.646l43.985-87.969
			c1.124-1.409,1.708-3.182,1.63-4.997c-0.119-2.786-0.177-5.298-0.177-7.68c0-97.322,79.178-176.5,176.5-176.5
			s176.5,79.178,176.5,176.5c0,51.927-22.741,101.002-62.392,134.642c-1.972,1.673-2.943,4.243-2.569,6.802l4.162,28.524
			C395.8,365.566,399.607,368.409,403.705,367.806z"/>
		<path d="M414.74,391.493c-0.598-4.099-4.402-6.938-8.504-6.339c-4.099,0.598-6.937,4.405-6.339,8.504l16.183,110.925
			c0.598,4.096,4.557,6.995,8.643,6.316c3.978-0.661,6.783-4.485,6.2-8.481L414.74,391.493z"/>
		<path d="M299.001,84.505V67.5c0-10.752-8.748-19.5-19.5-19.5s-19.5,8.748-19.5,19.5v17.998c-27.792,6.199-48,30.906-48,60.002
			c0,33.911,27.589,61.5,61.5,61.5h12c12.407,0,22.5,10.093,22.5,22.5s-10.093,22.5-22.5,22.5h-18c-9.098,0-16.5-7.402-16.5-16.5
			c0-10.752-8.748-19.5-19.5-19.5s-19.5,8.748-19.5,19.5c0,28.061,20.93,51.324,48,54.995V307.5c0,10.752,8.748,19.5,19.5,19.5
			s19.5-8.748,19.5-19.5v-17.998c27.792-6.199,48-30.906,48-60.002c0-33.911-27.589-61.5-61.5-61.5h-12
			c-12.407,0-22.5-10.093-22.5-22.5s10.093-22.5,22.5-22.5h18c9.098,0,16.5,7.402,16.5,16.5v12c0,10.752,8.748,19.5,19.5,19.5
			s19.5-8.748,19.5-19.5v-12C347.001,111.439,326.071,88.176,299.001,84.505z M332.001,151.5c0,2.481-2.019,4.5-4.5,4.5
			s-4.5-2.019-4.5-4.5v-12c0-17.369-14.131-31.5-31.5-31.5h-18c-20.678,0-37.5,16.822-37.5,37.5s16.822,37.5,37.5,37.5h12
			c25.64,0,46.5,20.86,46.5,46.5c0,23.724-17.767,43.587-41.328,46.205c-3.798,0.422-6.672,3.632-6.672,7.454V307.5
			c0,2.481-2.019,4.5-4.5,4.5s-4.5-2.019-4.5-4.5v-24c0-4.142-3.358-7.5-7.5-7.5c-22.332,0-40.5-18.168-40.5-40.5
			c0-2.481,2.019-4.5,4.5-4.5s4.5,2.019,4.5,4.5c0,17.369,14.131,31.5,31.5,31.5h18c20.678,0,37.5-16.822,37.5-37.5
			s-16.822-37.5-37.5-37.5h-12c-25.64,0-46.5-20.86-46.5-46.5c0-23.724,17.767-43.587,41.328-46.205
			c3.798-0.422,6.672-3.632,6.672-7.454V67.5c0-2.481,2.019-4.5,4.5-4.5s4.5,2.019,4.5,4.5v24c0,4.142,3.358,7.5,7.5,7.5
			c22.332,0,40.5,18.168,40.5,40.5V151.5z"/>
	</g>
</g>
<g>
</g>
<g>
</g>
<g>
</g>
<g>
</g>
<g>
</g>
<g>
</g>
<g>
</g>
<g>
</g>
<g>
</g>
<g>
</g>
<g>
</g>
<g>
</g>
<g>
</g>
<g>
</g>
<g>
</g>
</svg>
