<?xml version="1.0" encoding="iso-8859-1"?>
<!-- Generator: Adobe Illustrator 19.0.0, SVG Export Plug-In . SVG Version: 6.00 Build 0)  -->
<svg version="1.1" id="Capa_1" xmlns="http://www.w3.org/2000/svg" xmlns:xlink="http://www.w3.org/1999/xlink" x="0px" y="0px"
	 viewBox="0 0 511 511" style="enable-background:new 0 0 511 511;" xml:space="preserve">
<g>
	<g>
		<g>
			<polygon style="fill:#76E7EB;" points="335.5,503.49 303.5,503.49 287.5,439.49 335.5,439.49 			"/>
			<polygon style="fill:#76E7EB;" points="167.5,503.49 135.5,503.49 135.5,439.49 183.5,439.49 			"/>
			<path style="fill:#76E7EB;" d="M327.5,455.49h-184c-53.019,0-96-42.981-96-96v-80c0-53.019,42.981-96,96-96h184
				c53.019,0,96,42.981,96,96v80C423.5,412.51,380.519,455.49,327.5,455.49z"/>
			<path style="fill:#1BD7DE;" d="M359.5,431.49h-184c-53.019,0-96-42.981-96-96v-80c0-24.18,8.943-46.269,23.697-63.148
				C70.313,207.576,47.5,240.866,47.5,279.49v80c0,53.019,42.981,96,96,96h184c28.84,0,54.706-12.72,72.303-32.852
				C387.547,428.316,373.895,431.49,359.5,431.49z"/>
			<polygon style="fill:#49DFE5;" points="143.5,183.49 199.5,127.49 199.5,183.49 			"/>
			<polygon style="fill:#76E7EB;" points="47.5,367.49 7.5,359.49 7.5,303.49 47.5,303.49 			"/>
		</g>
		<g>
			<circle style="fill:#EAECEE;" cx="255.5" cy="327.49" r="56"/>
		</g>
		<g>
			<circle style="fill:#FDDD88;" cx="55.5" cy="127.49" r="40"/>
			<polyline style="fill:#EAECEE;" points="63.5,111.49 55.5,127.49 71.5,135.49 			"/>
		</g>
		<g>
			<circle style="fill:#FDDD88;" cx="263.503" cy="47.494" r="40"/>
			<polyline style="fill:#EAECEE;" points="255.047,31.73 263.503,47.494 279.267,39.037 			"/>
		</g>
		<g>
			<circle style="fill:#FDDD88;" cx="455.496" cy="159.487" r="40"/>
			<polyline style="fill:#EAECEE;" points="437.794,162.057 455.496,159.487 452.926,141.784 			"/>
		</g>
	</g>
	<g>
		<path d="M495.488,234.366c-6.922-4.505-15.032-4.981-22.838-1.339c-8.993,4.197-15.909,15.035-19.892,27.401
			c-3.104,0.238-6.305,0.875-9.563,1.921c-4.623,1.484-8.878,3.617-12.76,6.33c-5.423-52.008-49.517-92.69-102.937-92.69h-24
			c-4.143,0-7.5,3.358-7.5,7.5s3.357,7.5,7.5,7.5h24c48.799,0,88.5,39.701,88.5,88.5v80c0,48.799-39.701,88.5-88.5,88.5h-184
			c-48.799,0-88.5-39.701-88.5-88.5v-80c0-48.799,39.701-88.5,88.5-88.5h125.667c4.143,0,7.5-3.358,7.5-7.5s-3.357-7.5-7.5-7.5H207
			v-48.5c0-6.537-8.174-9.931-12.803-5.303l-53.856,53.856C84.727,177.719,40,223.478,40,279.49v16.5H7.5
			c-4.142,0-7.5,3.358-7.5,7.5v56c0,3.575,2.523,6.653,6.029,7.354l34.97,6.994C47.3,419.066,82.931,455.032,128,461.829v41.661
			c0,4.142,3.358,7.5,7.5,7.5h32c3.441,0,6.441-2.342,7.276-5.681l10.579-42.319h100.289l10.58,42.319
			c0.835,3.339,3.835,5.681,7.276,5.681h32c4.143,0,7.5-3.358,7.5-7.5v-41.661c49.744-7.502,88-50.536,88-102.339v-71.628
			c0.796-0.411,1.534-0.966,2.164-1.675c4.008-4.513,8.926-7.728,14.618-9.555c0.546-0.176,1.081-0.332,1.604-0.469
			c-0.605,5.459-0.609,10.813,0.056,15.66c1.785,13.011,8.523,21.419,18.489,23.067c6.961,1.152,13.866-1.691,17.475-7.859
			c5.468-9.346,3.261-24.284-5.133-34.747c-3.474-4.33-7.664-7.519-12.363-9.51c2.82-7.813,6.849-14.178,11.084-16.154
			c3.065-1.431,5.786-1.327,8.313,0.318c4.167,2.712,8.941,10.556,8.683,23.738c-0.081,4.141,3.211,7.564,7.352,7.646
			c4.178,0.084,7.564-3.21,7.646-7.352C511.305,254.819,505.365,240.793,495.488,234.366z M192,145.597v30.394h-30.394L192,145.597z
			 M15,310.99h25v47.352l-25-5V310.99z M161.644,495.99H143v-33.006c0.167,0.001,0.333,0.006,0.5,0.006h26.394L161.644,495.99z
			 M328,495.99h-18.645l-8.25-33H327.5c0.167,0,0.333-0.006,0.5-0.006V495.99z M468.573,281.67
			c5.045,6.289,5.671,14.734,3.886,17.786c-0.314,0.537-0.521,0.893-2.08,0.634c-4.15-0.687-5.588-6.753-6.076-10.308
			c-0.504-3.671-0.449-7.77,0.043-11.948C466.094,278.949,467.484,280.313,468.573,281.67z"/>
		<path d="M128,279.49c0,9.098-7.402,16.5-16.5,16.5S95,288.588,95,279.49c0-4.142-3.358-7.5-7.5-7.5s-7.5,3.358-7.5,7.5
			c0,17.369,14.131,31.5,31.5,31.5s31.5-14.131,31.5-31.5c0-4.142-3.358-7.5-7.5-7.5S128,275.348,128,279.49z"/>
		<path d="M303.5,215.99h-96c-4.142,0-7.5,3.358-7.5,7.5s3.358,7.5,7.5,7.5h96c4.143,0,7.5-3.358,7.5-7.5
			S307.643,215.99,303.5,215.99z"/>
		<path d="M255.5,263.99c-35.014,0-63.5,28.486-63.5,63.5s28.486,63.5,63.5,63.5c35.014,0,63.5-28.486,63.5-63.5
			S290.514,263.99,255.5,263.99z M263,375.408v-7.918c0-4.142-3.357-7.5-7.5-7.5c-4.142,0-7.5,3.358-7.5,7.5v7.918
			c-20.749-3.235-37.183-19.669-40.418-40.418h7.918c4.142,0,7.5-3.358,7.5-7.5s-3.358-7.5-7.5-7.5h-7.918
			c3.235-20.749,19.669-37.183,40.418-40.418v7.918c0,4.142,3.358,7.5,7.5,7.5c4.143,0,7.5-3.358,7.5-7.5v-7.918
			c20.749,3.235,37.183,19.669,40.418,40.418H295.5c-4.143,0-7.5,3.358-7.5,7.5s3.357,7.5,7.5,7.5h7.918
			C300.183,355.739,283.749,372.173,263,375.408z"/>
		<path d="M266.196,306.187l-11.652,11.652L235.66,305.25c-3.447-2.298-8.104-1.367-10.4,2.08c-2.298,3.446-1.367,8.103,2.08,10.4
			l24,16c2.941,1.961,6.966,1.56,9.464-0.937l16-16c2.929-2.929,2.929-7.678,0-10.606
			C273.874,303.258,269.126,303.258,266.196,306.187z"/>
		<path d="M55.5,174.99c26.191,0,47.5-21.309,47.5-47.5s-21.309-47.5-47.5-47.5S8,101.299,8,127.49S29.309,174.99,55.5,174.99z
			 M55.5,94.99c17.92,0,32.5,14.58,32.5,32.5s-14.58,32.5-32.5,32.5S23,145.411,23,127.49S37.58,94.99,55.5,94.99z"/>
		<path d="M52.146,134.198l16,8c3.906,1.954,8.759,0.062,10.344-3.993c1.392-3.56-0.221-7.716-3.636-9.423l-9.292-4.646l4.646-9.292
			c1.853-3.705,0.351-8.21-3.354-10.062c-3.705-1.854-8.209-0.351-10.062,3.354l-8,16C46.939,127.841,48.441,132.346,52.146,134.198
			z"/>
		<path d="M236.106,86.296c8.307,5.865,17.861,8.681,27.331,8.681c14.921,0,29.627-6.998,38.869-20.086
			c15.106-21.396,9.989-51.093-11.406-66.2c-21.395-15.105-51.092-9.99-66.2,11.406c-7.318,10.364-10.162,22.958-8.007,35.462
			S225.742,78.979,236.106,86.296z M236.954,28.748c6.324-8.957,16.385-13.744,26.595-13.744c6.479,0,13.017,1.927,18.699,5.94
			c14.64,10.336,18.141,30.655,7.805,45.295c-10.336,14.638-30.655,18.14-45.295,7.803c-7.091-5.007-11.809-12.476-13.283-21.031
			C230.001,44.457,231.947,35.84,236.954,28.748z"/>
		<path d="M256.894,51.039c1.929,3.595,6.552,4.997,10.154,3.064l15.764-8.456c3.65-1.958,5.022-6.504,3.064-10.155
			c-1.958-3.65-6.504-5.022-10.154-3.063l-9.154,4.91l-4.911-9.154c-1.957-3.65-6.504-5.021-10.154-3.064
			c-3.65,1.958-5.022,6.504-3.064,10.154L256.894,51.039z"/>
		<path d="M455.564,206.971c9.358,0,18.811-2.754,27.059-8.492c21.5-14.958,26.823-44.619,11.865-66.119
			c-7.245-10.415-18.113-17.385-30.602-19.626c-12.486-2.242-25.102,0.515-35.517,7.761s-17.386,18.114-19.627,30.602
			s0.516,25.102,7.762,35.517C425.725,199.866,440.526,206.971,455.564,206.971z M423.508,153.746
			c1.533-8.544,6.303-15.98,13.429-20.938c5.51-3.833,11.918-5.83,18.491-5.83c1.928,0,3.871,0.172,5.81,0.52
			c8.544,1.533,15.98,6.302,20.938,13.428c4.957,7.126,6.843,15.756,5.31,24.301c-1.533,8.544-6.303,15.98-13.429,20.938
			c-14.708,10.235-35.004,6.593-45.239-8.119C423.86,170.921,421.975,162.291,423.508,153.746z"/>
		<path d="M437.784,169.558c0.359,0,0.723-0.026,1.088-0.079l17.702-2.57c4.099-0.595,6.939-4.401,6.344-8.5l-2.57-17.703
			c-0.595-4.1-4.409-6.934-8.499-6.345c-4.1,0.595-6.94,4.401-6.345,8.5l1.492,10.281l-10.28,1.493
			c-3.831,0.556-6.677,4.079-6.404,7.943C430.585,166.45,433.897,169.558,437.784,169.558z"/>
	</g>
</g>
<g>
</g>
<g>
</g>
<g>
</g>
<g>
</g>
<g>
</g>
<g>
</g>
<g>
</g>
<g>
</g>
<g>
</g>
<g>
</g>
<g>
</g>
<g>
</g>
<g>
</g>
<g>
</g>
<g>
</g>
</svg>
