<?xml version="1.0" encoding="iso-8859-1"?>
<!-- Generator: Adobe Illustrator 19.0.0, SVG Export Plug-In . SVG Version: 6.00 Build 0)  -->
<svg version="1.1" id="Capa_1" xmlns="http://www.w3.org/2000/svg" xmlns:xlink="http://www.w3.org/1999/xlink" x="0px" y="0px"
	 viewBox="0 0 511.001 511.001" style="enable-background:new 0 0 511.001 511.001;" xml:space="preserve">
<g>
	<g>
		<rect x="63.5" y="327.501" style="fill:#FEC7B0;" width="80" height="176"/>
		<rect x="63.5" y="327.501" style="fill:#FEAA88;" width="24" height="176"/>
		<rect x="215.5" y="287.501" style="fill:#FEAA88;" width="80" height="216"/>
		<rect x="215.5" y="287.501" style="fill:#FD8E61;" width="24" height="216"/>
		<rect x="367.5" y="199.501" style="fill:#FD8E61;" width="80" height="304"/>
		<rect x="367.5" y="199.501" style="fill:#FD7239;" width="24" height="304"/>
		<path style="fill:#55697A;" d="M482.089,11.506c-3.44-3.038-8.023-4.452-12.573-3.882l-64,8
			c-8.769,1.096-14.988,9.093-13.892,17.861c1.096,8.77,9.102,14.983,17.86,13.892l24.068-3.008
			C352.149,145.657,252.06,197.285,180.243,223.031C96.403,253.087,31.645,255.488,31,255.509
			c-8.825,0.275-15.76,7.649-15.492,16.477c0.262,8.667,7.371,15.515,15.983,15.515c0.164,0,0.328-0.002,0.493-0.007
			c2.798-0.085,69.531-2.438,157.886-33.921c51.829-18.468,100.393-43.206,144.341-73.527
			c45.596-31.458,86.265-69.033,121.289-111.949v19.404c0,8.836,7.163,16,16,16s16-7.164,16-16v-64
			C487.5,18.912,485.53,14.543,482.089,11.506z"/>
	</g>
	<g>
		<path d="M503.5,496.001H455v-296.5c0-4.142-3.357-7.5-7.5-7.5h-80c-4.143,0-7.5,3.358-7.5,7.5v296.5h-57v-208.5
			c0-4.142-3.357-7.5-7.5-7.5h-80c-4.143,0-7.5,3.358-7.5,7.5v208.5h-57v-168.5c0-4.142-3.357-7.5-7.5-7.5h-80
			c-4.143,0-7.5,3.358-7.5,7.5v168.5H7.5c-4.143,0-7.5,3.358-7.5,7.5s3.357,7.5,7.5,7.5h496c4.143,0,7.5-3.358,7.5-7.5
			S507.643,496.001,503.5,496.001z M71,496.001v-161h65v161H71z M223,496.001v-201h65v201H223z M375,496.001v-289h65v289H375z"/>
		<path d="M31.491,295.001c0.238,0,0.476-0.003,0.721-0.011c2.847-0.086,70.736-2.483,160.176-34.353
			c50.28-17.917,97.591-41.701,140.618-70.692c3.435-2.314,4.343-6.976,2.028-10.411c-2.313-3.436-6.974-4.344-10.411-2.029
			c-41.986,28.291-88.171,51.506-137.271,69.002c-87.242,31.086-152.846,33.406-155.59,33.489l-0.271,0.004
			c-4.619,0-8.348-3.62-8.487-8.242c-0.142-4.681,3.551-8.607,8.234-8.754c0.655-0.021,66.524-2.438,151.536-32.914
			c71.22-25.531,173.554-77.662,256.624-181.024c4.136-5.146-0.237-12.96-6.775-12.14l-24.065,3.008
			c-4.172,0.516-8.224-2.218-9.283-6.292c-1.274-4.902,2.152-9.949,7.172-10.577l64.002-8c4.997-0.632,9.552,3.407,9.552,8.435v64
			c0,4.687-3.813,8.5-8.5,8.5s-8.5-3.813-8.5-8.5V68.097c0-3.065-1.982-5.931-4.849-7.014c-2.961-1.119-6.46-0.18-8.462,2.272
			c-28.012,34.324-59.908,65.383-94.803,92.315c-3.279,2.531-3.886,7.241-1.355,10.52c2.531,3.28,7.243,3.885,10.52,1.355
			c30.396-23.459,58.571-49.968,83.973-78.987c0.555,12.469,10.873,22.443,23.477,22.443c12.958,0,23.5-10.542,23.5-23.5v-64
			c0-6.737-2.896-13.159-7.947-17.617C482,1.422,475.272-0.657,468.585,0.183l-64,8c-12.705,1.588-21.993,13.514-20.403,26.232
			c1.606,12.852,13.364,22.011,26.233,20.404l5.222-0.652c-78.551,91.078-171.936,138.148-237.925,161.804
			c-82.28,29.497-146.322,32.02-146.946,32.041c-12.938,0.404-23.146,11.26-22.755,24.2
			C8.398,284.991,18.711,295.001,31.491,295.001z"/>
	</g>
</g>
<g>
</g>
<g>
</g>
<g>
</g>
<g>
</g>
<g>
</g>
<g>
</g>
<g>
</g>
<g>
</g>
<g>
</g>
<g>
</g>
<g>
</g>
<g>
</g>
<g>
</g>
<g>
</g>
<g>
</g>
</svg>
