<?xml version="1.0" encoding="iso-8859-1"?>
<!-- Generator: Adobe Illustrator 19.0.0, SVG Export Plug-In . SVG Version: 6.00 Build 0)  -->
<svg version="1.1" id="Capa_1" xmlns="http://www.w3.org/2000/svg" xmlns:xlink="http://www.w3.org/1999/xlink" x="0px" y="0px"
	 viewBox="0 0 511 511" style="enable-background:new 0 0 511 511;" xml:space="preserve">
<g>
	<g>
		<circle style="fill:#FD8E61;" cx="255.5" cy="255.5" r="160"/>
		<circle style="fill:#FD7239;" cx="255.5" cy="255.5" r="136"/>
		<circle style="fill:#FFFFFF;" cx="255.5" cy="255.5" r="112"/>
	</g>
	<g>
		<path d="M354.876,120.652c-3.332-2.459-8.029-1.752-10.488,1.58c-2.46,3.333-1.752,8.028,1.58,10.488
			C384.811,161.391,408,207.29,408,255.5c0,84.089-68.411,152.5-152.5,152.5S103,339.589,103,255.5S171.411,103,255.5,103
			c21.759,0,42.77,4.484,62.447,13.329c3.728,1.675,8.24-0.038,9.916-3.766c1.675-3.728-0.038-8.24-3.766-9.916
			C302.472,92.928,279.393,88,255.5,88C163.14,88,88,163.14,88,255.5S163.14,423,255.5,423S423,347.86,423,255.5
			c0-26.663-6.422-53.196-18.571-76.731C392.675,156.001,375.541,135.905,354.876,120.652z"/>
		<path d="M136,255.5c0,65.893,53.607,119.5,119.5,119.5S375,321.393,375,255.5S321.393,136,255.5,136S136,189.607,136,255.5z
			 M360,255.5c0,57.622-46.878,104.5-104.5,104.5S151,313.122,151,255.5S197.878,151,255.5,151S360,197.878,360,255.5z"/>
		<path d="M248,175.5v16.674c-17.938,1.764-32,16.932-32,35.326c0,19.575,15.925,35.5,35.5,35.5h8c11.304,0,20.5,9.196,20.5,20.5
			s-9.196,20.5-20.5,20.5h-12c-9.098,0-16.5-7.402-16.5-16.5c0-4.142-3.358-7.5-7.5-7.5s-7.5,3.358-7.5,7.5
			c0,17.369,14.131,31.5,31.5,31.5h0.5v16.5c0,4.142,3.358,7.5,7.5,7.5s7.5-3.358,7.5-7.5v-16.674c17.938-1.764,32-16.932,32-35.326
			c0-19.575-15.925-35.5-35.5-35.5h-8c-11.304,0-20.5-9.196-20.5-20.5s9.196-20.5,20.5-20.5h12c9.098,0,16.5,7.402,16.5,16.5v8
			c0,4.142,3.358,7.5,7.5,7.5s7.5-3.358,7.5-7.5v-8c0-17.369-14.131-31.5-31.5-31.5H263v-16.5c0-4.142-3.358-7.5-7.5-7.5
			S248,171.358,248,175.5z"/>
		<path d="M503.5,248h-32.643c-1.861-54.749-24.046-105.952-62.976-144.881S317.749,42.003,263,40.143V7.5
			c0-4.142-3.358-7.5-7.5-7.5S248,3.358,248,7.5v32.643c-54.749,1.861-105.952,24.046-144.881,62.976S42.003,193.251,40.143,248H7.5
			c-4.142,0-7.5,3.358-7.5,7.5s3.358,7.5,7.5,7.5h32.643c1.861,54.749,24.046,105.952,62.976,144.881S193.251,468.997,248,470.857
			V503.5c0,4.142,3.358,7.5,7.5,7.5s7.5-3.358,7.5-7.5v-32.643c54.749-1.861,105.952-24.046,144.881-62.976
			S468.997,317.749,470.857,263H503.5c4.142,0,7.5-3.358,7.5-7.5S507.642,248,503.5,248z M263,455.845V447.5
			c0-4.142-3.358-7.5-7.5-7.5s-7.5,3.358-7.5,7.5v8.345C143.397,451.978,59.022,367.603,55.155,263H63.5c4.142,0,7.5-3.358,7.5-7.5
			s-3.358-7.5-7.5-7.5h-8.345C59.022,143.397,143.397,59.022,248,55.155V63.5c0,4.142,3.358,7.5,7.5,7.5s7.5-3.358,7.5-7.5v-8.345
			C367.603,59.022,451.978,143.397,455.845,248H447.5c-4.142,0-7.5,3.358-7.5,7.5s3.358,7.5,7.5,7.5h8.345
			C451.978,367.603,367.603,451.978,263,455.845z"/>
	</g>
</g>
<g>
</g>
<g>
</g>
<g>
</g>
<g>
</g>
<g>
</g>
<g>
</g>
<g>
</g>
<g>
</g>
<g>
</g>
<g>
</g>
<g>
</g>
<g>
</g>
<g>
</g>
<g>
</g>
<g>
</g>
</svg>
