<?xml version="1.0" encoding="iso-8859-1"?>
<!-- Generator: Adobe Illustrator 19.0.0, SVG Export Plug-In . SVG Version: 6.00 Build 0)  -->
<svg version="1.1" id="Capa_1" xmlns="http://www.w3.org/2000/svg" xmlns:xlink="http://www.w3.org/1999/xlink" x="0px" y="0px"
	 viewBox="0 0 511 511" style="enable-background:new 0 0 511 511;" xml:space="preserve">
<g>
	<g>
		<g>
			<rect x="31.5" y="63.5" style="fill:#EAECEE;" width="448" height="352"/>
			<rect x="31.5" y="63.5" style="fill:#D5D9DE;" width="448" height="56"/>
			<rect x="7.5" y="63.5" style="fill:#55697A;" width="496" height="32"/>
		</g>
		<circle style="fill:#76E7EB;" cx="159.5" cy="191.5" r="64"/>
		<path style="fill:#FD8E61;" d="M384.471,331.5l31.515-31.515c4.687-4.687,4.687-12.284,0-16.971
			c-4.686-4.687-12.285-4.687-16.971,0L367.5,314.53l-31.515-31.515c-4.686-4.687-12.285-4.687-16.971,0
			c-4.687,4.687-4.687,12.284,0,16.971l31.515,31.515l-31.515,31.515c-4.687,4.687-4.687,12.284,0,16.971
			c2.343,2.343,5.414,3.515,8.485,3.515s6.143-1.171,8.485-3.515l31.515-31.515l31.515,31.515c2.343,2.343,5.414,3.515,8.485,3.515
			s6.143-1.171,8.485-3.515c4.687-4.687,4.687-12.284,0-16.971L384.471,331.5z"/>
	</g>
	<g>
		<path d="M503.5,56H353.528L259.279,1.022c-2.336-1.362-5.223-1.362-7.558,0L157.472,56H7.5C3.358,56,0,59.358,0,63.5v32
			c0,4.142,3.358,7.5,7.5,7.5H24v312.5c0,4.142,3.358,7.5,7.5,7.5H248v73h-24.5c-4.142,0-7.5,3.358-7.5,7.5s3.358,7.5,7.5,7.5h64
			c4.143,0,7.5-3.358,7.5-7.5s-3.357-7.5-7.5-7.5H263v-73h216.5c4.143,0,7.5-3.358,7.5-7.5V103h16.5c4.143,0,7.5-3.358,7.5-7.5v-32
			C511,59.358,507.643,56,503.5,56z M255.5,16.183L323.758,56H187.242L255.5,16.183z M496,88h-76.5c-4.143,0-7.5,3.358-7.5,7.5
			s3.357,7.5,7.5,7.5H472v305H39V103h345.833c4.143,0,7.5-3.358,7.5-7.5s-3.357-7.5-7.5-7.5H15V71h481V88z"/>
		<path d="M159.5,263c39.425,0,71.5-32.075,71.5-71.5S198.925,120,159.5,120S88,152.075,88,191.5S120.075,263,159.5,263z M159.5,135
			c31.154,0,56.5,25.346,56.5,56.5S190.654,248,159.5,248S103,222.655,103,191.5S128.346,135,159.5,135z"/>
		<path d="M421.289,277.712c-7.516-7.518-20.062-7.518-27.578,0L367.5,303.923l-26.211-26.211c-7.516-7.518-20.062-7.518-27.578,0
			c-7.603,7.603-7.603,19.974,0,27.577l26.212,26.211l-26.212,26.211c-7.603,7.603-7.603,19.974-0.001,27.576
			c7.515,7.517,20.064,7.518,27.579,0.001l26.211-26.211l26.21,26.21c7.515,7.517,20.064,7.518,27.579,0.001
			c7.603-7.603,7.603-19.974,0-27.577L395.077,331.5l26.212-26.211C428.892,297.686,428.892,285.315,421.289,277.712z
			 M410.682,294.682l-31.515,31.515c-2.929,2.929-2.929,7.678,0,10.606l31.515,31.515c1.656,1.656,1.742,4.402,0.194,6.158
			c-1.693,1.92-4.747,2.018-6.557,0.206l-31.515-31.515c-2.89-2.889-7.717-2.889-10.607,0l-31.516,31.516
			c-1.81,1.811-4.865,1.712-6.557-0.208c-1.548-1.756-1.461-4.502,0.195-6.157l31.515-31.515c2.929-2.929,2.929-7.678,0-10.606
			l-31.515-31.515c-1.655-1.655-1.743-4.401-0.195-6.157c1.693-1.921,4.747-2.019,6.558-0.207l31.515,31.515
			c2.93,2.929,7.678,2.929,10.607,0l31.515-31.515c1.811-1.811,4.865-1.713,6.558,0.208
			C412.424,290.282,412.337,293.027,410.682,294.682z"/>
		<path d="M377.644,154.815c-2.588,3.234-2.063,7.954,1.171,10.542L402.119,184H303.5c-21.78,0-39.5,17.72-39.5,39.5v80
			c0,13.509-10.991,24.5-24.5,24.5h-144c-4.142,0-7.5,3.358-7.5,7.5s3.358,7.5,7.5,7.5h144c21.78,0,39.5-17.72,39.5-39.5v-80
			c0-13.509,10.99-24.5,24.5-24.5h98.619l-23.305,18.644c-2.936,2.349-3.672,6.659-1.667,9.844
			c2.352,3.736,7.585,4.632,11.038,1.869l40-32c3.694-2.956,3.694-8.756,0-11.713l-40-32
			C384.951,151.056,380.232,151.581,377.644,154.815z"/>
	</g>
</g>
<g>
</g>
<g>
</g>
<g>
</g>
<g>
</g>
<g>
</g>
<g>
</g>
<g>
</g>
<g>
</g>
<g>
</g>
<g>
</g>
<g>
</g>
<g>
</g>
<g>
</g>
<g>
</g>
<g>
</g>
</svg>
