<?xml version="1.0" encoding="iso-8859-1"?>
<!-- Generator: Adobe Illustrator 19.0.0, SVG Export Plug-In . SVG Version: 6.00 Build 0)  -->
<svg version="1.1" id="Capa_1" xmlns="http://www.w3.org/2000/svg" xmlns:xlink="http://www.w3.org/1999/xlink" x="0px" y="0px"
	 viewBox="0 0 511.5 511.5" style="enable-background:new 0 0 511.5 511.5;" xml:space="preserve">
<g>
	<g>
		<g>
			<rect x="158.95" y="136" style="fill:#EAECEE;" width="192" height="216"/>
			<rect x="158.95" y="136" style="fill:#D5D9DE;" width="24" height="216"/>
			<path style="fill:#76E7EB;" d="M254.95,8c-88,32-96,112-96,128h96h96C350.95,120,342.95,40,254.95,8z"/>
			<path style="fill:#1BD7DE;" d="M266.95,12.872c-3.825-1.724-7.822-3.353-12-4.872c-88,32-96,112-96,128h24
				C182.95,120.759,190.21,47.454,266.95,12.872z"/>
			<path style="fill:#49DFE5;" d="M350.95,352h64c0-32-32-72-64-72C350.95,304,350.95,328,350.95,352z"/>
			<path style="fill:#1BD7DE;" d="M158.95,352h-64c0-32,32-72,64-72C158.95,304,158.95,328,158.95,352z"/>
			<g>
				<rect x="158.95" y="304" style="fill:#D5D9DE;" width="192" height="48"/>
			</g>
			<g>
				<rect x="158.95" y="304" style="fill:#BFC7CD;" width="24" height="48"/>
			</g>
			<g>
				<circle style="fill:#95A1AC;" cx="254.95" cy="216" r="48"/>
			</g>
		</g>
	</g>
	<g>
		<path d="M88.05,254.2c0-14.171-11.528-25.7-25.699-25.7h-5.2c-5.9,0-10.7-4.8-10.7-10.7s4.8-10.7,10.7-10.7h7.8
			c4.466,0,8.1,3.634,8.1,8.1v5.2c0,4.142,3.357,7.5,7.5,7.5s7.5-3.358,7.5-7.5v-5.2c0-11.961-9.138-21.827-20.8-22.985V184
			c0-4.142-3.357-7.5-7.5-7.5s-7.5,3.358-7.5,7.5v8.574c-11.834,2.295-20.8,12.73-20.8,25.225c0,14.171,11.529,25.7,25.7,25.7h5.2
			c5.899,0,10.699,4.8,10.699,10.7s-4.8,10.7-10.699,10.7H54.55c-4.466,0-8.1-3.634-8.1-8.1c0-4.142-3.357-7.5-7.5-7.5
			s-7.5,3.358-7.5,7.5c0,11.961,9.138,21.827,20.8,22.985V288c0,4.142,3.357,7.5,7.5,7.5s7.5-3.358,7.5-7.5v-8.574
			C79.085,277.131,88.05,266.695,88.05,254.2z"/>
		<path d="M398.35,96.9h-7.801c-4.466,0-8.1-3.634-8.1-8.1c0-4.142-3.357-7.5-7.5-7.5s-7.5,3.358-7.5,7.5
			c0,11.961,9.138,21.827,20.8,22.985V120c0,4.142,3.357,7.5,7.5,7.5s7.5-3.358,7.5-7.5v-8.574c11.835-2.294,20.8-12.73,20.8-25.226
			c0-14.171-11.528-25.7-25.699-25.7h-5.2c-5.9,0-10.7-4.8-10.7-10.7s4.8-10.7,10.7-10.7h7.8c4.466,0,8.1,3.634,8.1,8.1v5.2
			c0,4.142,3.357,7.5,7.5,7.5s7.5-3.358,7.5-7.5v-5.2c0-11.961-9.138-21.827-20.8-22.985V16c0-4.142-3.357-7.5-7.5-7.5
			s-7.5,3.358-7.5,7.5v8.574c-11.834,2.295-20.8,12.73-20.8,25.225c0,14.171,11.529,25.7,25.7,25.7h5.2
			c5.899,0,10.699,4.8,10.699,10.7S404.25,96.9,398.35,96.9z"/>
		<path d="M472.55,443.9c4.143,0,7.5-3.358,7.5-7.5v-5.2c0-11.961-9.138-21.827-20.8-22.985V400c0-4.142-3.357-7.5-7.5-7.5
			s-7.5,3.358-7.5,7.5v8.574c-11.834,2.295-20.8,12.73-20.8,25.225c0,14.171,11.529,25.7,25.7,25.7h5.2
			c5.899,0,10.699,4.8,10.699,10.7s-4.8,10.7-10.699,10.7h-7.801c-4.466,0-8.1-3.634-8.1-8.1c0-4.142-3.357-7.5-7.5-7.5
			s-7.5,3.358-7.5,7.5c0,11.961,9.138,21.827,20.8,22.985V504c0,4.142,3.357,7.5,7.5,7.5s7.5-3.358,7.5-7.5v-8.574
			c11.835-2.294,20.8-12.73,20.8-25.226c0-14.171-11.528-25.7-25.699-25.7h-5.2c-5.9,0-10.7-4.8-10.7-10.7s4.8-10.7,10.7-10.7h7.8
			c4.466,0,8.1,3.634,8.1,8.1v5.2C465.05,440.542,468.407,443.9,472.55,443.9z"/>
		<path d="M358.95,272.685v-76.352c0-4.418-3.582-8-8-8s-8,3.582-8,8V296.5h-176V144h176v16c0,4.418,3.582,8,8,8s8-3.582,8-8v-24
			c0-4.03-1.151-99.113-101.266-135.519c-1.768-0.642-3.701-0.642-5.469,0C152.101,36.887,150.95,131.97,150.95,136v136.685
			c-14.752,2.491-29.722,11.698-42.074,26.108C95.146,314.811,86.95,334.701,86.95,352c0,4.418,3.582,8,8,8h320c4.418,0,8-3.582,8-8
			c0-17.298-8.196-37.189-21.926-53.207C388.672,284.383,373.702,275.176,358.95,272.685z M342.95,311.5V344h-176v-32.5H342.95z
			 M254.95,16.539c72.234,27.667,85.183,89.315,87.498,111.461H167.452C169.767,105.854,182.716,44.206,254.95,16.539z
			 M121.024,309.206c9.138-10.662,19.699-17.726,29.926-20.213V344h-47.253C105.766,332.439,112.016,319.715,121.024,309.206z
			 M358.95,344v-55.006c10.227,2.487,20.788,9.551,29.926,20.213c9.008,10.509,15.259,23.232,17.327,34.793H358.95z"/>
		<circle cx="254.95" cy="328" r="7.5"/>
		<circle cx="318.95" cy="328" r="7.5"/>
		<circle cx="286.95" cy="328" r="7.5"/>
		<circle cx="190.95" cy="328" r="7.5"/>
		<circle cx="222.95" cy="328" r="7.5"/>
		<path d="M199.45,216c0,30.603,24.897,55.5,55.5,55.5s55.5-24.897,55.5-55.5s-24.897-55.5-55.5-55.5S199.45,185.397,199.45,216z
			 M295.45,216c0,22.332-18.168,40.5-40.5,40.5s-40.5-18.168-40.5-40.5s18.168-40.5,40.5-40.5S295.45,193.668,295.45,216z"/>
	</g>
</g>
<g>
	<g>
		<path style="fill:#FD8E61;" d="M206.95,424c0-26.51,21.49-48,48-48s48,21.49,48,48s-48,80-48,80S206.95,450.509,206.95,424z"/>
	</g>
	<g>
		<path style="fill:#FFFFFF;" d="M230.95,400c0-13.255,10.745-24,24-24c13.255,0,24,10.745,24,24s-24,48-24,48
			S230.95,413.255,230.95,400z"/>
	</g>
</g>
<path d="M254.95,368.5c-30.603,0-55.5,24.897-55.5,55.5c0,28.557,44.809,79.315,49.918,85.009c1.423,1.585,3.452,2.491,5.582,2.491
	s4.159-0.906,5.582-2.491c5.109-5.694,49.918-56.452,49.918-85.009C310.45,393.397,285.553,368.5,254.95,368.5z M271.45,400
	c0,5.464-7.752,20.466-16.501,34.368C246.2,420.472,238.45,405.471,238.45,400c0-9.098,7.402-16.5,16.5-16.5
	S271.45,390.902,271.45,400z M254.949,492.574c-17.572-20.77-40.499-53.065-40.499-68.575c0-9.641,3.392-18.502,9.037-25.464
	c-0.022,0.485-0.037,0.973-0.037,1.464c0,14.842,21.1,46.139,25.329,52.263c1.4,2.027,3.707,3.237,6.171,3.237
	s4.771-1.21,6.171-3.237c4.229-6.124,25.329-37.421,25.329-52.263c0-0.491-0.015-0.978-0.037-1.464
	c5.646,6.962,9.037,15.823,9.037,25.464C295.45,439.491,272.521,471.795,254.949,492.574z"/>
<g>
</g>
<g>
</g>
<g>
</g>
<g>
</g>
<g>
</g>
<g>
</g>
<g>
</g>
<g>
</g>
<g>
</g>
<g>
</g>
<g>
</g>
<g>
</g>
<g>
</g>
<g>
</g>
<g>
</g>
</svg>
