<?xml version="1.0" encoding="iso-8859-1"?>
<!-- Generator: Adobe Illustrator 19.0.0, SVG Export Plug-In . SVG Version: 6.00 Build 0)  -->
<svg version="1.1" id="Capa_1" xmlns="http://www.w3.org/2000/svg" xmlns:xlink="http://www.w3.org/1999/xlink" x="0px" y="0px"
	 viewBox="0 0 511 511" style="enable-background:new 0 0 511 511;" xml:space="preserve">
<g>
	<g>
		<g>
			<path style="fill:#55697A;" d="M307.5,503.5h-224c-17.673,0-32-14.327-32-32v-432c0-17.673,14.327-32,32-32h224
				c17.673,0,32,14.327,32,32v432C339.5,489.173,325.173,503.5,307.5,503.5z"/>
			<path style="fill:#40566A;" d="M75.5,471.5v-432c0-17.673,14.327-32,32-32h-24c-17.673,0-32,14.327-32,32v432
				c0,17.673,14.327,32,32,32h24C89.827,503.5,75.5,489.173,75.5,471.5z"/>
			<g>
				<path style="fill:#EAECEE;" d="M51.5,471.5c0,17.673,14.327,32,32,32h224c17.673,0,32-14.327,32-32v-40h-288V471.5z"/>
				<path style="fill:#EAECEE;" d="M307.5,7.5h-224c-17.673,0-32,14.327-32,32v32h288v-32C339.5,21.827,325.173,7.5,307.5,7.5z"/>
			</g>
			<g>
				<path style="fill:#D5D9DE;" d="M75.5,471.5v-40h-24v40c0,17.673,14.327,32,32,32h24C89.827,503.5,75.5,489.173,75.5,471.5z"/>
				<path style="fill:#D5D9DE;" d="M107.5,7.5h-24c-17.673,0-32,14.327-32,32v32h24v-32C75.5,21.827,89.827,7.5,107.5,7.5z"/>
			</g>
			<rect x="179.5" y="455.5" style="fill:#95A1AC;" width="32" height="24"/>
		</g>
		<g>
			<polygon style="fill:#FEF7E1;" points="291.5,111.5 99.5,111.5 99.5,275.5 159.5,335.5 291.5,335.5 			"/>
			<polygon style="fill:#FEEEC3;" points="159.5,275.5 99.5,275.5 159.5,335.5 			"/>
		</g>
		<g>
			<path style="fill:#FEEEC3;" d="M195.5,255.5c0,29.239,9.633,56.932,27.494,80H291.5V127.279
				C235.628,145.991,195.5,196.399,195.5,255.5z"/>
			<path style="fill:#76E7EB;" d="M339.5,143.5c-66.274,0-120,50.144-120,112c0,31.46,13.903,59.884,36.281,80.229L235.5,391.5
				l58.965-32.163c13.907,5.259,29.106,8.163,45.035,8.163c66.274,0,120-50.144,120-112S405.774,143.5,339.5,143.5z"/>
			<path style="fill:#1BD7DE;" d="M371.5,351.5c-70.692,0-128-50.144-128-112c0-34.342,17.67-65.067,45.482-85.612
				c-41.03,17.8-69.482,56.602-69.482,101.612c0,31.46,13.903,59.884,36.281,80.229L235.5,391.5l58.965-32.163
				c13.907,5.259,29.106,8.163,45.035,8.163c26.117,0,50.282-7.792,69.981-21.014C397.481,349.744,384.725,351.5,371.5,351.5z"/>
		</g>
	</g>
	<g>
		<path d="M211.5,448h-32c-4.143,0-7.5,3.358-7.5,7.5v24c0,4.142,3.357,7.5,7.5,7.5h32c4.143,0,7.5-3.358,7.5-7.5v-24
			C219,451.358,215.643,448,211.5,448z M204,472h-17v-9h17V472z"/>
		<path d="M211.5,32h-32c-4.143,0-7.5,3.358-7.5,7.5s3.357,7.5,7.5,7.5h32c4.143,0,7.5-3.358,7.5-7.5S215.643,32,211.5,32z"/>
		<path d="M139.5,175h48c4.143,0,7.5-3.358,7.5-7.5s-3.357-7.5-7.5-7.5h-48c-4.143,0-7.5,3.358-7.5,7.5S135.357,175,139.5,175z"/>
		<path d="M139.5,255h56c4.143,0,7.5-3.358,7.5-7.5s-3.357-7.5-7.5-7.5h-56c-4.143,0-7.5,3.358-7.5,7.5S135.357,255,139.5,255z"/>
		<path d="M467,255.5c0-63.532-53.174-115.636-120-119.288V39.5C347,17.72,329.28,0,307.5,0h-224C61.72,0,44,17.72,44,39.5v304
			c0,4.142,3.357,7.5,7.5,7.5s7.5-3.358,7.5-7.5V79h273v57.212c-11.469,0.627-22.536,2.676-33,5.97V111.5c0-4.142-3.357-7.5-7.5-7.5
			h-192c-4.143,0-7.5,3.358-7.5,7.5v164c0,1.973,0.805,3.907,2.196,5.303l60,60c1.389,1.395,3.336,2.197,5.304,2.197h85.656
			l-16.705,45.937c-2.303,6.337,4.688,12.394,10.641,9.147l55.994-30.542c11.868,4.138,24.243,6.562,36.914,7.249V424H59v-45
			c0-4.142-3.357-7.5-7.5-7.5S44,374.858,44,379v92.5c0,21.78,17.72,39.5,39.5,39.5h224c21.78,0,39.5-17.72,39.5-39.5v-96.712
			C413.826,371.136,467,319.032,467,255.5z M59,64V39.5C59,25.991,69.99,15,83.5,15h224c13.51,0,24.5,10.991,24.5,24.5V64H59z
			 M284,119v28.929c-7.725,3.515-15.013,7.745-21.775,12.589c-0.845-0.33-1.762-0.518-2.725-0.518h-40c-4.143,0-7.5,3.358-7.5,7.5
			s3.357,7.5,7.5,7.5h25.853c-7.324,7.519-13.635,15.917-18.739,25H139.5c-4.143,0-7.5,3.358-7.5,7.5s3.357,7.5,7.5,7.5h80.044
			c-4.878,12.653-7.544,26.29-7.544,40.5c0,26.613,9.171,51.793,26.122,72.5H167v-52.5c0-4.142-3.357-7.5-7.5-7.5H107V119H284z
			 M152,317.394L117.606,283H152V317.394z M307.5,496h-224C69.99,496,59,485.009,59,471.5V439h273v32.5
			C332,485.009,321.01,496,307.5,496z M339.5,360c-14.651,0-28.911-2.583-42.382-7.678c-2.045-0.773-4.326-0.616-6.245,0.431
			l-41.543,22.66l13.499-37.122c1.04-2.86,0.248-6.065-2.004-8.112C239.013,310.348,227,283.826,227,255.5
			c0-57.622,50.468-104.5,112.5-104.5S452,197.878,452,255.5S401.532,360,339.5,360z"/>
		<path d="M347.5,192H347v-16.5c0-4.142-3.357-7.5-7.5-7.5s-7.5,3.358-7.5,7.5v16.674c-17.938,1.764-32,16.932-32,35.326
			c0,19.575,15.925,35.5,35.5,35.5h8c11.304,0,20.5,9.196,20.5,20.5s-9.196,20.5-20.5,20.5h-12c-9.098,0-16.5-7.402-16.5-16.5
			c0-4.142-3.357-7.5-7.5-7.5s-7.5,3.358-7.5,7.5c0,17.369,14.131,31.5,31.5,31.5h0.5v16.5c0,4.142,3.357,7.5,7.5,7.5
			s7.5-3.358,7.5-7.5v-16.674c17.938-1.764,32-16.932,32-35.326c0-19.575-15.925-35.5-35.5-35.5h-8c-11.304,0-20.5-9.196-20.5-20.5
			s9.196-20.5,20.5-20.5h12c9.098,0,16.5,7.402,16.5,16.5v8c0,4.142,3.357,7.5,7.5,7.5s7.5-3.358,7.5-7.5v-8
			C379,206.131,364.869,192,347.5,192z"/>
	</g>
</g>
<g>
</g>
<g>
</g>
<g>
</g>
<g>
</g>
<g>
</g>
<g>
</g>
<g>
</g>
<g>
</g>
<g>
</g>
<g>
</g>
<g>
</g>
<g>
</g>
<g>
</g>
<g>
</g>
<g>
</g>
</svg>
