<?xml version="1.0" encoding="iso-8859-1"?>
<!-- Generator: Adobe Illustrator 19.0.0, SVG Export Plug-In . SVG Version: 6.00 Build 0)  -->
<svg version="1.1" id="Capa_1" xmlns="http://www.w3.org/2000/svg" xmlns:xlink="http://www.w3.org/1999/xlink" x="0px" y="0px"
	 viewBox="0 0 505.982 505.982" style="enable-background:new 0 0 505.982 505.982;" xml:space="preserve">
<g>
	<g>
		<path style="fill:#6B7B8B;" d="M452.305,467.169l-68-68c-6.248-6.249-16.379-6.249-22.627,0c-6.249,6.248-6.249,16.379,0,22.627
			l68,68c5.07,5.071,13.155,6.132,19.356,2.522c5.555-3.234,8.68-9.65,7.81-16.014C456.372,472.86,454.763,469.627,452.305,467.169z
			"/>
		<path style="fill:#6B7B8B;" d="M53.678,467.169l68-68c6.248-6.249,16.379-6.249,22.627,0c6.249,6.248,6.249,16.379,0,22.627
			l-68,68c-5.07,5.071-13.155,6.132-19.356,2.522c-5.555-3.234-8.679-9.65-7.81-16.014C49.61,472.86,51.22,469.627,53.678,467.169z"
			/>
		<g>
			<circle style="fill:#76E7EB;" cx="252.991" cy="314.482" r="184"/>
			<path style="fill:#1BD7DE;" d="M284.991,482.482c-101.62,0-184-82.38-184-184c0-65.682,34.423-123.316,86.205-155.873
				c-69.122,26.477-118.205,93.438-118.205,171.873c0,101.62,82.38,184,184,184c35.938,0,69.463-10.313,97.795-28.127
				C330.355,478.182,308.177,482.482,284.991,482.482z"/>
			<circle style="fill:#EAECEE;" cx="252.991" cy="314.482" r="144"/>
			<circle style="fill:#FFFFFF;" cx="252.991" cy="314.482" r="120.764"/>
		</g>
		<path style="fill:#FD8E61;" d="M413.452,72.774c-18.62-11.889-43.351-6.432-55.24,12.188l-17.221,26.971l67.428,43.052
			l17.221-26.971C437.529,109.394,432.072,84.662,413.452,72.774z"/>
		<path style="fill:#FD7239;" d="M413.452,72.774c-6.482-4.139-13.705-6.17-20.869-6.281c16.064,12.547,20.248,35.49,9.056,53.019
			l-14.127,22.125l20.906,13.348l17.221-26.971C437.529,109.394,432.072,84.662,413.452,72.774z"/>
		<path style="fill:#FD8E61;" d="M92.53,72.774c18.62-11.889,43.351-6.432,55.24,12.188l17.221,26.971l-67.428,43.052
			l-17.221-26.971C68.454,109.394,73.911,84.662,92.53,72.774z"/>
		<path style="fill:#FD7239;" d="M107.283,119.511c-11.173-17.499-7.023-40.394,8.972-52.956
			c-8.084-0.452-16.379,1.528-23.725,6.218c-18.62,11.889-24.076,36.62-12.188,55.24l17.221,26.971l22.994-14.682L107.283,119.511z"
			/>
	</g>
	<g>
		<path d="M457.608,461.866l-43.691-43.691c19.335-29.904,30.574-65.509,30.574-103.693c0-105.593-85.907-191.5-191.5-191.5
			s-191.5,85.907-191.5,191.5c0,38.183,11.239,73.789,30.574,103.693l-43.69,43.69c-8.264,8.262-9.043,21.617-2.012,30.885
			c1.848,2.436,4.169,4.51,6.813,6.049c9.11,5.304,20.985,3.749,28.432-3.7l40.74-40.74c34.241,32.001,80.19,51.623,130.643,51.623
			s96.402-19.622,130.643-51.623l40.74,40.74c7.447,7.449,19.323,9.005,28.433,3.701c9.721-5.659,14.142-18.003,10.197-28.534
			C461.827,467.125,459.98,464.237,457.608,461.866z M71.001,484.493c-2.683,2.683-7.005,3.248-10.278,1.343
			c-4.735-2.757-5.618-9.488-1.742-13.364l41.855-41.855c3.461,4.523,7.113,8.892,10.955,13.086L71.001,484.493z M252.991,490.982
			c-97.322,0-176.5-79.178-176.5-176.5s79.178-176.5,176.5-176.5s176.5,79.178,176.5,176.5S350.314,490.982,252.991,490.982z
			 M445.26,485.836c-3.274,1.904-7.596,1.339-10.279-1.344l-40.789-40.789c3.842-4.194,7.494-8.563,10.955-13.086l41.855,41.855
			C450.878,476.349,449.994,483.08,445.26,485.836z"/>
		<path d="M337.561,188.766c-3.434-2.315-8.096-1.407-10.411,2.028c-2.315,3.435-1.407,8.096,2.028,10.411
			c37.766,25.453,60.313,67.8,60.313,113.278c0,75.266-61.234,136.5-136.5,136.5s-136.5-61.234-136.5-136.5
			s61.234-136.5,136.5-136.5c15.85,0,31.375,2.69,46.147,7.996c3.896,1.398,8.194-0.625,9.594-4.523
			c1.4-3.898-0.625-8.193-4.523-9.594c-16.403-5.891-33.635-8.878-51.218-8.878c-83.538,0-151.5,67.962-151.5,151.5
			s67.962,151.5,151.5,151.5s151.5-67.962,151.5-151.5C404.491,264.008,379.471,217.011,337.561,188.766z"/>
		<path d="M284.991,297.982c4.142,0,7.5-3.358,7.5-7.5v-8c0-17.369-14.131-31.5-31.5-31.5h-0.5v-16.5c0-4.142-3.358-7.5-7.5-7.5
			c-4.142,0-7.5,3.358-7.5,7.5v16.674c-17.938,1.764-32,16.932-32,35.326c0,19.575,15.925,35.5,35.5,35.5h8
			c11.304,0,20.5,9.196,20.5,20.5s-9.196,20.5-20.5,20.5h-12c-9.098,0-16.5-7.402-16.5-16.5c0-4.142-3.358-7.5-7.5-7.5
			s-7.5,3.358-7.5,7.5c0,17.369,14.131,31.5,31.5,31.5h0.5v16.5c0,4.142,3.358,7.5,7.5,7.5c4.142,0,7.5-3.358,7.5-7.5v-16.674
			c17.938-1.764,32-16.932,32-35.326c0-19.575-15.925-35.5-35.5-35.5h-8c-11.304,0-20.5-9.196-20.5-20.5s9.196-20.5,20.5-20.5h12
			c9.098,0,16.5,7.402,16.5,16.5v8C277.491,294.625,280.849,297.982,284.991,297.982z"/>
		<path d="M336.955,118.253l67.428,43.053c3.444,2.2,8.161,1.154,10.357-2.285l17.221-26.971
			c14.095-22.075,7.603-51.502-14.473-65.598c-10.693-6.828-23.406-9.082-35.796-6.349c-12.39,2.733-22.973,10.128-29.801,20.822
			l-17.221,26.971C332.471,111.34,333.515,116.058,336.955,118.253z M364.534,88.998c4.672-7.317,11.913-12.376,20.39-14.247
			c8.477-1.87,17.176-0.327,24.492,4.344c15.104,9.644,19.546,29.778,9.902,44.883l-13.185,20.65l-54.785-34.98L364.534,88.998z"/>
		<path d="M74.022,132.05l17.221,26.971c2.196,3.44,6.913,4.485,10.357,2.285l67.428-43.053c3.44-2.196,4.484-6.913,2.285-10.357
			l-17.221-26.971c-6.828-10.694-17.411-18.089-29.801-20.822c-12.392-2.735-25.103-0.479-35.796,6.349
			C66.419,80.547,59.926,109.975,74.022,132.05z M96.567,79.095c5.289-3.377,11.299-5.119,17.426-5.119
			c2.35,0,4.717,0.256,7.066,0.774c8.477,1.871,15.718,6.93,20.39,14.247l13.185,20.649l-54.785,34.98l-13.185-20.65
			C77.02,108.873,81.462,88.739,96.567,79.095z"/>
		<path d="M492.714,49.55c-6.499-12.545-15.52-23.279-26.813-31.905c-11.292-8.626-24.022-14.506-37.834-17.476
			c-4.05-0.87-8.039,1.706-8.909,5.756c-0.871,4.05,1.707,8.039,5.756,8.909c11.633,2.501,22.36,7.458,31.882,14.731
			s17.125,16.319,22.599,26.885c2.005,3.871,7.038,5.21,10.714,2.86C493.328,57.25,494.47,52.94,492.714,49.55z"/>
		<path d="M446.476,43.074c-7.502-5.73-15.967-9.638-25.16-11.614c-4.052-0.872-8.039,1.707-8.909,5.756
			c-0.871,4.05,1.707,8.039,5.756,8.909c7.014,1.508,13.477,4.492,19.208,8.87c5.731,4.378,10.31,9.828,13.609,16.198
			c2.005,3.871,7.038,5.21,10.713,2.86c3.22-2.059,4.362-6.369,2.606-9.759C459.975,55.944,453.978,48.805,446.476,43.074z"/>
		<path d="M49.187,29.565c9.522-7.273,20.249-12.229,31.882-14.731c4.049-0.871,6.626-4.859,5.756-8.909
			c-0.871-4.049-4.858-6.626-8.909-5.756c-13.812,2.97-26.542,8.85-37.834,17.476c-11.293,8.626-20.314,19.36-26.813,31.905
			c-1.759,3.395-0.61,7.692,2.606,9.759c3.671,2.359,8.711,1.005,10.714-2.86C32.062,45.884,39.665,36.838,49.187,29.565z"/>
		<path d="M44.893,74.403c3.634,1.882,8.23,0.417,10.109-3.21c3.3-6.371,7.878-11.82,13.609-16.198
			c5.731-4.378,12.193-7.362,19.208-8.87c4.049-0.871,6.626-4.859,5.756-8.909c-0.87-4.049-4.856-6.628-8.909-5.756
			c-9.192,1.977-17.657,5.884-25.16,11.615c-7.502,5.73-13.499,12.87-17.823,21.219C39.778,67.972,41.216,72.498,44.893,74.403z"/>
	</g>
</g>
<g>
</g>
<g>
</g>
<g>
</g>
<g>
</g>
<g>
</g>
<g>
</g>
<g>
</g>
<g>
</g>
<g>
</g>
<g>
</g>
<g>
</g>
<g>
</g>
<g>
</g>
<g>
</g>
<g>
</g>
</svg>
