<?xml version="1.0" encoding="iso-8859-1"?>
<!-- Generator: Adobe Illustrator 19.0.0, SVG Export Plug-In . SVG Version: 6.00 Build 0)  -->
<svg version="1.1" id="Capa_1" xmlns="http://www.w3.org/2000/svg" xmlns:xlink="http://www.w3.org/1999/xlink" x="0px" y="0px"
	 viewBox="0 0 511 511" style="enable-background:new 0 0 511 511;" xml:space="preserve">
<g>
	<g>
		<g>
			<g>
				<rect x="71.5" y="55.5" style="fill:#49DFE5;" width="432" height="272"/>
			</g>
			<g>
				<rect x="71.5" y="87.5" style="fill:#76E7EB;" width="432" height="272"/>
			</g>
			<g>
				<rect x="71.5" y="119.5" style="fill:#A4EFF2;" width="432" height="272"/>
				<path style="fill:#49DFE5;" d="M471.5,319.5v-128c-22.091,0-40-17.909-40-40h-288c0,22.091-17.909,40-40,40v128
					c22.091,0,40,17.909,40,40h288C431.5,337.409,449.409,319.5,471.5,319.5z"/>
				<g>
					<path style="fill:#76E7EB;" d="M463.5,190.698V167.5c0-4.418-3.582-8-8-8h-23.198
						C435.483,175.173,447.827,187.517,463.5,190.698z"/>
					<path style="fill:#76E7EB;" d="M431.5,359.5h-288c0-22.091-17.909-40-40-40v-128c19.351,0,35.492-13.742,39.198-32H71.5v232
						h392v-71.198C445.242,324.008,431.5,340.148,431.5,359.5z"/>
					<path style="fill:#49DFE5;" d="M431.5,151.5h-288c0,2.74-0.277,5.415-0.802,8h289.604
						C431.777,156.915,431.5,154.24,431.5,151.5z"/>
					<path style="fill:#49DFE5;" d="M471.5,191.5c-2.74,0-5.415-0.277-8-0.802v129.604c2.585-0.525,5.26-0.802,8-0.802V191.5z"/>
					<path style="fill:#1BD7DE;" d="M432.302,159.5H142.698c-3.706,18.258-19.847,32-39.198,32v128c22.091,0,40,17.909,40,40h288
						c0-19.352,13.742-35.492,32-39.198V190.698C447.827,187.517,435.483,175.173,432.302,159.5z"/>
				</g>
			</g>
		</g>
		<g>
			<rect x="7.5" y="183.5" style="fill:#A4EFF2;" width="432" height="272"/>
			<rect x="7.5" y="183.5" style="fill:#A4EFF2;" width="432" height="272"/>
			<path style="fill:#1BD7DE;" d="M31.5,415.5v-232h-24v272h432v-24h-392C38.663,431.5,31.5,424.337,31.5,415.5z"/>
			<path style="fill:#49DFE5;" d="M407.5,383.5v-128c-22.091,0-40-17.909-40-40h-288c0,22.091-17.909,40-40,40v128
				c22.091,0,40,17.909,40,40h288C367.5,401.409,385.409,383.5,407.5,383.5z"/>
		</g>
	</g>
	<g>
		<path d="M503.5,48h-432c-4.142,0-7.5,3.358-7.5,7.5V176H7.5c-4.142,0-7.5,3.358-7.5,7.5v272c0,4.142,3.358,7.5,7.5,7.5h432
			c4.143,0,7.5-3.358,7.5-7.5V399h56.5c4.143,0,7.5-3.358,7.5-7.5v-336C511,51.358,507.643,48,503.5,48z M79,95h417v17H79V95z
			 M496,63v17H79V63H496z M432,448H15V191h301.5c4.143,0,7.5-3.358,7.5-7.5s-3.357-7.5-7.5-7.5H144.177
			c3.13-5.203,5.255-10.977,6.223-17h274.191c0.977,6.136,3.14,11.88,6.235,17h-79.66c-4.143,0-7.5,3.358-7.5,7.5s3.357,7.5,7.5,7.5
			H432V448z M447,192.173c5.12,3.096,10.864,5.258,17,6.236v114.182c-6.048,0.96-11.807,3.084-17,6.216V192.173z M496,384h-49
			v-45.836c6.187-7.1,15.063-11.164,24.5-11.164c4.143,0,7.5-3.358,7.5-7.5v-128c0-4.142-3.357-7.5-7.5-7.5
			c-17.921,0-32.5-14.58-32.5-32.5c0-4.142-3.357-7.5-7.5-7.5h-288c-4.142,0-7.5,3.358-7.5,7.5c0,9.117-3.866,17.871-10.606,24.019
			c-0.169,0.154-0.326,0.316-0.477,0.481H79v-49h417v200.5V384z"/>
		<circle cx="471.5" cy="151.5" r="7.5"/>
		<circle cx="471.5" cy="359.5" r="7.5"/>
		<circle cx="103.5" cy="151.5" r="7.5"/>
		<path d="M72,215.5c0,17.92-14.58,32.5-32.5,32.5c-4.142,0-7.5,3.358-7.5,7.5v128c0,4.142,3.358,7.5,7.5,7.5
			c17.92,0,32.5,14.58,32.5,32.5c0,4.142,3.358,7.5,7.5,7.5h288c4.143,0,7.5-3.358,7.5-7.5c0-17.92,14.579-32.5,32.5-32.5
			c4.143,0,7.5-3.358,7.5-7.5v-128c0-4.142-3.357-7.5-7.5-7.5c-17.921,0-32.5-14.58-32.5-32.5c0-4.142-3.357-7.5-7.5-7.5h-288
			C75.358,208,72,211.358,72,215.5z M360.592,223c3.217,20.197,19.211,36.191,39.408,39.409v114.183
			c-20.197,3.217-36.191,19.211-39.408,39.409H86.409C83.191,395.803,67.197,379.809,47,376.591V262.409
			c20.197-3.217,36.191-19.211,39.409-39.409H360.592z"/>
		<path d="M227.5,368h-12c-9.098,0-16.5-7.402-16.5-16.5c0-4.142-3.358-7.5-7.5-7.5s-7.5,3.358-7.5,7.5
			c0,17.369,14.131,31.5,31.5,31.5h0.5v8.5c0,4.142,3.358,7.5,7.5,7.5s7.5-3.358,7.5-7.5v-8.674c17.938-1.764,32-16.932,32-35.326
			c0-19.575-15.925-35.5-35.5-35.5h-8c-11.304,0-20.5-9.196-20.5-20.5s9.196-20.5,20.5-20.5h12c9.098,0,16.5,7.402,16.5,16.5v8
			c0,4.142,3.358,7.5,7.5,7.5c4.143,0,7.5-3.358,7.5-7.5v-8c0-17.369-14.131-31.5-31.5-31.5H231v-8.5c0-4.142-3.358-7.5-7.5-7.5
			s-7.5,3.358-7.5,7.5v8.674c-17.938,1.764-32,16.932-32,35.326c0,19.575,15.925,35.5,35.5,35.5h8c11.304,0,20.5,9.196,20.5,20.5
			S238.804,368,227.5,368z"/>
		<circle cx="407.5" cy="215.5" r="7.5"/>
		<circle cx="407.5" cy="423.5" r="7.5"/>
		<circle cx="39.5" cy="215.5" r="7.5"/>
		<circle cx="39.5" cy="423.5" r="7.5"/>
	</g>
</g>
<g>
</g>
<g>
</g>
<g>
</g>
<g>
</g>
<g>
</g>
<g>
</g>
<g>
</g>
<g>
</g>
<g>
</g>
<g>
</g>
<g>
</g>
<g>
</g>
<g>
</g>
<g>
</g>
<g>
</g>
</svg>
