<?xml version="1.0" encoding="iso-8859-1"?>
<!-- Generator: Adobe Illustrator 19.0.0, SVG Export Plug-In . SVG Version: 6.00 Build 0)  -->
<svg version="1.1" id="Capa_1" xmlns="http://www.w3.org/2000/svg" xmlns:xlink="http://www.w3.org/1999/xlink" x="0px" y="0px"
	 viewBox="0 0 510.988 510.988" style="enable-background:new 0 0 510.988 510.988;" xml:space="preserve">
<g>
	<g>
		<polygon style="fill:#FD8E61;" points="351.488,447.494 255.488,327.494 159.488,447.494 		"/>
		<path style="fill:#FD7239;" d="M220.284,405.499l48.804-61.005l-13.6-17l-96,120h192l-12.8-16h-105.91
			C219.362,431.494,211.903,415.975,220.284,405.499z"/>
		<g>
			<circle style="fill:#FDE6A6;" cx="97.488" cy="149.494" r="86"/>
			<circle style="fill:#FCD56A;" cx="97.488" cy="149.494" r="66"/>
		</g>
		<g>
			<circle style="fill:#76E7EB;" cx="415.488" cy="271.494" r="88"/>
			<path style="fill:#49DFE5;" d="M439.488,351.494c-48.601,0-88-39.399-88-88c0-34.379,19.717-64.15,48.458-78.631
				c-41.188,7.34-72.458,43.334-72.458,86.631c0,48.601,39.399,88,88,88c14.222,0,27.653-3.378,39.542-9.369
				C449.984,351.024,444.791,351.494,439.488,351.494z"/>
			<circle style="fill:#EAECEE;" cx="415.488" cy="271.494" r="56"/>
			<circle style="fill:#FFFFFF;" cx="415.488" cy="271.494" r="40"/>
			<rect x="399.488" y="151.494" style="fill:#49DFE5;" width="32" height="32"/>
		</g>
	</g>
	<g>
		<path d="M506.183,416.495l-496-191c-3.815-1.469-8.225,0.488-9.694,4.304c-1.468,3.814,0.49,8.226,4.304,9.694l238.132,91.7
			l-89.293,111.616c-3.856,4.821-0.297,12.185,5.856,12.185h192c6.153,0,9.713-7.364,5.856-12.185l-78.106-97.632l221.554,85.316
			c4.019,1.547,8.631-0.717,9.876-4.833C511.79,421.951,509.796,417.886,506.183,416.495z M175.092,439.994L255.488,339.5
			l80.395,100.494H175.092z"/>
		<path d="M97.488,242.994c51.556,0,93.5-41.944,93.5-93.5c0-21.578-7.526-42.631-21.193-59.282
			c-2.628-3.202-7.354-3.666-10.555-1.039c-3.202,2.628-3.667,7.354-1.039,10.556c11.47,13.975,17.787,31.649,17.787,49.765
			c0,43.285-35.215,78.5-78.5,78.5s-78.5-35.215-78.5-78.5s35.215-78.5,78.5-78.5c12.014,0,23.539,2.64,34.257,7.847
			c3.726,1.809,8.214,0.257,10.023-3.469s0.257-8.213-3.469-10.023c-12.777-6.208-26.508-9.355-40.812-9.355
			c-51.556,0-93.5,41.944-93.5,93.5S45.932,242.994,97.488,242.994z"/>
		<path d="M118.287,141.394c4.143,0,7.5-3.358,7.5-7.5v-5.2c0-11.961-9.138-21.827-20.8-22.985v-8.215c0-4.142-3.357-7.5-7.5-7.5
			s-7.5,3.358-7.5,7.5v8.574c-11.834,2.295-20.8,12.73-20.8,25.225c0,14.171,11.529,25.7,25.7,25.7h5.199c5.9,0,10.7,4.8,10.7,10.7
			s-4.8,10.7-10.7,10.7h-7.8c-4.466,0-8.1-3.634-8.1-8.1c0-4.142-3.357-7.5-7.5-7.5s-7.5,3.358-7.5,7.5
			c0,11.961,9.138,21.827,20.8,22.985v8.215c0,4.142,3.357,7.5,7.5,7.5s7.5-3.358,7.5-7.5v-8.574
			c11.834-2.295,20.8-12.73,20.8-25.225c0-14.171-11.529-25.7-25.7-25.7h-5.199c-5.9,0-10.7-4.8-10.7-10.7c0-5.9,4.8-10.7,10.7-10.7
			h7.8c4.466,0,8.1,3.634,8.1,8.1v5.2C110.787,138.036,114.145,141.394,118.287,141.394z"/>
		<path d="M415.488,366.994c52.659,0,95.5-42.841,95.5-95.5c0-44.552-30.667-82.073-72-92.571v-11.429h7.5
			c4.143,0,7.5-3.358,7.5-7.5s-3.357-7.5-7.5-7.5h-7.5v-1c0-4.142-3.357-7.5-7.5-7.5h-32c-4.143,0-7.5,3.358-7.5,7.5v1h-7
			c-4.143,0-7.5,3.358-7.5,7.5s3.357,7.5,7.5,7.5h7v11.429c-41.333,10.498-72,48.019-72,92.571
			C319.988,324.153,362.828,366.994,415.488,366.994z M406.988,175.994v-17h17v17H406.988z M415.488,190.994
			c44.388,0,80.5,36.112,80.5,80.5s-36.112,80.5-80.5,80.5s-80.5-36.112-80.5-80.5S371.1,190.994,415.488,190.994z"/>
		<path d="M415.488,334.994c35.014,0,63.5-28.486,63.5-63.5s-28.486-63.5-63.5-63.5s-63.5,28.486-63.5,63.5
			S380.474,334.994,415.488,334.994z M415.488,222.994c26.743,0,48.5,21.757,48.5,48.5s-21.757,48.5-48.5,48.5
			s-48.5-21.757-48.5-48.5S388.745,222.994,415.488,222.994z"/>
		<path d="M410.184,284.797c2.497,2.497,6.523,2.898,9.464,0.937l24-16c3.446-2.297,4.378-6.954,2.08-10.4
			c-2.297-3.447-6.954-4.378-10.4-2.08l-18.884,12.589l-19.652-19.652c-2.93-2.929-7.678-2.929-10.607,0
			c-2.929,2.929-2.929,7.678,0,10.606L410.184,284.797z"/>
	</g>
</g>
<g>
</g>
<g>
</g>
<g>
</g>
<g>
</g>
<g>
</g>
<g>
</g>
<g>
</g>
<g>
</g>
<g>
</g>
<g>
</g>
<g>
</g>
<g>
</g>
<g>
</g>
<g>
</g>
<g>
</g>
</svg>
