<?xml version="1.0" encoding="iso-8859-1"?>
<!-- Generator: Adobe Illustrator 19.0.0, SVG Export Plug-In . SVG Version: 6.00 Build 0)  -->
<svg version="1.1" id="Capa_1" xmlns="http://www.w3.org/2000/svg" xmlns:xlink="http://www.w3.org/1999/xlink" x="0px" y="0px"
	 viewBox="0 0 511 511" style="enable-background:new 0 0 511 511;" xml:space="preserve">
<g>
	<g>
		<g>
			<rect x="7.5" y="55.5" style="fill:#EAECEE;" width="496" height="448"/>
			<path style="fill:#D5D9DE;" d="M31.5,463.5v-408h-24v448h496v-24h-456C38.663,479.5,31.5,472.337,31.5,463.5z"/>
			<rect x="7.5" y="55.5" style="fill:#FD8E61;" width="496" height="80"/>
			<rect x="7.5" y="55.5" style="fill:#FD7239;" width="24" height="80"/>
			<path style="fill:#6B7B8B;" d="M255.5,95.5L255.5,95.5c-8.837,0-16-7.163-16-16v-56c0-8.837,7.163-16,16-16h0
				c8.837,0,16,7.163,16,16v56C271.5,88.337,264.337,95.5,255.5,95.5z"/>
			<path style="fill:#6B7B8B;" d="M383.5,95.5L383.5,95.5c-8.837,0-16-7.163-16-16v-56c0-8.837,7.163-16,16-16h0
				c8.837,0,16,7.163,16,16v56C399.5,88.337,392.337,95.5,383.5,95.5z"/>
			<path style="fill:#6B7B8B;" d="M127.5,95.5L127.5,95.5c-8.837,0-16-7.163-16-16v-56c0-8.837,7.163-16,16-16h0
				c8.837,0,16,7.163,16,16v56C143.5,88.337,136.337,95.5,127.5,95.5z"/>
		</g>
		<g>
			<circle style="fill:#FDE6A6;" cx="255.5" cy="317.5" r="86"/>
			<circle style="fill:#FCD56A;" cx="255.5" cy="317.5" r="66"/>
		</g>
	</g>
	<g>
		<path d="M503.5,48H407V23.5C407,10.542,396.458,0,383.5,0S360,10.542,360,23.5V48h-81V23.5C279,10.542,268.458,0,255.5,0
			S232,10.542,232,23.5V48h-81V23.5C151,10.542,140.458,0,127.5,0S104,10.542,104,23.5V48H7.5C3.357,48,0,51.358,0,55.5v448
			c0,4.142,3.357,7.5,7.5,7.5h496c4.143,0,7.5-3.358,7.5-7.5v-448C511,51.358,507.643,48,503.5,48z M375,23.5
			c0-4.687,3.813-8.5,8.5-8.5s8.5,3.813,8.5,8.5v56c0,4.687-3.813,8.5-8.5,8.5s-8.5-3.813-8.5-8.5V23.5z M247,23.5
			c0-4.687,3.813-8.5,8.5-8.5s8.5,3.813,8.5,8.5v56c0,4.687-3.813,8.5-8.5,8.5s-8.5-3.813-8.5-8.5V23.5z M119,23.5
			c0-4.687,3.813-8.5,8.5-8.5s8.5,3.813,8.5,8.5v56c0,4.687-3.813,8.5-8.5,8.5s-8.5-3.813-8.5-8.5V23.5z M15,496V143h396.833
			c4.143,0,7.5-3.358,7.5-7.5s-3.357-7.5-7.5-7.5H15V63h89v16.5c0,12.958,10.542,23.5,23.5,23.5S151,92.458,151,79.5V63h81v16.5
			c0,12.958,10.542,23.5,23.5,23.5S279,92.458,279,79.5V63h81v16.5c0,12.958,10.542,23.5,23.5,23.5S407,92.458,407,79.5V63h89v65
			h-49.5c-4.143,0-7.5,3.358-7.5,7.5s3.357,7.5,7.5,7.5H496v353H15z"/>
		<path d="M447.5,199c4.143,0,7.5-3.358,7.5-7.5s-3.357-7.5-7.5-7.5H391v-16.5c0-4.142-3.357-7.5-7.5-7.5s-7.5,3.358-7.5,7.5V184
			H263v-16.5c0-4.142-3.357-7.5-7.5-7.5s-7.5,3.358-7.5,7.5V184H135v-16.5c0-4.142-3.357-7.5-7.5-7.5s-7.5,3.358-7.5,7.5V184H63.5
			c-4.143,0-7.5,3.358-7.5,7.5s3.357,7.5,7.5,7.5H120v113H63.5c-4.143,0-7.5,3.358-7.5,7.5s3.357,7.5,7.5,7.5H120v113H63.5
			c-4.143,0-7.5,3.358-7.5,7.5s3.357,7.5,7.5,7.5H120v16.5c0,4.142,3.357,7.5,7.5,7.5s7.5-3.358,7.5-7.5V455h113v16.5
			c0,4.142,3.357,7.5,7.5,7.5s7.5-3.358,7.5-7.5V455h113v16.5c0,4.142,3.357,7.5,7.5,7.5s7.5-3.358,7.5-7.5V455h56.5
			c4.143,0,7.5-3.358,7.5-7.5s-3.357-7.5-7.5-7.5H391V327h56.5c4.143,0,7.5-3.358,7.5-7.5s-3.357-7.5-7.5-7.5H391V199H447.5z
			 M376,312h-7.666c-4.143,0-7.5,3.358-7.5,7.5s3.357,7.5,7.5,7.5H376v113H263v-7.5c0-4.142-3.357-7.5-7.5-7.5s-7.5,3.358-7.5,7.5
			v7.5H135V327h7.666c4.143,0,7.5-3.358,7.5-7.5s-3.357-7.5-7.5-7.5H135V199h113v8.167c0,4.142,3.357,7.5,7.5,7.5s7.5-3.358,7.5-7.5
			V199h113V312z"/>
		<path d="M255.5,224c-51.556,0-93.5,41.944-93.5,93.5s41.944,93.5,93.5,93.5s93.5-41.944,93.5-93.5S307.056,224,255.5,224z
			 M255.5,396c-43.285,0-78.5-35.215-78.5-78.5s35.215-78.5,78.5-78.5s78.5,35.215,78.5,78.5S298.785,396,255.5,396z"/>
		<path d="M263,273.715V265.5c0-4.142-3.357-7.5-7.5-7.5s-7.5,3.358-7.5,7.5v8.574c-11.834,2.295-20.8,12.73-20.8,25.225
			c0,14.171,11.529,25.7,25.7,25.7h5.199c5.9,0,10.7,4.8,10.7,10.7s-4.8,10.7-10.7,10.7h-7.8c-4.466,0-8.1-3.634-8.1-8.1
			c0-4.142-3.357-7.5-7.5-7.5s-7.5,3.358-7.5,7.5c0,11.961,9.138,21.827,20.8,22.985v8.215c0,4.142,3.357,7.5,7.5,7.5
			s7.5-3.358,7.5-7.5v-8.574c11.834-2.295,20.8-12.73,20.8-25.225c0-14.171-11.529-25.7-25.7-25.7H252.9c-5.9,0-10.7-4.8-10.7-10.7
			s4.8-10.7,10.7-10.7h7.8c4.466,0,8.1,3.634,8.1,8.1v5.2c0,4.142,3.357,7.5,7.5,7.5s7.5-3.358,7.5-7.5v-5.2
			C283.8,284.739,274.662,274.873,263,273.715z"/>
	</g>
</g>
<g>
</g>
<g>
</g>
<g>
</g>
<g>
</g>
<g>
</g>
<g>
</g>
<g>
</g>
<g>
</g>
<g>
</g>
<g>
</g>
<g>
</g>
<g>
</g>
<g>
</g>
<g>
</g>
<g>
</g>
</svg>
