<?xml version="1.0" encoding="iso-8859-1"?>
<!-- Generator: Adobe Illustrator 19.0.0, SVG Export Plug-In . SVG Version: 6.00 Build 0)  -->
<svg version="1.1" id="Capa_1" xmlns="http://www.w3.org/2000/svg" xmlns:xlink="http://www.w3.org/1999/xlink" x="0px" y="0px"
	 viewBox="0 0 511 511" style="enable-background:new 0 0 511 511;" xml:space="preserve">
<g>
	<g>
		<g>
			<polygon style="fill:#FEAA88;" points="439.5,103.5 296.5,103.5 296.5,39.5 439.5,39.5 407.5,71.5 			"/>
			<polygon style="fill:#FD8E61;" points="295.5,103.5 295.5,39.5 367.5,39.5 367.5,71.5 			"/>
			<rect x="255.5" y="7.5" style="fill:#FEAA88;" width="112" height="64"/>
		</g>
		<g>
			<g>
				<polygon style="fill:#76E7EB;" points="423.5,287.5 311.5,503.5 503.5,503.5 503.5,442.428 				"/>
			</g>
			<polygon style="fill:#EAECEE;" points="423.5,375.5 453.467,345.533 423.5,287.5 393.451,345.451 			"/>
		</g>
		<g>
			<g>
				<polygon style="fill:#76E7EB;" points="103.5,239.5 7.5,441.143 7.5,503.5 231.5,503.5 				"/>
			</g>
			<polygon style="fill:#EAECEE;" points="134.847,304.153 103.5,239.5 72.537,304.537 103.5,335.5 			"/>
		</g>
		<g>
			<polygon style="fill:#1BD7DE;" points="255.5,167.5 415.5,503.5 95.5,503.5 			"/>
			<polygon style="fill:#EAECEE;" points="191.5,359.5 223.5,327.5 255.5,359.5 287.5,327.5 319.5,359.5 338.081,340.919 
				255.5,167.5 172.919,340.919 			"/>
		</g>
	</g>
	<g>
		<path d="M503.5,496h-83.264l-46.152-96.919c0.024-0.044,0.052-0.083,0.075-0.128L395.393,358l22.804,22.804
			c2.889,2.89,7.717,2.889,10.606,0l22.709-22.708l45.324,87.775c2.001,3.874,7.031,5.219,10.71,2.874
			c3.223-2.055,4.37-6.363,2.619-9.755l-80-154.929c-2.74-5.306-10.573-5.312-13.322-0.011l-50.843,98.055L263,165.805V79h25v24.5
			c0,2.097,0.905,4.142,2.458,5.552c1.725,1.566,3.793,1.948,6.042,1.948h143c6.537,0,9.932-8.175,5.303-12.803L418.106,71.5
			l26.697-26.697C449.431,40.175,446.038,32,439.5,32H375V7.5c0-4.142-3.358-7.5-7.5-7.5h-112c-4.142,0-7.5,3.358-7.5,7.5v158.305
			L162.826,344.67l-52.578-108.442c-2.691-5.551-10.873-5.513-13.52,0.048l-96,201.643c-1.664,3.496-0.315,7.818,3.051,9.736
			c3.741,2.132,8.643,0.597,10.492-3.288L74.743,317.35l23.454,23.454c2.889,2.889,7.717,2.889,10.606,0l23.894-23.894l21.87,45.106
			L90.764,496H7.5c-4.142,0-7.5,3.358-7.5,7.5s3.358,7.5,7.5,7.5H316c4.142,0,7.5-3.358,7.5-7.5s-3.358-7.5-7.5-7.5H107.378
			l67.747-142.268l11.072,11.072c2.929,2.929,7.678,2.929,10.606,0l26.697-26.697l26.697,26.697c2.929,2.929,7.678,2.929,10.606,0
			l26.697-26.697l26.697,26.697c2.889,2.889,7.717,2.889,10.606,0l11.072-11.072L403.622,496H352.5c-4.142,0-7.5,3.358-7.5,7.5
			s3.358,7.5,7.5,7.5h151c4.142,0,7.5-3.358,7.5-7.5S507.642,496,503.5,496z M444.289,344.105L423.5,364.894l-20.863-20.864
			l20.85-40.21L444.289,344.105z M125.77,302.624l-22.27,22.27l-21.915-21.915l21.976-46.16L125.77,302.624z M332.159,79L303,91.959
			V79H332.159z M421.394,47l-19.197,19.197c-2.929,2.929-2.929,7.678,0,10.606L421.394,96h-90.552l39.568-17.586
			c2.797-1.169,4.64-4.037,4.591-7.06V47H421.394z M263,15h97v49h-97V15z M319.5,348.894l-26.697-26.697
			c-2.929-2.929-7.678-2.929-10.606,0L255.5,348.894l-26.697-26.697c-2.889-2.889-7.717-2.889-10.606,0L191.5,348.894l-9.532-9.532
			L255.5,184.945l73.532,154.417L319.5,348.894z"/>
		<path d="M174.9,112.4h-7.8c-4.466,0-8.1-3.634-8.1-8.1c0-4.142-3.358-7.5-7.5-7.5s-7.5,3.358-7.5,7.5
			c0,11.961,9.139,21.827,20.8,22.985v8.215c0,4.142,3.358,7.5,7.5,7.5s7.5-3.358,7.5-7.5v-8.574
			c11.835-2.295,20.8-12.73,20.8-25.226c0-14.171-11.529-25.7-25.7-25.7h-5.2c-5.9,0-10.7-4.8-10.7-10.7s4.8-10.7,10.7-10.7h7.8
			c4.466,0,8.1,3.634,8.1,8.1v5.2c0,4.142,3.358,7.5,7.5,7.5s7.5-3.358,7.5-7.5v-5.2c0-11.961-9.139-21.827-20.8-22.985V31.5
			c0-4.142-3.358-7.5-7.5-7.5s-7.5,3.358-7.5,7.5v8.574C152.965,42.369,144,52.805,144,65.3c0,14.171,11.529,25.7,25.7,25.7h5.2
			c5.9,0,10.7,4.8,10.7,10.7S180.8,112.4,174.9,112.4z"/>
		<path d="M45.3,216.4h-7.8c-4.466,0-8.1-3.634-8.1-8.1c0-4.142-3.358-7.5-7.5-7.5s-7.5,3.358-7.5,7.5
			c0,11.961,9.139,21.827,20.8,22.985v8.215c0,4.142,3.358,7.5,7.5,7.5s7.5-3.358,7.5-7.5v-8.574
			C62.035,228.631,71,218.195,71,205.7c0-14.171-11.529-25.7-25.7-25.7h-5.2c-5.9,0-10.7-4.8-10.7-10.7s4.8-10.7,10.7-10.7h7.8
			c4.466,0,8.1,3.634,8.1,8.1v5.2c0,4.142,3.358,7.5,7.5,7.5s7.5-3.358,7.5-7.5v-5.2c0-11.961-9.139-21.827-20.8-22.985V135.5
			c0-4.142-3.358-7.5-7.5-7.5s-7.5,3.358-7.5,7.5v8.574c-11.835,2.295-20.8,12.73-20.8,25.226c0,14.171,11.529,25.7,25.7,25.7h5.2
			c5.9,0,10.7,4.8,10.7,10.7S51.2,216.4,45.3,216.4z"/>
		<path d="M401.1,211.4c4.142,0,7.5-3.358,7.5-7.5v-5.2c0-11.961-9.139-21.827-20.8-22.985V167.5c0-4.142-3.358-7.5-7.5-7.5
			s-7.5,3.358-7.5,7.5v8.574c-11.834,2.295-20.8,12.73-20.8,25.225c0,14.171,11.529,25.7,25.7,25.7h5.2c5.9,0,10.7,4.8,10.7,10.7
			s-4.8,10.7-10.7,10.7h-7.8c-4.466,0-8.1-3.634-8.1-8.1c0-4.142-3.358-7.5-7.5-7.5s-7.5,3.358-7.5,7.5
			c0,11.961,9.139,21.827,20.8,22.985v8.215c0,4.142,3.358,7.5,7.5,7.5s7.5-3.358,7.5-7.5v-8.574
			c11.835-2.295,20.8-12.73,20.8-25.226c0-14.171-11.529-25.7-25.7-25.7h-5.2c-5.9,0-10.7-4.8-10.7-10.7s4.8-10.7,10.7-10.7h7.8
			c4.466,0,8.1,3.634,8.1,8.1v5.2C393.6,208.042,396.958,211.4,401.1,211.4z"/>
	</g>
</g>
<g>
</g>
<g>
</g>
<g>
</g>
<g>
</g>
<g>
</g>
<g>
</g>
<g>
</g>
<g>
</g>
<g>
</g>
<g>
</g>
<g>
</g>
<g>
</g>
<g>
</g>
<g>
</g>
<g>
</g>
</svg>
