<?xml version="1.0" encoding="iso-8859-1"?>
<!-- Generator: Adobe Illustrator 19.0.0, SVG Export Plug-In . SVG Version: 6.00 Build 0)  -->
<svg version="1.1" id="Capa_1" xmlns="http://www.w3.org/2000/svg" xmlns:xlink="http://www.w3.org/1999/xlink" x="0px" y="0px"
	 viewBox="0 0 511 511" style="enable-background:new 0 0 511 511;" xml:space="preserve">
<g>
	<g>
		<path style="fill:#EAECEE;" d="M219.039,47.5l32-40h16v40h24l88,88l-16,40l-112-24c0,0,112,80,112,168h-216
			C147.039,319.5,83.039,79.5,219.039,47.5z"/>
		<g>
			<path style="fill:#D5D9DE;" d="M251.039,151.5c0,0,75,80,75,168h37C363.039,231.5,251.039,151.5,251.039,151.5z"/>
		</g>
		<g>
			<path style="fill:#D5D9DE;" d="M192.357,57.666C92.049,113.268,147.039,319.5,147.039,319.5h40
				C187.039,319.5,139.714,143.05,192.357,57.666z"/>
		</g>
		<polygon style="fill:#D5D9DE;" points="323.039,359.5 195.039,359.5 147.039,319.5 363.039,319.5 		"/>
		<polygon style="fill:#BFC7CD;" points="147.039,319.5 195.039,359.5 235.039,359.5 187.039,319.5 		"/>
		<rect x="195.039" y="359.5" style="fill:#EAECEE;" width="128" height="32"/>
		<rect x="195.039" y="359.5" style="fill:#D5D9DE;" width="32" height="32"/>
		<path style="fill:#808E9B;" d="M379.039,455.5h-240c9.04-4.097,56-40,56-64c42.667,0,85.333,0,128,0
			C323.039,423.5,369.998,451.403,379.039,455.5z"/>
		<path style="fill:#6B7B8B;" d="M227.039,391.5c-10.667,0-21.333,0-32,0c0,24-46.96,59.903-56,64h40
			C188.079,451.403,227.039,415.5,227.039,391.5z"/>
		<rect x="139.039" y="455.5" style="fill:#6B7B8B;" width="240" height="48"/>
		<rect x="139.039" y="455.5" style="fill:#55697A;" width="40" height="48"/>
	</g>
	<g>
		<path d="M386.532,455.372c-0.048-2.858-1.79-5.525-4.398-6.704c-11.378-5.156-51.596-31.472-51.596-57.168v-28.894l37.802-37.802
			c1.392-1.391,2.199-3.341,2.198-5.308c-0.001-38.409-19.493-79.463-57.934-122.023c-11.513-12.746-22.959-23.621-32.555-32.086
			l81.418,17.447c3.574,0.766,7.178-1.155,8.535-4.548l16-40c1.114-2.786,0.461-5.967-1.66-8.089l-88-88
			C294.936,40.79,293.028,40,291.039,40h-16.5V7.5c0-4.142-3.358-7.5-7.5-7.5h-16c-2.278,0-4.433,1.036-5.856,2.815l-30.41,38.013
			c-28.358,7.311-50.423,23.861-65.609,49.22c-20.539,34.299-28.327,83.77-23.149,147.039c3.815,46.609,13.374,82.827,13.779,84.346
			c0.393,1.481,1.269,2.848,2.445,3.829l45.301,37.751V391.5c0,7.888-8.14,20.31-22.333,34.081
			c-13.35,12.953-26.342,21.764-29.263,23.087c-2.646,1.195-4.404,3.93-4.404,6.832v48c0,4.142,3.358,7.5,7.5,7.5h240
			c4.142,0,7.5-3.358,7.5-7.5v-48C386.539,455.457,386.533,455.415,386.532,455.372z M202.539,367h113v17h-113V367z M162.044,97.735
			c13.475-22.493,33.229-36.938,58.713-42.935c1.633-0.384,3.091-1.305,4.139-2.616L254.643,15h4.895v32.5
			c0,4.142,3.358,7.5,7.5,7.5h20.894l82.306,82.306l-11.814,29.535L252.61,144.167c-3.434-0.736-7.014,1.093-8.433,4.305
			c-1.418,3.213-0.355,7.09,2.502,9.131c1.056,0.754,102.458,74.096,108.572,154.397h-39.88c-4.142,0-7.5,3.358-7.5,7.5
			s3.358,7.5,7.5,7.5h29.561l-25,25H197.754l-30-25h111.952c4.142,0,7.5-3.358,7.5-7.5s-3.358-7.5-7.5-7.5H152.924
			C146.561,284.821,121.791,164.924,162.044,97.735z M175.652,436.346c14.397-13.969,23.067-26.492,25.878-37.346h114.709
			c3.674,19.855,21.173,37.316,36.702,49H162.592C166.934,444.419,171.431,440.441,175.652,436.346z M371.539,496h-225v-33h225V496z
			"/>
		<circle cx="275.039" cy="87.5" r="8"/>
	</g>
</g>
<g>
</g>
<g>
</g>
<g>
</g>
<g>
</g>
<g>
</g>
<g>
</g>
<g>
</g>
<g>
</g>
<g>
</g>
<g>
</g>
<g>
</g>
<g>
</g>
<g>
</g>
<g>
</g>
<g>
</g>
</svg>
