<?xml version="1.0" encoding="iso-8859-1"?>
<!-- Generator: Adobe Illustrator 19.0.0, SVG Export Plug-In . SVG Version: 6.00 Build 0)  -->
<svg version="1.1" id="Capa_1" xmlns="http://www.w3.org/2000/svg" xmlns:xlink="http://www.w3.org/1999/xlink" x="0px" y="0px"
	 viewBox="0 0 511 511" style="enable-background:new 0 0 511 511;" xml:space="preserve">
<g>
	<g>
		<rect x="7.5" y="107.5" style="fill:#FD8E61;" width="496" height="376"/>
		<path style="fill:#FD7239;" d="M363.833,299H71.5c-35.346,0-64-28.654-64-64v-96h496v96c0,35.346-28.654,64-64,64h-39.667"/>
		<path style="fill:#BFC7CD;" d="M271.5,315.5h-32c-8.837,0-16-7.163-16-16v-32h64v32C287.5,308.337,280.337,315.5,271.5,315.5z"/>
		<path style="fill:#AAB4BD;" d="M239.5,283.5v-16h-16v32c0,8.837,7.163,16,16,16h32c8.837,0,16-7.163,16-16h-32
			C246.663,299.5,239.5,292.337,239.5,283.5z"/>
		<path style="fill:#FD8E61;" d="M363.833,267.5H71.5c-35.346,0-64-28.654-64-64v-96h496v96c0,35.346-28.654,64-64,64h-39.667"/>
	</g>
	<g>
		<path d="M471.5,284c-4.143,0-7.5,3.358-7.5,7.5v4c0,4.142,3.357,7.5,7.5,7.5s7.5-3.358,7.5-7.5v-4
			C479,287.358,475.643,284,471.5,284z"/>
		<path d="M471.5,360c-4.143,0-7.5,3.358-7.5,7.5v8c0,4.142,3.357,7.5,7.5,7.5s7.5-3.358,7.5-7.5v-8
			C479,363.358,475.643,360,471.5,360z"/>
		<path d="M471.5,400c-4.143,0-7.5,3.358-7.5,7.5v8c0,4.142,3.357,7.5,7.5,7.5s7.5-3.358,7.5-7.5v-8
			C479,403.358,475.643,400,471.5,400z"/>
		<path d="M471.5,320c-4.143,0-7.5,3.358-7.5,7.5v8c0,4.142,3.357,7.5,7.5,7.5s7.5-3.358,7.5-7.5v-8
			C479,323.358,475.643,320,471.5,320z"/>
		<path d="M471.5,440c-3.108,0-5.776,1.892-6.913,4.587c-2.695,1.137-4.587,3.804-4.587,6.913c0,4.142,3.357,7.5,7.5,7.5h4
			c4.143,0,7.5-3.358,7.5-7.5v-4C479,443.358,475.643,440,471.5,440z"/>
		<path d="M82.759,444h-7.852c-4.142,0-7.5,3.358-7.5,7.5s3.358,7.5,7.5,7.5h7.852c4.142,0,7.5-3.358,7.5-7.5S86.901,444,82.759,444
			z"/>
		<path d="M239.796,444h-7.852c-4.142,0-7.5,3.358-7.5,7.5s3.358,7.5,7.5,7.5h7.852c4.142,0,7.5-3.358,7.5-7.5
			S243.938,444,239.796,444z"/>
		<path d="M200.537,444h-7.852c-4.142,0-7.5,3.358-7.5,7.5s3.358,7.5,7.5,7.5h7.852c4.142,0,7.5-3.358,7.5-7.5
			S204.679,444,200.537,444z"/>
		<path d="M122.019,444h-7.852c-4.142,0-7.5,3.358-7.5,7.5s3.358,7.5,7.5,7.5h7.852c4.142,0,7.5-3.358,7.5-7.5
			S126.161,444,122.019,444z"/>
		<path d="M161.278,444h-7.852c-4.142,0-7.5,3.358-7.5,7.5s3.358,7.5,7.5,7.5h7.852c4.142,0,7.5-3.358,7.5-7.5
			S165.42,444,161.278,444z"/>
		<path d="M279.056,444h-7.852c-4.143,0-7.5,3.358-7.5,7.5s3.357,7.5,7.5,7.5h7.852c4.143,0,7.5-3.358,7.5-7.5
			S283.198,444,279.056,444z"/>
		<path d="M436.093,444h-7.852c-4.143,0-7.5,3.358-7.5,7.5s3.357,7.5,7.5,7.5h7.852c4.143,0,7.5-3.358,7.5-7.5
			S440.235,444,436.093,444z"/>
		<path d="M396.834,444h-7.853c-4.143,0-7.5,3.358-7.5,7.5s3.357,7.5,7.5,7.5h7.853c4.143,0,7.5-3.358,7.5-7.5
			S400.977,444,396.834,444z"/>
		<path d="M318.315,444h-7.853c-4.143,0-7.5,3.358-7.5,7.5s3.357,7.5,7.5,7.5h7.853c4.143,0,7.5-3.358,7.5-7.5
			S322.458,444,318.315,444z"/>
		<path d="M357.574,444h-7.852c-4.143,0-7.5,3.358-7.5,7.5s3.357,7.5,7.5,7.5h7.852c4.143,0,7.5-3.358,7.5-7.5
			S361.717,444,357.574,444z"/>
		<path d="M46.413,444.587C45.276,441.892,42.609,440,39.5,440c-4.142,0-7.5,3.358-7.5,7.5v4c0,4.142,3.358,7.5,7.5,7.5h4
			c4.142,0,7.5-3.358,7.5-7.5C51,448.391,49.108,445.724,46.413,444.587z"/>
		<path d="M39.5,343c4.142,0,7.5-3.358,7.5-7.5v-8c0-4.142-3.358-7.5-7.5-7.5s-7.5,3.358-7.5,7.5v8C32,339.642,35.358,343,39.5,343z
			"/>
		<path d="M39.5,423c4.142,0,7.5-3.358,7.5-7.5v-8c0-4.142-3.358-7.5-7.5-7.5s-7.5,3.358-7.5,7.5v8C32,419.642,35.358,423,39.5,423z
			"/>
		<path d="M39.5,383c4.142,0,7.5-3.358,7.5-7.5v-8c0-4.142-3.358-7.5-7.5-7.5s-7.5,3.358-7.5,7.5v8C32,379.642,35.358,383,39.5,383z
			"/>
		<path d="M39.5,303c4.142,0,7.5-3.358,7.5-7.5v-4c0-4.142-3.358-7.5-7.5-7.5s-7.5,3.358-7.5,7.5v4C32,299.642,35.358,303,39.5,303z
			"/>
		<path d="M503.5,100H327V59.5c0-21.78-17.72-39.5-39.5-39.5h-64C201.72,20,184,37.72,184,59.5V100H7.5c-4.142,0-7.5,3.358-7.5,7.5
			v376c0,4.142,3.358,7.5,7.5,7.5h496c4.143,0,7.5-3.358,7.5-7.5v-376C511,103.358,507.643,100,503.5,100z M199,59.5
			c0-13.509,10.991-24.5,24.5-24.5h64c13.51,0,24.5,10.991,24.5,24.5V100H199V59.5z M496,476H15V247.241
			C28.091,264.112,48.542,275,71.5,275H216v24.5c0,12.958,10.542,23.5,23.5,23.5h32c12.958,0,23.5-10.542,23.5-23.5V275h68.833
			c4.143,0,7.5-3.358,7.5-7.5s-3.357-7.5-7.5-7.5H71.5C40.346,260,15,234.654,15,203.5V115h17.025
			c-0.011,0.166-0.025,0.331-0.025,0.5v4c0,4.142,3.358,7.5,7.5,7.5s7.5-3.358,7.5-7.5v-4c0-0.169-0.014-0.334-0.025-0.5h417.05
			c-0.011,0.166-0.025,0.331-0.025,0.5v4c0,4.142,3.357,7.5,7.5,7.5s7.5-3.358,7.5-7.5v-4c0-0.169-0.014-0.334-0.025-0.5H496v88.5
			c0,31.154-25.346,56.5-56.5,56.5h-39.667c-4.143,0-7.5,3.358-7.5,7.5s3.357,7.5,7.5,7.5H439.5c22.958,0,43.409-10.889,56.5-27.76
			V476z M231,275h49v24.5c0,4.687-3.813,8.5-8.5,8.5h-32c-4.687,0-8.5-3.813-8.5-8.5V275z"/>
		<path d="M61.583,225.902c-1.875-0.834-3.646-1.907-5.263-3.188c-3.245-2.571-7.963-2.026-10.536,1.221
			c-2.572,3.247-2.026,7.964,1.221,10.536c2.604,2.063,5.458,3.791,8.482,5.137c3.937,1.752,8.656-0.277,10.11-4.324
			C66.905,231.637,65.121,227.476,61.583,225.902z"/>
		<path d="M412.643,243h8.057c4.143,0,7.5-3.358,7.5-7.5s-3.357-7.5-7.5-7.5h-8.057c-4.143,0-7.5,3.358-7.5,7.5
			S408.5,243,412.643,243z"/>
		<path d="M47,200.134v-8.057c0-4.142-3.358-7.5-7.5-7.5s-7.5,3.358-7.5,7.5v8.057c0,4.142,3.358,7.5,7.5,7.5S47,204.276,47,200.134
			z"/>
		<path d="M39.5,167.35c4.142,0,7.5-3.358,7.5-7.5v-8.057c0-4.142-3.358-7.5-7.5-7.5s-7.5,3.358-7.5,7.5v8.057
			C32,163.992,35.358,167.35,39.5,167.35z"/>
		<path d="M471.5,167.283c4.143,0,7.5-3.358,7.5-7.5v-8.057c0-4.142-3.357-7.5-7.5-7.5s-7.5,3.358-7.5,7.5v8.057
			C464,163.925,467.357,167.283,471.5,167.283z"/>
		<path d="M471.5,207.567c4.143,0,7.5-3.358,7.5-7.5v-8.057c0-4.142-3.357-7.5-7.5-7.5s-7.5,3.358-7.5,7.5v8.057
			C464,204.209,467.357,207.567,471.5,207.567z"/>
		<path d="M452.533,240.228c1.024,0,2.065-0.211,3.06-0.656c3.021-1.352,5.869-3.085,8.468-5.152
			c3.241-2.579,3.778-7.297,1.199-10.539c-2.58-3.242-7.297-3.777-10.539-1.2c-1.614,1.285-3.383,2.361-5.255,3.199
			c-3.072,1.375-4.89,4.747-4.338,8.069C445.721,237.527,448.908,240.228,452.533,240.228z"/>
		<path d="M387.915,235.5c0-4.142-3.357-7.5-7.5-7.5h-8.057c-4.143,0-7.5,3.358-7.5,7.5s3.357,7.5,7.5,7.5h8.057
			C384.558,243,387.915,239.642,387.915,235.5z"/>
		<path d="M259.564,228h-8.057c-4.142,0-7.5,3.358-7.5,7.5s3.358,7.5,7.5,7.5h8.057c4.143,0,7.5-3.358,7.5-7.5
			S263.707,228,259.564,228z"/>
		<path d="M299.848,228h-8.057c-4.143,0-7.5,3.358-7.5,7.5s3.357,7.5,7.5,7.5h8.057c4.143,0,7.5-3.358,7.5-7.5
			S303.99,228,299.848,228z"/>
		<path d="M340.132,228h-8.057c-4.143,0-7.5,3.358-7.5,7.5s3.357,7.5,7.5,7.5h8.057c4.143,0,7.5-3.358,7.5-7.5
			S344.274,228,340.132,228z"/>
		<path d="M98.43,228h-8.057c-4.142,0-7.5,3.358-7.5,7.5s3.358,7.5,7.5,7.5h8.057c4.142,0,7.5-3.358,7.5-7.5S102.572,228,98.43,228z
			"/>
		<path d="M138.714,228h-8.057c-4.142,0-7.5,3.358-7.5,7.5s3.358,7.5,7.5,7.5h8.057c4.142,0,7.5-3.358,7.5-7.5
			S142.856,228,138.714,228z"/>
		<path d="M219.281,228h-8.057c-4.142,0-7.5,3.358-7.5,7.5s3.358,7.5,7.5,7.5h8.057c4.142,0,7.5-3.358,7.5-7.5
			S223.423,228,219.281,228z"/>
		<path d="M178.998,228h-8.057c-4.142,0-7.5,3.358-7.5,7.5s3.358,7.5,7.5,7.5h8.057c4.142,0,7.5-3.358,7.5-7.5
			S183.14,228,178.998,228z"/>
		<circle cx="255.5" cy="291.5" r="7.5"/>
	</g>
</g>
<g>
</g>
<g>
</g>
<g>
</g>
<g>
</g>
<g>
</g>
<g>
</g>
<g>
</g>
<g>
</g>
<g>
</g>
<g>
</g>
<g>
</g>
<g>
</g>
<g>
</g>
<g>
</g>
<g>
</g>
</svg>
