<?xml version="1.0" encoding="iso-8859-1"?>
<!-- Generator: Adobe Illustrator 19.0.0, SVG Export Plug-In . SVG Version: 6.00 Build 0)  -->
<svg version="1.1" id="Capa_1" xmlns="http://www.w3.org/2000/svg" xmlns:xlink="http://www.w3.org/1999/xlink" x="0px" y="0px"
	 viewBox="0 0 504.485 504.485" style="enable-background:new 0 0 504.485 504.485;" xml:space="preserve">
<g>
	<g>
		<polygon style="fill:#6B7B8B;" points="436.243,458.217 385.736,449.668 366.31,497.067 265.299,315.241 335.232,276.39 		"/>
		<polygon style="fill:#6B7B8B;" points="68.243,458.217 118.75,449.668 138.176,497.067 239.187,315.241 169.254,276.39 		"/>
		<g>
			<polygon style="fill:#40566A;" points="351.14,348.878 363.556,327.375 335.232,276.39 265.299,315.24 287.423,355.066 
				298.141,348.878 			"/>
			<polygon style="fill:#40566A;" points="169.254,276.39 140.93,327.375 153.345,348.878 206.344,348.878 217.062,355.066 
				239.187,315.24 			"/>
		</g>
		<polygon style="fill:#FD8E61;" points="252.243,7.5 291.711,30.287 337.284,30.287 360.071,69.754 399.538,92.541 
			399.538,138.114 422.325,177.582 399.538,217.05 399.538,262.623 360.071,285.41 337.284,324.878 291.711,324.878 
			252.243,347.665 212.775,324.878 167.202,324.878 144.415,285.41 104.947,262.623 104.947,217.05 82.16,177.582 104.947,138.114 
			104.947,92.541 144.415,69.754 167.202,30.287 212.775,30.287 		"/>
		<circle style="fill:#EAECEE;" cx="252.243" cy="177.582" r="120"/>
		<circle style="fill:#FFFFFF;" cx="252.243" cy="177.582" r="95.749"/>
	</g>
	<g>
		<path d="M442.799,454.575l-84.214-151.592l6.976-12.083l37.728-21.782c2.32-1.34,3.75-3.815,3.75-6.495V219.06l21.781-37.728
			c1.34-2.321,1.34-5.18,0-7.5l-21.781-37.728V92.541c0-2.68-1.43-5.155-3.75-6.495l-37.728-21.782l-21.782-37.728
			c-1.34-2.32-3.815-3.75-6.495-3.75H293.72L255.993,1.005c-2.32-1.34-5.18-1.34-7.5,0l-37.728,21.782h-43.563
			c-2.68,0-5.155,1.43-6.495,3.75l-21.782,37.728l-37.728,21.782c-2.32,1.34-3.75,3.815-3.75,6.495v43.563l-21.781,37.728
			c-1.34,2.32-1.34,5.179,0,7.5l21.781,37.728v43.564c0,2.68,1.43,5.155,3.75,6.495l37.728,21.782l6.976,12.083L61.686,454.575
			c-2.997,5.396,1.735,12.058,7.809,11.037l44.591-7.547l17.151,41.847c2.337,5.705,10.501,6.188,13.496,0.798l86.84-156.318
			l16.92,9.769c2.298,1.327,5.202,1.327,7.5,0l16.92-9.769l86.84,156.318c2.995,5.39,11.159,4.908,13.496-0.798l17.151-41.847
			l44.591,7.547C441.065,466.644,445.793,459.965,442.799,454.575z M139.198,479.784l-13.509-32.959
			c-1.33-3.246-4.729-5.133-8.191-4.551l-35.12,5.944l72.268-130.088l6.061,10.498c1.34,2.32,3.815,3.75,6.495,3.75h43.563
			l7.815,4.512L139.198,479.784z M252.243,339.004l-35.718-20.622c-1.141-0.658-2.434-1.005-3.75-1.005h-41.243L150.91,281.66
			c-0.658-1.14-1.605-2.087-2.745-2.745l-35.718-20.622V217.05c0-1.316-0.347-2.61-1.005-3.75l-20.621-35.718l20.621-35.718
			c0.658-1.14,1.005-2.434,1.005-3.75V96.871l35.718-20.622c1.14-0.658,2.087-1.605,2.745-2.745l20.622-35.718h41.243
			c1.316,0,2.609-0.347,3.75-1.005l35.718-20.622l35.718,20.622c1.141,0.658,2.434,1.005,3.75,1.005h41.243l20.622,35.718
			c0.658,1.14,1.605,2.087,2.745,2.745l35.718,20.622v41.243c0,1.316,0.347,2.61,1.005,3.75l20.621,35.718L393.044,213.3
			c-0.658,1.14-1.005,2.434-1.005,3.75v41.244l-35.718,20.622c-1.14,0.658-2.087,1.605-2.745,2.745l-20.622,35.718h-41.243
			c-1.316,0-2.609,0.347-3.75,1.005L252.243,339.004z M386.988,442.273c-3.463-0.582-6.862,1.306-8.191,4.551l-13.509,32.959
			L285.905,336.89l7.815-4.512h43.563c2.68,0,5.155-1.43,6.495-3.75l6.061-10.498l72.268,130.088L386.988,442.273z"/>
		<path d="M379.743,177.582c0-35.752-15.155-70.088-41.579-94.202c-3.06-2.792-7.803-2.575-10.596,0.484
			c-2.792,3.06-2.575,7.803,0.484,10.596c23.317,21.279,36.69,51.576,36.69,83.122c0,62.033-50.468,112.5-112.5,112.5
			s-112.5-50.467-112.5-112.5s50.468-112.5,112.5-112.5c16.097,0,31.637,3.326,46.188,9.886c3.771,1.701,8.216,0.022,9.919-3.755
			c1.703-3.776,0.021-8.217-3.755-9.92c-16.502-7.439-34.115-11.211-52.353-11.211c-70.304,0-127.5,57.196-127.5,127.5
			s57.196,127.5,127.5,127.5S379.743,247.886,379.743,177.582z"/>
		<path d="M284.243,161.082c4.143,0,7.5-3.358,7.5-7.5v-8c0-17.369-14.131-31.5-31.5-31.5h-0.5v-16.5c0-4.142-3.357-7.5-7.5-7.5
			s-7.5,3.358-7.5,7.5v16.674c-17.938,1.764-32,16.932-32,35.326c0,19.575,15.925,35.5,35.5,35.5h8c11.304,0,20.5,9.196,20.5,20.5
			s-9.196,20.5-20.5,20.5h-12c-9.098,0-16.5-7.402-16.5-16.5c0-4.142-3.357-7.5-7.5-7.5s-7.5,3.358-7.5,7.5
			c0,17.369,14.131,31.5,31.5,31.5h0.5v16.5c0,4.142,3.357,7.5,7.5,7.5s7.5-3.358,7.5-7.5v-16.674c17.938-1.764,32-16.932,32-35.326
			c0-19.575-15.925-35.5-35.5-35.5h-8c-11.304,0-20.5-9.196-20.5-20.5s9.196-20.5,20.5-20.5h12c9.098,0,16.5,7.402,16.5,16.5v8
			C276.743,157.724,280.1,161.082,284.243,161.082z"/>
	</g>
</g>
<g>
</g>
<g>
</g>
<g>
</g>
<g>
</g>
<g>
</g>
<g>
</g>
<g>
</g>
<g>
</g>
<g>
</g>
<g>
</g>
<g>
</g>
<g>
</g>
<g>
</g>
<g>
</g>
<g>
</g>
</svg>
