<?xml version="1.0" encoding="iso-8859-1"?>
<!-- Generator: Adobe Illustrator 19.0.0, SVG Export Plug-In . SVG Version: 6.00 Build 0)  -->
<svg version="1.1" id="Capa_1" xmlns="http://www.w3.org/2000/svg" xmlns:xlink="http://www.w3.org/1999/xlink" x="0px" y="0px"
	 viewBox="0 0 507 507" style="enable-background:new 0 0 507 507;" xml:space="preserve">
<g>
	<g>
		<g>
			<polygon style="fill:#76E7EB;" points="325.5,355.5 325.5,211.5 181.5,211.5 181.5,355.5 37.5,355.5 37.5,499.5 469.5,499.5 
				469.5,355.5 			"/>
			<g>
				<polygon style="fill:#1BD7DE;" points="61.5,475.5 61.5,355.5 37.5,355.5 37.5,499.5 469.5,499.5 469.5,475.5 				"/>
			</g>
		</g>
		<g>
			<circle style="fill:#FDE6A6;" cx="253.5" cy="93.5" r="86"/>
			<circle style="fill:#FCD56A;" cx="253.5" cy="93.5" r="66"/>
		</g>
	</g>
	<g>
		<path d="M469.5,348H333V211.5c0-4.142-3.357-7.5-7.5-7.5h-144c-4.143,0-7.5,3.358-7.5,7.5V348H37.5c-4.143,0-7.5,3.358-7.5,7.5
			v144c0,4.142,3.357,7.5,7.5,7.5H298c4.143,0,7.5-3.358,7.5-7.5s-3.357-7.5-7.5-7.5H45V363h136.5c4.143,0,7.5-3.358,7.5-7.5V219
			h129v136.5c0,4.142,3.357,7.5,7.5,7.5H462v129H334.5c-4.143,0-7.5,3.358-7.5,7.5s3.357,7.5,7.5,7.5h135c4.143,0,7.5-3.358,7.5-7.5
			v-144C477,351.358,473.643,348,469.5,348z"/>
		<path d="M253.5,331c4.143,0,7.5-3.358,7.5-7.5v-80c0-6.539-8.174-9.93-12.804-5.303l-24,24c-2.889,2.889-2.889,7.717,0,10.606
			c2.89,2.889,7.717,2.889,10.607,0L246,261.606V323.5C246,327.642,249.357,331,253.5,331z"/>
		<path d="M141,411.5c0-17.369-14.131-31.5-31.5-31.5S78,394.131,78,411.5c0,4.142,3.357,7.5,7.5,7.5s7.5-3.358,7.5-7.5
			c0-9.098,7.402-16.5,16.5-16.5s16.5,7.402,16.5,16.5c0,22.373-31.66,43.169-43.854,49.292c-3.121,1.561-4.775,5.188-3.91,8.567
			C79.074,472.64,82.113,475,85.5,475h48c4.143,0,7.5-3.358,7.5-7.5s-3.357-7.5-7.5-7.5h-22.604
			C125.135,448.873,141,431.897,141,411.5z"/>
		<path d="M381.5,460c-9.098,0-16.5-7.402-16.5-16.5c0-4.142-3.357-7.5-7.5-7.5s-7.5,3.358-7.5,7.5c0,17.369,14.131,31.5,31.5,31.5
			s31.5-14.131,31.5-31.5c0-12.767-7.636-23.785-18.58-28.727L411.5,392c3.639-4.853,0.053-12-6-12h-48c-4.143,0-7.5,3.358-7.5,7.5
			s3.357,7.5,7.5,7.5h33l-15,20c-3.639,4.853-0.053,12,6,12c9.098,0,16.5,7.402,16.5,16.5S390.598,460,381.5,460z"/>
		<path d="M374,91.5c0,4.142,3.357,7.5,7.5,7.5h16c4.143,0,7.5-3.358,7.5-7.5s-3.357-7.5-7.5-7.5h-16
			C377.357,84,374,87.358,374,91.5z"/>
		<path d="M373.5,51c1.919,0,3.839-0.732,5.304-2.197l16-16c2.929-2.929,2.929-7.678,0-10.606c-2.93-2.929-7.678-2.929-10.607,0
			l-16,16C363.576,42.817,366.941,51,373.5,51z"/>
		<path d="M384.196,160.803c3.051,3.05,8.201,2.845,11.006-0.43c2.513-2.935,2.332-7.446-0.398-10.176l-16-16
			c-2.93-2.929-7.678-2.929-10.607,0c-2.929,2.929-2.929,7.678,0,10.606L384.196,160.803z"/>
		<path d="M109.5,99h16c4.143,0,7.5-3.358,7.5-7.5s-3.357-7.5-7.5-7.5h-16c-4.143,0-7.5,3.358-7.5,7.5S105.357,99,109.5,99z"/>
		<path d="M128.196,48.803c3.051,3.05,8.201,2.845,11.006-0.43c2.513-2.935,2.332-7.446-0.398-10.176l-16-16
			c-2.93-2.929-7.678-2.929-10.607,0c-2.929,2.929-2.929,7.678,0,10.606L128.196,48.803z"/>
		<path d="M128.196,134.197l-16,16c-2.929,2.929-2.929,7.678,0,10.606c2.89,2.889,7.717,2.889,10.607,0l16-16
			c2.929-2.929,2.929-7.678,0-10.606C135.874,131.268,131.126,131.268,128.196,134.197z"/>
		<path d="M253.5,187c51.556,0,93.5-41.944,93.5-93.5S305.056,0,253.5,0S160,41.944,160,93.5S201.944,187,253.5,187z M253.5,15
			c43.285,0,78.5,35.215,78.5,78.5S296.785,172,253.5,172S175,136.785,175,93.5S210.215,15,253.5,15z"/>
		<path d="M256.1,122.4h-7.8c-4.466,0-8.1-3.634-8.1-8.1c0-4.142-3.357-7.5-7.5-7.5s-7.5,3.358-7.5,7.5
			c0,11.961,9.138,21.827,20.8,22.985v8.215c0,4.142,3.357,7.5,7.5,7.5s7.5-3.358,7.5-7.5v-8.574
			c11.834-2.295,20.8-12.73,20.8-25.225c0-14.171-11.529-25.7-25.7-25.7H250.9c-5.9,0-10.7-4.8-10.7-10.7s4.8-10.7,10.7-10.7h7.8
			c4.466,0,8.1,3.634,8.1,8.1v5.2c0,4.142,3.357,7.5,7.5,7.5s7.5-3.358,7.5-7.5v-5.2c0-11.961-9.138-21.827-20.8-22.985V41.5
			c0-4.142-3.357-7.5-7.5-7.5s-7.5,3.358-7.5,7.5v8.574c-11.834,2.295-20.8,12.73-20.8,25.225c0,14.171,11.529,25.7,25.7,25.7h5.199
			c5.9,0,10.7,4.8,10.7,10.7S262,122.4,256.1,122.4z"/>
	</g>
</g>
<g>
</g>
<g>
</g>
<g>
</g>
<g>
</g>
<g>
</g>
<g>
</g>
<g>
</g>
<g>
</g>
<g>
</g>
<g>
</g>
<g>
</g>
<g>
</g>
<g>
</g>
<g>
</g>
<g>
</g>
</svg>
