<?xml version="1.0" encoding="iso-8859-1"?>
<!-- Generator: Adobe Illustrator 19.0.0, SVG Export Plug-In . SVG Version: 6.00 Build 0)  -->
<svg version="1.1" id="Capa_1" xmlns="http://www.w3.org/2000/svg" xmlns:xlink="http://www.w3.org/1999/xlink" x="0px" y="0px"
	 viewBox="0 0 511 511" style="enable-background:new 0 0 511 511;" xml:space="preserve">
<g>
	<g>
		<g>
			<path style="fill:#55697A;" d="M487.5,415.5h-464c-8.837,0-16-7.163-16-16v-16h496v16C503.5,408.337,496.337,415.5,487.5,415.5z"
				/>
			<path style="fill:#40566A;" d="M39.5,399.5v-16h-32v16c0,8.836,7.163,16,16,16h32C46.663,415.5,39.5,408.336,39.5,399.5z"/>
			<rect x="31.5" y="95.5" style="fill:#EAECEE;" width="448" height="288"/>
			<rect x="31.5" y="95.5" style="fill:#D5D9DE;" width="24" height="288"/>
			<rect x="31.5" y="95.5" style="fill:#6B7B8B;" width="448" height="32"/>
			<rect x="31.5" y="95.5" style="fill:#55697A;" width="24" height="32"/>
		</g>
	</g>
	<g>
		<path d="M503.5,376H487V95.5c0-4.142-3.358-7.5-7.5-7.5h-448c-4.142,0-7.5,3.358-7.5,7.5V376H7.5c-4.142,0-7.5,3.358-7.5,7.5v16
			C0,412.458,10.542,423,23.5,423h464c12.958,0,23.5-10.542,23.5-23.5v-16C511,379.358,507.642,376,503.5,376z M39,135h356.833
			c4.142,0,7.5-3.358,7.5-7.5s-3.358-7.5-7.5-7.5H39v-17h433v17h-39.5c-4.142,0-7.5,3.358-7.5,7.5s3.358,7.5,7.5,7.5H472v241H39V135
			z M496,399.5c0,4.687-3.813,8.5-8.5,8.5h-464c-4.687,0-8.5-3.813-8.5-8.5V391h481V399.5z"/>
		<path d="M420.483,217.895l-23.642-21.015L421.5,164c2.485-3.313,1.813-8.015-1.5-10.5c-3.313-2.484-8.015-1.813-10.5,1.5
			l-23.909,31.879l-37.108-32.985c-2.968-2.638-7.478-2.506-10.286,0.302l-53.406,53.406l-22.045-2.756L229.74,155.34
			c-2.713-4.071-8.752-4.434-11.935-0.721l-43.427,50.665L148,185.5c-2.543-1.908-6.015-2.006-8.66-0.24l-48,32
			c-3.447,2.297-4.378,6.954-2.08,10.4c2.297,3.446,6.954,4.379,10.4,2.08l43.585-29.057L171,221.5
			c3.162,2.372,7.623,1.883,10.194-1.119l41.557-48.483l20.328,30.491l-18.649-2.331c-2.944-0.369-5.833,1.037-7.361,3.583
			l-21.04,35.067l-50.468-14.419c-2.817-0.804-5.847,0.105-7.755,2.331l-48,56c-2.447,2.855-2.367,7.227,0.196,9.982
			c3.009,3.236,8.318,3.132,11.193-0.221l44.87-52.348l51.375,14.679c3.264,0.934,6.746-0.443,8.492-3.353l21.486-35.811
			l26.655,3.332l27.187,40.78c2.583,3.875,8.249,4.439,11.543,1.143l50.697-50.697l18.697,18.697
			c3.179,3.181,8.607,2.791,11.303-0.803l14.309-19.079l22.708,20.185c3.055,2.714,7.873,2.433,10.588-0.623
			C423.82,225.428,423.537,220.61,420.483,217.895z M366.688,212.082l-17.885-17.885c-2.929-2.929-7.678-2.929-10.606,0
			l-49.531,49.531l-14.926-22.389l12.831,1.604c2.297,0.289,4.597-0.502,6.233-2.139l51-51l32.757,29.117L366.688,212.082z"/>
		<path d="M223.5,312h-16c-4.142,0-7.5,3.358-7.5,7.5s3.358,7.5,7.5,7.5h16c4.142,0,7.5-3.358,7.5-7.5S227.642,312,223.5,312z"/>
		<path d="M255.5,327h56c4.142,0,7.5-3.358,7.5-7.5s-3.358-7.5-7.5-7.5h-56c-4.142,0-7.5,3.358-7.5,7.5S251.358,327,255.5,327z"/>
		<path d="M223.5,344h-16c-4.142,0-7.5,3.358-7.5,7.5s3.358,7.5,7.5,7.5h16c4.142,0,7.5-3.358,7.5-7.5S227.642,344,223.5,344z"/>
		<path d="M327.5,344h-72c-4.142,0-7.5,3.358-7.5,7.5s3.358,7.5,7.5,7.5h72c4.142,0,7.5-3.358,7.5-7.5S331.642,344,327.5,344z"/>
		<path d="M394.2,255.715V247.5c0-4.142-3.358-7.5-7.5-7.5s-7.5,3.358-7.5,7.5v8.574c-11.835,2.295-20.8,12.73-20.8,25.226
			c0,14.171,11.529,25.7,25.7,25.7h5.2c5.9,0,10.7,4.8,10.7,10.7s-4.8,10.7-10.7,10.7h-7.8c-4.466,0-8.1-3.634-8.1-8.1
			c0-4.142-3.358-7.5-7.5-7.5s-7.5,3.358-7.5,7.5c0,11.961,9.139,21.827,20.8,22.985v8.215c0,4.142,3.358,7.5,7.5,7.5
			s7.5-3.358,7.5-7.5v-8.574c11.834-2.295,20.8-12.73,20.8-25.226c0-14.171-11.529-25.7-25.7-25.7h-5.2c-5.9,0-10.7-4.8-10.7-10.7
			s4.8-10.7,10.7-10.7h7.8c4.466,0,8.1,3.634,8.1,8.1v5.2c0,4.142,3.358,7.5,7.5,7.5s7.5-3.358,7.5-7.5v-5.2
			C415,266.739,405.861,256.874,394.2,255.715z"/>
	</g>
</g>
<g>
</g>
<g>
</g>
<g>
</g>
<g>
</g>
<g>
</g>
<g>
</g>
<g>
</g>
<g>
</g>
<g>
</g>
<g>
</g>
<g>
</g>
<g>
</g>
<g>
</g>
<g>
</g>
<g>
</g>
</svg>
