<?xml version="1.0" encoding="iso-8859-1"?>
<!-- Generator: Adobe Illustrator 19.0.0, SVG Export Plug-In . SVG Version: 6.00 Build 0)  -->
<svg version="1.1" id="Capa_1" xmlns="http://www.w3.org/2000/svg" xmlns:xlink="http://www.w3.org/1999/xlink" x="0px" y="0px"
	 viewBox="0 0 503 503" style="enable-background:new 0 0 503 503;" xml:space="preserve">
<g>
	<g>
		<circle style="fill:#76E7EB;" cx="251.5" cy="271.5" r="224"/>
		<path style="fill:#1BD7DE;" d="M283.5,479.5c-123.712,0-224-100.288-224-224c0-81.34,43.357-152.55,108.219-191.79
			C85.515,96.887,27.5,177.412,27.5,271.5c0,123.712,100.288,224,224,224c42.372,0,81.993-11.769,115.781-32.21
			C341.399,473.736,313.124,479.5,283.5,479.5z"/>
		<circle style="fill:#EAECEE;" cx="251.5" cy="271.5" r="184"/>
		<circle style="fill:#FFFFFF;" cx="251.5" cy="271.5" r="160"/>
		<g>
			<polygon style="fill:#FD8E61;" points="240.186,260.186 315.5,207.5 262.814,282.814 			"/>
			<polygon style="fill:#FDDD88;" points="262.814,282.814 187.5,335.5 240.186,260.186 			"/>
		</g>
	</g>
	<g>
		<path d="M415.195,107.805c-39.899-39.899-91.8-63.43-147.56-67.244C272.165,36.275,275,30.214,275,23.5
			C275,10.542,264.458,0,251.5,0S228,10.542,228,23.5c0,6.714,2.835,12.775,7.365,17.061c-55.76,3.814-107.661,27.344-147.56,67.244
			C44.08,151.529,20,209.664,20,271.5s24.08,119.971,67.805,163.695S189.664,503,251.5,503s119.971-24.08,163.695-67.805
			S483,333.336,483,271.5S458.92,151.529,415.195,107.805z M251.5,15c4.687,0,8.5,3.813,8.5,8.5s-3.813,8.5-8.5,8.5
			s-8.5-3.813-8.5-8.5S246.813,15,251.5,15z M251.5,488C132.122,488,35,390.878,35,271.5S132.122,55,251.5,55S468,152.122,468,271.5
			S370.878,488,251.5,488z"/>
		<path d="M421.392,183.05c-13.678-26.221-33.591-49.278-57.586-66.678c-3.353-2.43-8.042-1.685-10.475,1.669
			c-2.432,3.353-1.685,8.043,1.669,10.475c45.71,33.147,73,86.6,73,142.985c0,97.322-79.178,176.5-176.5,176.5S75,368.822,75,271.5
			S154.178,95,251.5,95c25.656,0,50.391,5.38,73.517,15.991c3.765,1.728,8.218,0.075,9.944-3.689
			c1.727-3.765,0.076-8.217-3.689-9.944C306.17,85.84,279.331,80,251.5,80C145.907,80,60,165.907,60,271.5S145.907,463,251.5,463
			S443,377.093,443,271.5C443,240.734,435.528,210.148,421.392,183.05z"/>
		<path d="M320.803,202.197c-2.573-2.573-6.621-2.928-9.603-0.842l-75.313,52.687c-0.71,0.492-1.351,1.14-1.846,1.846
			l-52.687,75.313c-2.099,3.001-1.653,7.294,1.036,9.784c2.542,2.354,6.565,2.65,9.409,0.661l75.313-52.687
			c0.71-0.492,1.351-1.14,1.846-1.846l52.687-75.313C323.731,208.818,323.376,204.77,320.803,202.197z M217.966,305.034
			l23.24-33.221l9.981,9.981L217.966,305.034z M261.794,271.187l-9.981-9.981l33.221-23.24L261.794,271.187z"/>
		<path d="M272.3,363.4c4.142,0,7.5-3.358,7.5-7.5v-5.2c0-11.961-9.138-21.827-20.8-22.985V319.5c0-4.142-3.358-7.5-7.5-7.5
			s-7.5,3.358-7.5,7.5v8.574c-11.835,2.295-20.8,12.73-20.8,25.226c0,14.171,11.529,25.7,25.7,25.7h5.2c5.9,0,10.7,4.8,10.7,10.7
			s-4.8,10.7-10.7,10.7h-7.8c-4.466,0-8.1-3.634-8.1-8.1c0-4.142-3.358-7.5-7.5-7.5s-7.5,3.358-7.5,7.5
			c0,11.961,9.138,21.827,20.8,22.985v8.215c0,4.142,3.358,7.5,7.5,7.5s7.5-3.358,7.5-7.5v-8.574
			c11.835-2.295,20.8-12.73,20.8-25.226c0-14.171-11.529-25.7-25.7-25.7h-5.2c-5.9,0-10.7-4.8-10.7-10.7s4.8-10.7,10.7-10.7h7.8
			c4.466,0,8.1,3.634,8.1,8.1v5.2C264.8,360.042,268.158,363.4,272.3,363.4z"/>
		<path d="M355.5,279h0.5v16.5c0,12.958,10.542,23.5,23.5,23.5h8.25c12.82,0,23.25-10.43,23.25-23.25v-0.25
			c0-4.142-3.358-7.5-7.5-7.5s-7.5,3.358-7.5,7.5v0.25c0,4.549-3.701,8.25-8.25,8.25h-8.25c-4.687,0-8.5-3.813-8.5-8.5V279h16.5
			c4.142,0,7.5-3.358,7.5-7.5s-3.358-7.5-7.5-7.5H371v-16.5c0-4.687,3.813-8.5,8.5-8.5h8.25c4.549,0,8.25,3.701,8.25,8.25
			c0,4.142,3.358,7.5,7.5,7.5s7.5-3.358,7.5-7.5c0-12.82-10.43-23.25-23.25-23.25h-8.25c-12.958,0-23.5,10.542-23.5,23.5V264h-0.5
			c-4.142,0-7.5,3.358-7.5,7.5S351.358,279,355.5,279z"/>
		<path d="M279.359,113.069c-3.553-2.132-8.159-0.98-10.29,2.572L251.5,144.923l-17.569-29.282
			c-2.131-3.551-6.738-4.703-10.29-2.572c-3.552,2.131-4.704,6.738-2.572,10.29L243.054,160H235.5c-4.142,0-7.5,3.358-7.5,7.5
			s3.358,7.5,7.5,7.5h8.5v24.5c0,4.142,3.358,7.5,7.5,7.5s7.5-3.358,7.5-7.5V175h8.5c4.142,0,7.5-3.358,7.5-7.5s-3.358-7.5-7.5-7.5
			h-7.554l21.985-36.641C284.062,119.807,282.911,115.2,279.359,113.069z"/>
		<path d="M145.032,254.985c4.129,0.26,7.695-2.883,7.953-7.018c0.068-1.091,0.479-10.864-6.002-17.763
			c-2.66-2.831-7.504-6.205-15.483-6.205c-6.108,0-16.995,2.557-21.276,19.681c-1.601,6.403-2.044,13.625-2.169,20.319H99.5
			c-4.142,0-7.5,3.358-7.5,7.5s3.358,7.5,7.5,7.5h8.214c-1.328,17.569-6.869,29.036-6.922,29.146
			C98.34,313.048,102.03,319,107.5,319h32c4.142,0,7.5-3.358,7.5-7.5s-3.358-7.5-7.5-7.5h-21.212c1.862-6.176,3.798-14.73,4.467-25
			h8.745c4.142,0,7.5-3.358,7.5-7.5s-3.358-7.5-7.5-7.5h-8.44c0.118-5.763,0.492-11.781,1.716-16.681
			C126.856,239,129.877,239,131.5,239c1.898,0,3.857,0.391,4.995,2.028c1.162,1.672,1.597,4.054,1.517,6.067
			C137.788,251.202,140.919,254.729,145.032,254.985z"/>
	</g>
</g>
<g>
</g>
<g>
</g>
<g>
</g>
<g>
</g>
<g>
</g>
<g>
</g>
<g>
</g>
<g>
</g>
<g>
</g>
<g>
</g>
<g>
</g>
<g>
</g>
<g>
</g>
<g>
</g>
<g>
</g>
</svg>
