<?xml version="1.0" encoding="iso-8859-1"?>
<!-- Generator: Adobe Illustrator 19.0.0, SVG Export Plug-In . SVG Version: 6.00 Build 0)  -->
<svg version="1.1" id="Capa_1" xmlns="http://www.w3.org/2000/svg" xmlns:xlink="http://www.w3.org/1999/xlink" x="0px" y="0px"
	 viewBox="0 0 511 511" style="enable-background:new 0 0 511 511;" xml:space="preserve">
<g>
	<g>
		<path style="fill:#F4F6F7;" d="M119.5,7.5v376v48h336c26.51,0,48-21.49,48-48V7.5H119.5z"/>
		<circle style="fill:#EAECEE;" cx="71.5" cy="359.5" r="32"/>
		<g>
			<path style="fill:#EAECEE;" d="M375.5,327.5h-304v136h272v-104C343.5,341.827,357.827,327.5,375.5,327.5z"/>
			<path style="fill:#D5D9DE;" d="M407.5,383.5v-24c0-17.673-14.327-32-32-32h-304v56c0,26.51,21.49,48,48,48h336
				C428.99,431.5,407.5,410.01,407.5,383.5z"/>
		</g>
		<path style="fill:#EAECEE;" d="M311.5,503.5c17.673,0,32-14.327,32-32h-64C279.5,489.173,293.827,503.5,311.5,503.5z"/>
		<path style="fill:#EAECEE;" d="M71.5,327.5c-17.673,0-32,14.327-32,32v144h272c17.673,0,32-14.327,32-32v-112
			c0-17.673,14.327-32,32-32H71.5z"/>
		<g>
			<path style="fill:#D5D9DE;" d="M279.5,471.5v-32H7.5v32c0,17.673,14.327,32,32,32h272C293.827,503.5,279.5,489.173,279.5,471.5z"
				/>
		</g>
		<g>
			<rect x="266.7" y="111.5" style="fill:#FDDD88;" width="96" height="96"/>
			<rect x="266.7" y="111.5" style="fill:#FCD56A;" width="24" height="96"/>
			<polygon style="fill:#FD8E61;" points="362.7,111.5 314.7,47.5 266.7,111.5 			"/>
			<circle style="fill:#D5D9DE;" cx="314.7" cy="159.5" r="16"/>
			<path style="fill:#FD8E61;" d="M362.7,207.5h40c-2.346-5.698-7.024-15.024-16-24c-4.357-4.357-12.262-11.167-24-16
				C362.7,180.833,362.7,194.167,362.7,207.5z"/>
			<path style="fill:#FD7239;" d="M266.7,207.5h-40c2.346-5.698,7.024-15.024,16-24c4.357-4.357,12.262-11.167,24-16
				C266.7,180.833,266.7,194.167,266.7,207.5z"/>
		</g>
	</g>
	<g>
		<path d="M503.5,199.333c4.143,0,7.5-3.358,7.5-7.5V7.5c0-4.142-3.357-7.5-7.5-7.5h-384c-4.142,0-7.5,3.358-7.5,7.5V320H71.5
			C49.72,320,32,337.72,32,359.5V432H7.5c-4.142,0-7.5,3.358-7.5,7.5v32C0,493.28,17.72,511,39.5,511h272
			c21.78,0,39.5-17.72,39.5-39.5V439h104.5c30.603,0,55.5-24.897,55.5-55.5V227.833c0-4.142-3.357-7.5-7.5-7.5s-7.5,3.358-7.5,7.5
			V383.5c0,22.332-18.168,40.5-40.5,40.5S415,405.832,415,383.5v-24c0-21.78-17.72-39.5-39.5-39.5H127V15h369v176.833
			C496,195.975,499.357,199.333,503.5,199.333z M39.5,496C25.991,496,15,485.009,15,471.5V447h257v24.5
			c0,9.247,3.194,17.762,8.536,24.5H39.5z M400,359.5v24c0,15.959,6.771,30.366,17.59,40.5H351v-64.5c0-13.509,10.99-24.5,24.5-24.5
			S400,345.991,400,359.5z M336.583,352.718c-0.383,2.204-0.583,4.47-0.583,6.782v112c0,13.509-10.99,24.5-24.5,24.5
			S287,485.009,287,471.5v-32c0-4.142-3.357-7.5-7.5-7.5H47v-72.5c0-13.509,10.991-24.5,24.5-24.5h273.036
			C340.53,340.053,337.731,346.106,336.583,352.718z"/>
		<path d="M103.5,375h176c4.143,0,7.5-3.358,7.5-7.5s-3.357-7.5-7.5-7.5h-176c-4.142,0-7.5,3.358-7.5,7.5S99.358,375,103.5,375z"/>
		<path d="M103.5,415h48c4.142,0,7.5-3.358,7.5-7.5s-3.358-7.5-7.5-7.5h-48c-4.142,0-7.5,3.358-7.5,7.5S99.358,415,103.5,415z"/>
		<path d="M279.5,400h-96c-4.142,0-7.5,3.358-7.5,7.5s3.358,7.5,7.5,7.5h96c4.143,0,7.5-3.358,7.5-7.5S283.643,400,279.5,400z"/>
		<path d="M370.172,110.947c-0.109-1.422-0.618-2.802-1.472-3.947l-48-64c-2.95-3.935-9.049-3.935-12,0l-48,64
			c-0.96,1.287-1.5,2.893-1.5,4.5v51.169c-8.083,3.932-15.406,9.13-21.803,15.528c-7.605,7.605-13.538,16.503-17.632,26.448
			C217.766,209.5,221.459,215,226.7,215h176c5.241,0,8.935-5.501,6.935-10.356c-4.096-9.945-10.027-18.843-17.632-26.448
			c-6.398-6.397-13.721-11.595-21.803-15.527V111.5C370.2,111.313,370.186,111.13,370.172,110.947z M314.7,60l33,44h-66L314.7,60z
			 M248.004,188.803c3.422-3.422,7.165-6.429,11.196-8.997V200h-20.194C241.575,195.969,244.582,192.225,248.004,188.803z
			 M274.2,167.5V119h81v48.5V200h-81V167.5z M381.396,188.803c3.422,3.422,6.429,7.165,8.997,11.197H370.2v-20.193
			C374.231,182.375,377.975,185.381,381.396,188.803z"/>
		<path d="M314.7,136c-12.958,0-23.5,10.542-23.5,23.5s10.542,23.5,23.5,23.5s23.5-10.542,23.5-23.5S327.658,136,314.7,136z
			 M314.7,168c-4.687,0-8.5-3.813-8.5-8.5s3.813-8.5,8.5-8.5s8.5,3.813,8.5,8.5S319.387,168,314.7,168z"/>
		<path d="M327,247.5c0-4.142-3.357-7.5-7.5-7.5h-120c-4.142,0-7.5,3.358-7.5,7.5s3.358,7.5,7.5,7.5h120
			C323.643,255,327,251.642,327,247.5z"/>
		<path d="M199.5,280c-4.142,0-7.5,3.358-7.5,7.5s3.358,7.5,7.5,7.5h56c4.143,0,7.5-3.358,7.5-7.5s-3.357-7.5-7.5-7.5H199.5z"/>
		<path d="M287.5,295h136c4.143,0,7.5-3.358,7.5-7.5s-3.357-7.5-7.5-7.5h-136c-4.143,0-7.5,3.358-7.5,7.5S283.357,295,287.5,295z"/>
		<path d="M344,247.5c0,4.142,3.357,7.5,7.5,7.5h64c4.143,0,7.5-3.358,7.5-7.5s-3.357-7.5-7.5-7.5h-64
			C347.357,240,344,243.358,344,247.5z"/>
		<path d="M205.3,152.4h-7.8c-4.466,0-8.1-3.634-8.1-8.1c0-4.142-3.358-7.5-7.5-7.5s-7.5,3.358-7.5,7.5
			c0,11.961,9.139,21.827,20.8,22.985v8.215c0,4.142,3.358,7.5,7.5,7.5s7.5-3.358,7.5-7.5v-8.574
			c11.834-2.295,20.8-12.73,20.8-25.226c0-14.171-11.529-25.7-25.7-25.7h-5.2c-5.9,0-10.7-4.8-10.7-10.7s4.8-10.7,10.7-10.7h7.8
			c4.466,0,8.1,3.634,8.1,8.1v5.2c0,4.142,3.358,7.5,7.5,7.5s7.5-3.358,7.5-7.5v-5.2c0-11.961-9.139-21.827-20.8-22.985V71.5
			c0-4.142-3.358-7.5-7.5-7.5s-7.5,3.358-7.5,7.5v8.574c-11.835,2.295-20.8,12.73-20.8,25.226c0,14.171,11.529,25.7,25.7,25.7h5.2
			c5.9,0,10.7,4.8,10.7,10.7S211.2,152.4,205.3,152.4z"/>
		<path d="M447.5,115.4c4.143,0,7.5-3.358,7.5-7.5v-5.2c0-11.961-9.138-21.827-20.8-22.985V71.5c0-4.142-3.357-7.5-7.5-7.5
			s-7.5,3.358-7.5,7.5v8.574c-11.835,2.294-20.8,12.73-20.8,25.226c0,14.171,11.528,25.7,25.699,25.7h5.2c5.9,0,10.7,4.8,10.7,10.7
			s-4.8,10.7-10.7,10.7h-7.8c-4.466,0-8.1-3.634-8.1-8.1c0-4.142-3.357-7.5-7.5-7.5s-7.5,3.358-7.5,7.5
			c0,11.961,9.138,21.827,20.8,22.985v8.215c0,4.142,3.357,7.5,7.5,7.5s7.5-3.358,7.5-7.5v-8.574
			c11.834-2.295,20.8-12.73,20.8-25.226c0-14.171-11.529-25.7-25.7-25.7h-5.2c-5.899,0-10.699-4.8-10.699-10.7s4.8-10.7,10.699-10.7
			h7.801c4.466,0,8.1,3.634,8.1,8.1v5.2C440,112.042,443.357,115.4,447.5,115.4z"/>
	</g>
</g>
<g>
</g>
<g>
</g>
<g>
</g>
<g>
</g>
<g>
</g>
<g>
</g>
<g>
</g>
<g>
</g>
<g>
</g>
<g>
</g>
<g>
</g>
<g>
</g>
<g>
</g>
<g>
</g>
<g>
</g>
</svg>
