<?xml version="1.0" encoding="iso-8859-1"?>
<!-- Generator: Adobe Illustrator 19.0.0, SVG Export Plug-In . SVG Version: 6.00 Build 0)  -->
<svg version="1.1" id="Capa_1" xmlns="http://www.w3.org/2000/svg" xmlns:xlink="http://www.w3.org/1999/xlink" x="0px" y="0px"
	 viewBox="0 0 511 511" style="enable-background:new 0 0 511 511;" xml:space="preserve">
<g>
	<g>
		<g>
			<path style="fill:#F4F6F7;" d="M439.5,15.505h-248c-35.346,0-64,28.654-64,64v200c0,35.346,28.654,64,64,64h128l64,64v-64h56
				c35.346,0,64-28.654,64-64v-200C503.5,44.159,474.846,15.505,439.5,15.505z"/>
			<path style="fill:#EAECEE;" d="M191.5,343.505h78.999c-8.412-67.478-69.328-120-142.999-120v56
				C127.5,314.852,156.154,343.505,191.5,343.505z"/>
			<g>
				<path style="fill:#FDDD88;" d="M407.5,135.505c0-48.601-39.399-88-88-88s-88,39.399-88,88c0,34.197,19.507,63.838,48,78.404
					v49.596h80v-49.596C387.993,199.343,407.5,169.703,407.5,135.505z"/>
				<path style="fill:#FCD56A;" d="M303.5,223.505v-12.848c0-2.887-1.573-5.519-4.071-6.966
					c-26.264-15.226-43.929-43.642-43.929-76.185c0-34.379,19.717-64.15,48.458-78.631c-41.188,7.34-72.458,43.333-72.458,86.631
					c0,34.197,19.507,63.838,48,78.404v49.596h80v-32h-48C307.082,231.505,303.5,227.924,303.5,223.505z"/>
				<path style="fill:#AAB4BD;" d="M351.5,311.505h-64c-13.255,0-24-10.745-24-24v-40h112v40
					C375.5,300.76,364.755,311.505,351.5,311.505z"/>
				<path style="fill:#95A1AC;" d="M311.5,295.505c-13.255,0-24-10.745-24-24v-24h-24v40c0,13.255,10.745,24,24,24h64
					c10.449,0,19.334-6.68,22.629-16H311.5z"/>
			</g>
		</g>
		<g>
			<path style="fill:#76E7EB;" d="M127.5,247.505c-66.274,0-120,50.144-120,112c0,31.46,13.903,59.884,36.281,80.229L23.5,495.505
				l58.965-32.163c13.907,5.259,29.106,8.163,45.035,8.163c66.274,0,120-50.144,120-112S193.774,247.505,127.5,247.505z"/>
			<path style="fill:#1BD7DE;" d="M37.5,346.505c0-39.494,21.904-74.21,54.99-94.152C43.296,266.338,7.5,309.017,7.5,359.505
				c0,31.46,13.903,59.884,36.281,80.229L23.5,495.505l58.965-32.163c13.907,5.259,29.106,8.163,45.035,8.163
				c23.959,0,46.276-6.557,65.01-17.848c-11.077,3.149-22.83,4.848-35.01,4.848C91.226,458.505,37.5,408.361,37.5,346.505z"/>
		</g>
	</g>
	<g>
		<path d="M503.5,136.005c4.143,0,7.5-3.358,7.5-7.5v-49c0-39.425-32.075-71.5-71.5-71.5h-248c-39.425,0-71.5,32.075-71.5,71.5
			v160.712C53.174,243.869,0,295.973,0,359.505c0,30.965,12.405,59.997,35.05,82.292l-18.599,51.145
			c-2.303,6.337,4.688,12.394,10.641,9.147l55.994-30.542c14.199,4.951,29.123,7.458,44.414,7.458
			c70.304,0,127.5-53.607,127.5-119.5c0-2.858-0.115-5.691-0.326-8.5h61.72l61.803,61.803c4.632,4.63,12.804,1.223,12.804-5.303
			v-56.5h48.5c39.425,0,71.5-32.075,71.5-71.5v-115c0-4.142-3.357-7.5-7.5-7.5s-7.5,3.358-7.5,7.5v115
			c0,31.154-25.346,56.5-56.5,56.5h-56c-4.143,0-7.5,3.358-7.5,7.5v45.894l-51.196-51.197c-1.407-1.407-3.314-2.197-5.304-2.197
			h-66.982c-11.204-52.447-59.152-92.598-117.518-95.788V79.505c0-31.154,25.346-56.5,56.5-56.5h248c31.154,0,56.5,25.346,56.5,56.5
			v49C496,132.647,499.357,136.005,503.5,136.005z M240,359.505c0,57.622-50.468,104.5-112.5,104.5
			c-14.651,0-28.911-2.583-42.382-7.678c-2.045-0.773-4.326-0.616-6.245,0.431l-41.543,22.66l13.499-37.121
			c1.04-2.86,0.248-6.065-2.004-8.112C27.013,414.353,15,387.831,15,359.505c0-57.622,50.468-104.5,112.5-104.5
			S240,301.884,240,359.505z"/>
		<path d="M415,135.505c0-52.659-42.841-95.5-95.5-95.5s-95.5,42.841-95.5,95.5c0,34.502,18.274,65.841,48,82.869v21.631h-8.5
			c-4.143,0-7.5,3.358-7.5,7.5v40c0,17.369,14.131,31.5,31.5,31.5h64c17.369,0,31.5-14.131,31.5-31.5v-40c0-4.142-3.357-7.5-7.5-7.5
			H367v-21.631C396.726,201.346,415,170.008,415,135.505z M351.5,304.005h-64c-9.098,0-16.5-7.402-16.5-16.5v-0.5h97v0.5
			C368,296.603,360.598,304.005,351.5,304.005z M368,272.005h-97v-17h97V272.005z M326.975,240.005
			c0.011-0.166,0.025-0.331,0.025-0.5v-80.5h40.5c4.143,0,7.5-3.358,7.5-7.5v-16c0-4.142-3.357-7.5-7.5-7.5s-7.5,3.358-7.5,7.5v8.5
			h-40.5H279v-8.5c0-4.142-3.357-7.5-7.5-7.5s-7.5,3.358-7.5,7.5v16c0,4.142,3.357,7.5,7.5,7.5H312v80.5
			c0,0.169,0.014,0.334,0.025,0.5H287v-26.096c0-2.817-1.578-5.396-4.086-6.678C255.827,193.384,239,165.9,239,135.505
			c0-44.388,36.112-80.5,80.5-80.5s80.5,36.112,80.5,80.5c0,30.395-16.827,57.879-43.914,71.726
			c-2.508,1.282-4.086,3.861-4.086,6.678v26.096H326.975z"/>
		<path d="M120,279.505v16.674c-17.938,1.764-32,16.932-32,35.326c0,19.575,15.925,35.5,35.5,35.5h8c11.304,0,20.5,9.196,20.5,20.5
			s-9.196,20.5-20.5,20.5h-12c-9.098,0-16.5-7.402-16.5-16.5c0-4.142-3.357-7.5-7.5-7.5s-7.5,3.358-7.5,7.5
			c0,17.369,14.131,31.5,31.5,31.5h0.5v16.5c0,4.142,3.357,7.5,7.5,7.5s7.5-3.358,7.5-7.5v-16.674c17.938-1.764,32-16.932,32-35.326
			c0-19.575-15.925-35.5-35.5-35.5h-8c-11.304,0-20.5-9.196-20.5-20.5s9.196-20.5,20.5-20.5h12c9.098,0,16.5,7.402,16.5,16.5v8
			c0,4.142,3.357,7.5,7.5,7.5s7.5-3.358,7.5-7.5v-8c0-17.369-14.131-31.5-31.5-31.5H135v-16.5c0-4.142-3.357-7.5-7.5-7.5
			S120,275.363,120,279.505z"/>
	</g>
</g>
<g>
</g>
<g>
</g>
<g>
</g>
<g>
</g>
<g>
</g>
<g>
</g>
<g>
</g>
<g>
</g>
<g>
</g>
<g>
</g>
<g>
</g>
<g>
</g>
<g>
</g>
<g>
</g>
<g>
</g>
</svg>
