<svg width="800" height="800" viewBox="0 0 24 24" fill="none" xmlns="http://www.w3.org/2000/svg">
  <path d="M22.477 21.75a1.5 1.5 0 0 1-1.5 1.5H3.023a1.5 1.5 0 0 1-1.5-1.5V2.25a1.5 1.5 0 0 1 1.5-1.5h15a1.5 1.5 0 0 1 1.047.426l2.955 2.883a1.5 1.5 0 0 1 .452 1.074V21.75Z" stroke="#71717A" stroke-width="1.5" stroke-linecap="round" stroke-linejoin="round"/>
  <path d="M8.273 9.75a2.25 2.25 0 1 0 0-4.5 2.25 2.25 0 0 0 0 4.5ZM19 19l-4.112-6.688a1.01 1.01 0 0 0-1.671-.019l-2.691 3.845L8.858 14.8a1.012 1.012 0 0 0-1.474.229L5 19" stroke="#71717A" stroke-width="1.5" stroke-linecap="round" stroke-linejoin="round"/>
</svg>
