<svg width="779" height="520" viewBox="0 0 779 520" fill="none" xmlns="http://www.w3.org/2000/svg"><g clip-path="url(#a)"><path d="M813.686 455.67H-40.686v.348h854.372v-.348Zm-314.972 9.477h-43.505v.348h43.505v-.348Zm238.83 7.529H634.456v.348h103.088v-.348Zm-291.597-7.362H339.441v.348h106.506v-.348Zm-175.573 10.409h-22.282v.348h22.282v-.348Zm123.115 0H292.023v.348h101.466v-.348Zm-278.833-5.872H48.955v.348h65.701v-.348Zm249.647-76.244H34.362c-5.383 0-9.757-3.563-9.757-7.946V7.946C24.605 3.562 28.98 0 34.362 0H364.32c5.383 0 9.757 3.562 9.757 7.946V385.66c-.017 4.383-4.391 7.946-9.774 7.946ZM34.362.347c-5.143 0-9.33 3.41-9.33 7.599V385.66c0 4.188 4.187 7.598 9.33 7.598H364.32c5.144 0 9.33-3.41 9.33-7.598V7.946c0-4.189-4.186-7.598-9.33-7.598H34.362Zm699.543 393.26H403.946c-5.382 0-9.757-3.563-9.757-7.946V7.946c0-4.384 4.375-7.946 9.757-7.946h329.959c5.382 0 9.757 3.562 9.757 7.946V385.66c0 4.383-4.375 7.946-9.757 7.946ZM403.946.347c-5.143 0-9.329 3.41-9.329 7.599V385.66c0 4.188 4.186 7.598 9.329 7.598h329.959c5.143 0 9.329-3.41 9.329-7.598V7.946c0-4.189-4.186-7.598-9.329-7.598H403.946Z" fill="#EBEBEB"/><path d="M294.159 334.966h-113.46l-6.886-64.708h113.46l6.886 64.708Z" fill="#E6E6E6"/><path d="M300.037 334.966h-113.46l-6.887-64.708h113.461l6.886 64.708Z" fill="#F0F0F0"/><path d="m202.093 321.079-3.794-36.919h79.337l3.794 36.919h-79.337Z" fill="#fff"/><path d="M319.672 334.966h-13.311v120.692h13.311V334.966Z" fill="#E6E6E6"/><path d="M323.875 334.966h-9.245v120.692h9.245V334.966Z" fill="#F0F0F0"/><path d="M195.014 348.299H323.87v-13.318H195.014v13.318Z" fill="#F0F0F0"/><path d="M199.564 348.297h-13.311v107.374h13.311V348.297Z" fill="#E6E6E6"/><path d="M203.768 348.297h-9.245v107.374h9.245V348.297Z" fill="#F0F0F0"/><path d="M104.814 348.297H91.503v107.374h13.311V348.297Z" fill="#E6E6E6"/><path d="M109.017 348.297h-9.244v107.374h9.244V348.297Z" fill="#F0F0F0"/><path d="M235.43 348.297h-13.311v107.374h13.311V348.297Z" fill="#E6E6E6"/><path d="M239.617 348.297h-9.244v107.374h9.244V348.297Z" fill="#F0F0F0"/><path d="M195.019 334.966H91.503v13.318h103.516v-13.318Z" fill="#E6E6E6"/><path d="M581.024 34.038h-400.41v181.545h400.41V34.038Z" fill="#E0E0E0"/><path d="M603.016 34.038H182.63v181.545h420.386V34.038Z" fill="#F5F5F5"/><path d="M596.142 209.988V39.631H189.495v170.357h406.647Z" fill="#fff"/><path d="m354.154 209.989 76.774-170.356H304.225l-76.774 170.356h126.703Zm121.953 0 76.774-170.356h-95.588L380.52 209.989h95.587Z" fill="#F5F5F5"/><path d="M707.932 282.281h-34.038v173.39h34.038v-173.39Z" fill="#E6E6E6"/><path d="M698.978 455.671h8.954v-13.359h-18.335l9.381 13.359Z" fill="#FAFAFA"/><path d="M394.122 282.281h-34.039v173.39h34.039v-173.39Z" fill="#E6E6E6"/><path d="M707.933 282.281H386.296v169.786h321.637V282.281Z" fill="#FAFAFA"/><path d="M701.849 337.067H392.396v-47.953h309.453v47.953Zm-307.745-1.391H700.14v-45.171H394.104v45.171Z" fill="#E6E6E6"/><path d="M647.375 312.395H452.868c-9.039 0-17.737-5.928-23.854-16.282l-.598-1.001h243.377l-.599 1.001c-6.1 10.34-14.797 16.282-23.819 16.282Zm-216.208-15.892c5.776 9.226 13.636 14.5 21.701 14.5h194.49c8.065 0 15.925-5.26 21.718-14.5H431.167Z" fill="#E6E6E6"/><path d="M395.25 455.671h-8.954v-13.359h18.335l-9.381 13.359Z" fill="#FAFAFA"/><path d="M701.849 391.143H392.396V343.19h309.453v47.953Zm-307.745-1.391H700.14v-45.171H394.104v45.171Z" fill="#E6E6E6"/><path d="M647.375 366.471H452.868c-9.039 0-17.737-5.928-23.854-16.281l-.598-1.002h243.377l-.599 1.002c-6.1 10.353-14.797 16.281-23.819 16.281Zm-216.208-15.878c5.776 9.226 13.636 14.487 21.701 14.487h194.49c8.065 0 15.925-5.261 21.718-14.487H431.167Zm270.682 94.641H392.396v-47.953h309.453v47.953Zm-307.745-1.391H700.14v-45.171H394.104v45.171Z" fill="#E6E6E6"/><path d="M647.375 420.562H452.868c-9.039 0-17.737-5.928-23.854-16.282l-.598-1.001h243.377l-.599 1.001c-6.1 10.354-14.797 16.282-23.819 16.282Zm-216.208-15.878c5.776 9.226 13.636 14.5 21.701 14.5h194.49c8.065 0 15.925-5.26 21.718-14.5H431.167Zm-265.129-99.47v3.368h-2.648l-2.17 26.384h-32.193l-2.17-26.384h-2.649v-3.368h41.83Zm-10.594-65.501c-2.649-15.725-28.69-20.206-61.754-20.79-31.458-.543-41.54-9.616-41.54-9.616s.103 36.71 45.436 49.999c43.043 12.622 60.506-3.84 57.858-19.593Z" fill="#E6E6E6"/><path d="M139.382 275.35c.547-6.47 13.225-18.354 43.727-12.941 22.042 3.91 30.244-5.399 30.244-5.399s-2.033 26.272-35.2 34.177c-31.492 7.486-39.745-4.467-38.771-15.837Z" fill="#E6E6E6"/><path d="M146.336 315.123c.342 0 .667-.111.906-.334 2.204-2.129.41-7.222-2.102-14.277-3.212-9.046-7.211-20.317-3.827-28.486 1.914-4.62 4.272-8.683 6.561-12.622 4.785-8.238 8.92-15.363 5.468-22.794-.222-.5-.905-.737-1.52-.556-.616.181-.906.737-.684 1.238 3.093 6.68-.649 13.123-5.4 21.305-2.204 3.799-4.716 8.113-6.664 12.831-3.622 8.753.496 20.331 3.794 29.64 1.948 5.483 3.964 11.161 2.563 12.51-.427.404-.359 1.002.136 1.35.24.126.496.195.769.195Z" fill="#E6E6E6"/><path d="M386.5 518.515c182.977 0 331.309-7.053 331.309-15.753S569.477 487.01 386.5 487.01c-182.976 0-331.308 7.052-331.308 15.752 0 8.7 148.332 15.753 331.308 15.753Z" fill="#F5F5F5"/><path d="M386.432 425.96H143.79l-13.277-317.793h242.642l13.277 317.793Z" fill="#8FBACD"/><path d="M398.547 416.095H155.905L142.611 98.301h242.642l13.294 317.794Z" fill="#8FBACD"/><path d="M398.547 416.095H155.905L142.611 98.301h242.642l13.294 317.794Z" fill="#8FBACD"/><g opacity=".3" fill="#8FBACD"><path d="M398.547 416.095H155.905L142.611 98.301h242.642l13.294 317.794Z"/><path d="M398.547 416.095H155.905L142.611 98.301h242.642l13.294 317.794Z"/></g><path d="M321.321 233.389c26.486-21.939 24.565-58.453-4.289-81.557-28.855-23.103-73.718-24.047-100.204-2.108-26.485 21.939-24.565 58.453 4.29 81.556 28.854 23.104 73.717 24.048 100.203 2.109Z" fill="#266079"/><path d="M324.08 189.449c.325 7.918-1.828 15.363-5.895 21.847-8.902 14.292-27.101 24.019-48.511 24.019-21.411 0-40.429-9.727-50.528-24.019-4.613-6.484-7.381-13.929-7.723-21.847-1.06-25.341 23.29-45.88 54.406-45.88s57.192 20.539 58.251 45.88Z" fill="#fff"/><path opacity=".6" d="M318.184 211.296c-8.902 14.292-27.1 24.019-48.511 24.019-21.41 0-40.429-9.727-50.527-24.019 13.857-7.709 30.689-12.218 49.006-12.218 18.318 0 35.525 4.495 50.032 12.218Z" fill="#D9D9D9"/><path opacity=".6" d="M285.309 188.325c9.554-7.914 9.149-20.856-.905-28.906-10.054-8.05-25.95-8.16-35.504-.246-9.554 7.914-9.149 20.855.905 28.905 10.055 8.05 25.95 8.16 35.504.247Z" fill="#458CAC"/><path d="M349.796 301.011H195.018l-1.042-25.048h154.778l1.042 25.048Zm1.88 44.767H196.881l-1.043-25.048h154.795l1.043 25.048Z" fill="#fff"/><path d="m291.938 324.181-37.302 4.133c-1.538.167-2.546 1.308-2.256 2.519l4.904 20.358c.291 1.211 1.778 2.074 3.315 1.893l37.302-4.133c1.538-.167 2.546-1.294 2.256-2.519l-4.904-20.358c-.291-1.211-1.794-2.074-3.315-1.893Zm-10.714 20.609-6.75.752-.683-6.569c-1.435-.514-2.478-1.558-2.768-2.783-.479-1.99 1.179-3.84 3.674-4.105 2.494-.278 4.921 1.113 5.399 3.103.291 1.225-.205 2.436-1.333 3.229l2.461 6.373Zm7.023-21.708c-1.367.153-2.682-.598-2.939-1.684l-.478-1.99c-1.316-5.483-7.758-9.63-14.729-9.129-7.451.529-12.44 5.887-11.056 11.676l.547 2.282c.256 1.085-.632 2.087-1.999 2.226-1.367.154-2.683-.598-2.939-1.683l-.462-1.949c-1.845-7.639 4.067-14.987 13.619-16.351 10.047-1.419 19.958 4.092 21.872 12.051l.547 2.283c.273 1.113-.616 2.115-1.983 2.268Zm37.883 57.779H225.365l-.683-16.31h100.765l.683 16.31Z" fill="#8FBACD"/><path d="M277.516 288.487c.102 2.533-2.324 4.579-5.434 4.579-3.11 0-5.707-2.046-5.81-4.579-.102-2.532 2.324-4.578 5.434-4.578 3.11 0 5.707 2.046 5.81 4.578Zm-24.23 0c.102 2.533-2.324 4.579-5.434 4.579-3.11 0-5.707-2.046-5.81-4.579-.102-2.532 2.324-4.578 5.434-4.578 3.11 0 5.707 2.046 5.81 4.578Zm-24.212 0c.102 2.533-2.324 4.579-5.434 4.579-3.11 0-5.707-2.046-5.81-4.579-.102-2.532 2.324-4.578 5.434-4.578 3.11 0 5.707 2.046 5.81 4.578Zm72.655 0c.102 2.533-2.324 4.579-5.434 4.579-3.11 0-5.707-2.046-5.81-4.579-.102-2.532 2.324-4.578 5.434-4.578 3.11 0 5.707 2.046 5.81 4.578Zm24.213 0c.103 2.533-2.324 4.579-5.434 4.579-3.11 0-5.707-2.046-5.81-4.579-.102-2.532 2.324-4.578 5.434-4.578 3.11 0 5.707 2.046 5.81 4.578Z" fill="#263238"/><path d="M529.881 166.056c2.272 2.964 4.169 5.817 6.117 8.781 1.948 2.936 3.708 5.942 5.434 8.99 3.4 6.095 6.442 12.385 8.714 19.106.308.821.53 1.698.786 2.56l.376 1.295.188.64.222 1.057c.496 2.825.052 5.135-.529 7.167-1.231 4.049-3.196 7.292-5.314 10.381-4.324 6.109-9.364 11.313-15.191 16.24l-7.194-4.439c3.554-5.483 7.057-11.23 9.637-16.755 1.248-2.741 2.307-5.538 2.615-7.835.153-1.127.051-2.101-.137-2.463l-.684-1.697c-.273-.696-.529-1.392-.871-2.102-2.461-5.622-5.588-11.257-9.005-16.81-3.366-5.538-7.091-11.174-10.748-16.448l15.584-7.668Z" fill="#FFB573"/><path d="m525.319 235.831-7.843 3.396 9.022 8.599s5.639-3.103 5.878-7.834l-7.057-4.161Zm-18.404 8.697 9.655 6.248 9.91-2.95-9.022-8.6-10.543 5.302Z" fill="#FFB573"/><path d="M473.903 120.525c-.188.779-.855 1.322-1.47 1.21-.615-.097-.974-.807-.769-1.586.188-.779.854-1.322 1.47-1.211.615.112.956.821.769 1.587Z" fill="#263238"/><path d="M473.133 121.86s-3.28 4.105-6.185 5.873c1.367 1.558 4.357 1.447 4.357 1.447l1.828-7.32Z" fill="#FF5652"/><path d="m470.058 149.164.068-9.115 14.832 1.461s-.256 7.848-8.544 10.145l-6.356-2.491Zm4.272-15.698 10.44 2.449.188 5.58-14.832-1.461 4.204-6.568Z" fill="#FFB573"/><path opacity=".2" d="m484.77 135.915-10.44-2.449-2.034 3.173c.256 5.385 4.289 9.81 9.637 11.8 2.905-3.103 3.025-6.944 3.025-6.944l-.188-5.58Z" fill="#000"/><path d="M478.448 116.81a.685.685 0 0 0 .393-.126c.239-.167.239-.473.034-.654-2.136-1.878-4.733-1.544-4.836-1.53-.307.041-.513.278-.461.528.051.251.359.418.649.376.086-.014 2.119-.25 3.828 1.253a.563.563 0 0 0 .393.153Z" fill="#263238"/><path d="M500.286 134.607c-1.726 7.166-2.768 17.088 3.383 21.861 0 0-2.409 7.264-18.745 7.264-17.959 0-8.646-6.373-8.646-6.373 7.467-1.893 7.399-8.809 5.69-14.375l18.318-8.377Z" fill="#FFB573"/><path d="M507.035 161.257c1.606-1.851 1.538-7.682-.171-8.698-2.751-1.656-14.558-2.045-30.449.933 1.708 5.649-1.948 8.6-1.948 8.6l32.568-.835Z" fill="#458CAC"/><path d="M560.451 491.616c-1.214.209-2.41.264-2.991-.139-.239-.167-.495-.487-.273-1.072.12-.306.359-.542.735-.681 1.623-.627 5.348.612 5.519.654a.22.22 0 0 1 .171.208c0 .098-.051.181-.154.209-.598.237-1.811.612-3.007.821Zm-1.965-1.558c-.12.027-.24.055-.342.083a.703.703 0 0 0-.427.39c-.154.417.034.542.102.598.649.445 3.042.042 4.733-.515-1.145-.32-2.99-.737-4.066-.556Z" fill="#E03"/><path d="M563.372 490.836c-.051.014-.086 0-.137 0-1.367-.32-4.272-2.004-4.306-3.117 0-.195.086-.571.735-.752a1.809 1.809 0 0 1 1.264.084c1.607.668 2.615 3.382 2.666 3.493.034.083 0 .167-.068.236-.052.014-.103.042-.154.056Zm-3.4-3.465c-.035.014-.086.014-.12.028-.359.097-.342.236-.342.306.017.654 1.931 1.976 3.349 2.505-.359-.779-1.162-2.324-2.187-2.755-.256-.098-.478-.126-.7-.084Zm-88.274 5.886c-1.538 0-3.025-.167-3.537-.737-.171-.195-.308-.529.017-1.016.188-.265.495-.445.905-.543 2-.445 6.203 1.503 6.374 1.587a.213.213 0 0 1 .137.236c-.017.097-.103.167-.222.195-.752.139-2.222.278-3.674.278Zm-1.897-1.892c-.205 0-.393.014-.547.055-.256.056-.444.167-.564.32-.205.293-.119.432-.051.515.564.626 3.606.654 5.827.39-1.111-.459-3.264-1.28-4.665-1.28Z" fill="#E03"/><path d="M475.338 492.993c-.034 0-.085.001-.12-.013-1.452-.529-4.323-2.644-4.101-3.758.052-.264.274-.584 1.06-.654.581-.041 1.11.084 1.572.404 1.521 1.016 1.845 3.66 1.862 3.771.017.084-.034.167-.119.209-.034.028-.103.041-.154.041Zm-2.939-3.965c-.051 0-.12 0-.171.013-.513.042-.547.209-.547.265-.136.668 1.829 2.324 3.298 3.047-.154-.765-.581-2.351-1.589-3.019a1.71 1.71 0 0 0-.991-.306Z" fill="#E03"/><path d="M488.546 492.757h-12.012l-1.196-22.669h12.012l1.196 22.669Zm88.223-4.523-11.756 2.073-11.791-21.124 11.756-2.059 11.791 21.11Z" fill="#FFB573"/><path d="m563.885 489.347 13.191-2.324c.479-.083.974.111 1.179.473l4.58 8.099c.478.835-.154 1.823-1.265 2.004-4.63.751-6.92.918-12.73 1.948-3.571.626-11.636 2.227-16.557 3.103-4.819.849-6.63-2.991-4.7-3.701 8.63-3.215 12.218-6.04 14.559-8.67a2.911 2.911 0 0 1 1.743-.932Zm-87.265 2.282h13.123c.495 0 .923.278 1.025.668l2.375 8.697c.239.905-.598 1.754-1.726 1.74-4.733-.07-11.568-.292-17.531-.292-6.955 0-12.97.306-21.12.306-4.939 0-6.306-4.064-4.238-4.425 9.398-1.67 17.087-1.851 25.204-5.929.871-.445 1.845-.765 2.888-.765Z" fill="#263238"/><path d="M525.199 158.681c11.26 2.101 20.556 25.521 20.556 25.521l-22.624 14.041s-8.304-6.373-11.995-18.09c-3.879-12.274 2.546-23.629 14.063-21.472Z" fill="#E03"/><path d="M525.199 158.681c11.26 2.101 20.556 25.521 20.556 25.521l-22.624 14.041s-8.304-6.373-11.995-18.09c-3.879-12.274 2.546-23.629 14.063-21.472Z" fill="#708C95"/><path d="M465.957 186.624c-2.82 2.477-5.622 4.662-8.51 6.93a136.937 136.937 0 0 1-4.425 3.312l-2.273 1.614-.564.404c-.273.195-.615.417-.974.654-.752.459-1.572.974-3.298 1.586-.906.293-2.085.668-4.152.696a12.302 12.302 0 0 1-3.589-.515c-1.298-.389-2.563-1.071-3.417-1.767-1.794-1.461-2.324-2.741-2.683-3.604a8.71 8.71 0 0 1-.495-2.074c-.103-1.085-.034-1.809.034-2.491.085-.668.188-1.252.325-1.795.495-2.143 1.213-3.882 1.982-5.608a48.444 48.444 0 0 1 2.648-5.023c1.077-1.768 2.136-3.062 3.179-4.537 4.22-5.747 9.176-10.993 14.438-15.947 5.383-4.913 11.022-9.407 17.515-13.526l6.288 5.274c-4.425 4.815-8.766 9.977-12.781 15.057-4.016 5.121-7.724 10.339-10.936 15.655-.735 1.308-1.641 2.741-2.153 3.84a36.3 36.3 0 0 0-1.606 3.758c-.445 1.252-.803 2.56-.974 3.52a4.35 4.35 0 0 0-.052.557c0 .111.035.167.017-.125-.017-.167-.034-.404-.222-.905-.205-.487-.529-1.405-1.965-2.588a8.524 8.524 0 0 0-2.819-1.447c-1.042-.334-2.136-.432-2.871-.432-1.589.028-2.29.293-2.751.432-.837.292-.854.375-.854.348l.649-.487 2.051-1.531 4.083-3.117c2.7-2.074 5.417-4.286 7.997-6.346l13.158 10.228Z" fill="#FFB573"/><path opacity=".2" d="M515.544 175.909c6.118 4.926 8.117 13.916 8.595 21.723l-.991.626s-8.304-6.387-12.012-18.091a27.417 27.417 0 0 1-.581-2.184l4.989-2.074Z" fill="#000"/><path d="M454.013 168.493c-2.461 10.576-3.999 32.284 3.144 75.298h64.283c.444-8.044-5.758-47.244 3.759-85.109 0 0-11.021-1.795-21.513-2.213-8.219-.32-20.112-.542-27.323 0-3.007.223-5.98.585-8.612.961-6.972 1.001-12.422 5.413-13.738 11.063Z" fill="#708C95"/><path opacity=".4" d="M454.013 168.493c-2.461 10.576-3.999 32.284 3.144 75.298h64.283c.444-8.044-5.758-47.244 3.759-85.109 0 0-11.021-1.795-21.513-2.213-8.219-.32-20.112-.542-27.323 0-3.007.223-5.98.585-8.612.961-6.972 1.001-12.422 5.413-13.738 11.063Z" fill="#708C95"/><path opacity=".2" d="m463.855 184.119-11.619-2.268c-.359 5.733-.394 12.83.136 21.611 5.331-4.954 12.166-12.678 11.483-19.343Zm11.483 285.984.615 11.689h12.029l-.615-11.689h-12.029Zm89.641-2.979-11.756 2.073 6.083 10.882 11.756-2.073-6.083-10.882Z" fill="#000"/><path d="M505.992 124.128c-3.092 9.38-4.306 15.002-11.414 18.898-10.697 5.872-24.008-.863-24.435-10.812-.376-8.948 4.733-22.794 17.104-24.687 12.184-1.851 21.838 7.222 18.745 16.601Z" fill="#FFB573"/><path d="M479.029 124.491c-.564-1.252-3.23-10.951-.735-13.47s30.945-.71 35.149 2.658c6.971 5.594 2.136 10.59-5.502 17.019-5.742 4.842-5.964 10.297-8.869 11.104-5.075 1.406-12.952.084-14.541-4.327-1.572-4.412-5.502-12.984-5.502-12.984Z" fill="#263238"/><path d="M509.991 102.657c-10.047-3.493-28.912.375-39.079-1.628-.359 4.3 2.819 11.174 13.004 13.025 0 0 14.456 2.296 25.631 1.92 11.175-.362 8.988-10.353.444-13.317Z" fill="#263238"/><path d="M511.563 113.984s6.22.571 10.628-1.656c1.897 3.688-8.441 4.704-10.628 1.656Z" fill="#263238"/><path d="M484.496 124.88c-.188 2.547-1.64 4.926-3.383 6.499-2.615 2.352-5.349.89-5.827-1.976-.41-2.575.444-6.902 3.64-8.197 3.178-1.294 5.792.766 5.57 3.674Z" fill="#FFB573"/><path d="M479.951 243.79s13.636 74.797 21.12 102.823c8.202 30.685 52.168 132.214 52.168 132.214l21.514-3.799s-30.741-82.743-37.627-125.645c-5.28-32.953-15.703-105.607-15.703-105.607h-41.472v.014Z" fill="#C0CFD3"/><path d="M548.096 472.983c-.085.014 4.016 6.332 4.016 6.332l24.213-4.273-2.033-5.928-26.196 3.869Z" fill="#263238"/><path opacity=".3" d="M488.58 270.439c15.772 2.519 14.097 50.417 12.201 75.048-4.546-17.409-11.21-50.918-15.755-74.7 1.042-.431 2.221-.556 3.554-.348Z" fill="#708C95"/><path d="M457.14 243.791s-1.658 73.182-.342 103.032c1.367 31.046 14.678 132.7 14.678 132.7h20.368s.752-99.845 1.658-130.335c.991-33.244 5.912-105.397 5.912-105.397H457.14Z" fill="#C0CFD3"/><path d="M467.563 472.913c-.086 0 1.144 6.888 1.144 6.888h24.76l.667-6.137-26.571-.751Z" fill="#263238"/><path d="M479.2 171.707c5.758 12.65-28.092 27.553-28.092 27.553l-14.661-15.349s9.774-15.85 21.786-22.989c14.815-8.836 16.575 1.155 20.967 10.785Z" fill="#708C95"/><path opacity=".4" d="M479.2 171.707c5.758 12.65-28.092 27.553-28.092 27.553l-14.661-15.349s9.774-15.85 21.786-22.989c14.815-8.836 16.575 1.155 20.967 10.785Z" fill="#708C95"/><path d="M611.832 75.673c34.058 0 61.668-14.33 61.668-32.006 0-17.676-27.61-32.006-61.668-32.006-34.059 0-61.669 14.33-61.669 32.006 0 17.677 27.61 32.006 61.669 32.006Z" fill="#458CAC"/><path d="M589.584 59.782c-3.417 0-6.766-.835-9.671-2.45-3.896-2.156-6.476-5.44-7.296-9.225-1.538-7.25 4.374-14.459 13.174-16.1 7.245-1.337 14.61 1.182 18.489 6.29l39.591-6.652c3.213-.543 6.459 1.015 7.262 3.478.428 1.309.171 2.658-.7 3.8-.872 1.14-2.239 1.92-3.862 2.198l-1.042.181c-.308.056-.564.209-.718.431a.733.733 0 0 0-.068.724l.7 1.475c.479 1.002.034 2.13-1.059 2.672-.837.431-1.418 1.169-1.538 1.962-.137.988-.94 1.74-2.051 1.934l-.82.14c-1.11.18-2.221-.251-2.819-1.114-.718-1.002-2.136-1.517-3.537-1.28-1.401.236-2.461 1.169-2.632 2.324-.136.988-.957 1.74-2.067 1.934l-.803.14c-1.094.18-2.222-.251-2.82-1.114-.495-.696-1.384-1.197-2.375-1.308-1.264-.153-2.221-1.044-2.273-2.115l-.085-1.587a.805.805 0 0 0-.41-.64 1.227 1.227 0 0 0-.872-.167l-12.61 2.115c-1.077 5.817-6.459 10.479-13.585 11.676-1.162.18-2.341.278-3.503.278Zm-3.417-26.426c-7.929 1.461-13.243 7.974-11.859 14.5.718 3.41 3.059 6.374 6.562 8.322 3.503 1.948 7.74 2.644 11.893 1.934 6.612-1.113 11.551-5.524 12.32-10.98l.068-.5 13.807-2.324a3.277 3.277 0 0 1 2.272.431c.65.404 1.026 1.016 1.06 1.684l.085 1.586c.017.404.376.738.82.794 1.521.18 2.837.904 3.606 1.99.188.264.547.514 1.008.445l.803-.14a.832.832 0 0 0 .701-.737c.256-1.753 1.862-3.159 3.981-3.52 2.119-.362 4.272.43 5.348 1.948.188.264.547.529 1.009.445l.82-.14a.83.83 0 0 0 .7-.723c.171-1.238 1.026-2.324 2.324-2.992.376-.194.53-.626.359-.988l-.7-1.475a1.885 1.885 0 0 1 .153-1.892c.393-.585 1.077-.988 1.863-1.127l1.042-.181c1.162-.195 2.136-.752 2.751-1.559.615-.821.803-1.781.496-2.713-.564-1.754-2.922-2.853-5.263-2.464l-40.788 6.86-.307-.43c-3.401-4.857-10.202-7.292-16.934-6.054Zm3.434 21.277c-2.118 0-4.186-.5-5.997-1.475-2.444-1.308-4.118-3.312-4.699-5.65-.598-2.337-.034-4.717 1.572-6.707 1.606-1.99 4.067-3.34 6.937-3.827 2.871-.487 5.793-.028 8.236 1.28 2.444 1.309 4.101 3.312 4.699 5.65.599 2.338.035 4.704-1.572 6.694-1.606 1.99-4.066 3.353-6.937 3.827a11.2 11.2 0 0 1-2.239.208Zm.052-16.434c-.632 0-1.265.056-1.897.153-2.409.403-4.494 1.558-5.844 3.228-1.35 1.684-1.828 3.688-1.333 5.65.496 1.962 1.914 3.66 3.965 4.76 2.067 1.099 4.528 1.488 6.937 1.085 2.427-.404 4.494-1.559 5.844-3.229 1.35-1.683 1.828-3.687 1.333-5.65-.496-1.976-1.914-3.66-3.964-4.773-1.521-.807-3.264-1.224-5.041-1.224Z" fill="#fff"/><path opacity=".6" d="M561.646 94.446c11.192 0 20.266-4.71 20.266-10.52s-9.074-10.521-20.266-10.521c-11.192 0-20.266 4.71-20.266 10.52s9.074 10.52 20.266 10.52Z" fill="#458CAC"/><path opacity=".3" d="M529.402 98.746c4.596 0 8.322-1.932 8.322-4.314 0-2.383-3.726-4.314-8.322-4.314-4.596 0-8.322 1.931-8.322 4.314 0 2.382 3.726 4.314 8.322 4.314Z" fill="#458CAC"/></g><defs><clipPath id="a"><path fill="#fff" d="M-6 0h785v520H-6z"/></clipPath></defs></svg>