<svg width="817" height="520" viewBox="0 0 817 520" fill="none" xmlns="http://www.w3.org/2000/svg"><g clip-path="url(#a)"><path d="M578.86 512.375c-10.46-9.409-16.814-24.273-15.148-38.743 1.667-14.471 11.987-27.773 25.373-30.846 13.386-3.073 28.646 5.433 32.712 19.354 2.237-26.839 4.816-54.803 18.219-77.659 12.137-20.695 33.158-35.504 55.94-38.153 22.782-2.649 46.769 7.357 60.977 26.5 14.209 19.143 17.688 46.973 7.736 68.95-7.33 16.191-20.836 28.24-34.987 38.042-45.725 31.408-100.567 44.181-154.435 35.968l3.613-3.413Z" fill="#F2F2F2"/><path d="M781.059 355.984c-18.798 16.3-36.043 34.531-51.486 54.428-24.168 31.032-43.725 65.825-57.99 103.166-1.044 2.724 3.111 3.91 4.144 1.216 23.339-60.687 60.599-114.176 108.371-155.575 2.145-1.86-.911-5.079-3.039-3.235Z" fill="#fff"/><path d="M263.005 511.563c14.367-12.924 23.093-33.339 20.805-53.214-2.288-19.875-16.463-38.146-34.849-42.366-18.386-4.221-39.345 7.462-44.93 26.583-3.073-36.864-6.614-75.272-25.024-106.665-16.67-28.425-45.543-48.765-76.834-52.403-31.291-3.639-64.237 10.104-83.752 36.397s-24.293 64.517-10.625 94.704c10.068 22.237 28.618 38.786 48.054 52.25 62.007 42.954 138.927 60.868 212.117 49.401" fill="#F2F2F2"/><path d="M49.364 294.364c25.82 22.388 49.506 47.428 70.717 74.756 21.214 27.301 39.891 56.728 55.768 87.867a562.143 562.143 0 0 1 23.881 53.832c1.434 3.742-4.273 5.371-5.691 1.671-12.459-32.427-27.874-63.477-46.023-92.703-18.061-29.12-38.733-56.306-61.725-81.176a518.782 518.782 0 0 0-41.1-39.805c-2.946-2.554 1.251-6.976 4.173-4.442Z" fill="#fff"/><path d="M586.456 518.862H243.691v-374.4C243.691 64.805 304.565 0 379.388 0h71.371c74.823 0 135.697 64.805 135.697 144.462v374.4Z" fill="#F2F2F2"/><path d="M515.086 518.862H243.691v-374.4c-.075-30.523 9.004-60.274 25.915-84.922a132.16 132.16 0 0 1 1.886-2.68c8.18-11.422 17.914-21.48 28.881-29.843.619-.48 1.241-.952 1.873-1.423 9.177-6.761 19.104-12.288 29.555-16.455.62-.25 1.252-.501 1.884-.742a128.428 128.428 0 0 1 29.213-7.334c.618-.09 1.252-.16 1.886-.23a129.094 129.094 0 0 1 29.211 0c.632.07 1.266.14 1.891.231a128.41 128.41 0 0 1 29.206 7.333c.632.24 1.264.492 1.886.743 10.322 4.114 20.133 9.558 29.212 16.211.63.462 1.262.933 1.884 1.405a139.775 139.775 0 0 1 17.264 15.56 141.95 141.95 0 0 1 11.949 14.546c.639.88 1.261 1.773 1.883 2.676 16.911 24.649 25.99 54.4 25.916 84.924v374.4Z" fill="#CCC"/><path d="M493.017 351.406c8.298 0 15.026-7.161 15.026-15.995 0-8.835-6.728-15.996-15.026-15.996s-15.025 7.161-15.025 15.996c0 8.834 6.727 15.995 15.025 15.995Z" fill="#458CAC"/><path d="M558.376 507.648h-11.513l-5.478-47.276 16.993.001-.002 47.275Z" fill="#FFB8B8"/><path d="M538.639 504.145h22.204v14.883h-36.184c0-1.954.362-3.889 1.065-5.695a14.968 14.968 0 0 1 3.03-4.828 13.951 13.951 0 0 1 4.536-3.227 13.245 13.245 0 0 1 5.349-1.133Z" fill="#2F2E41"/><path d="M615.66 507.648h-11.513l-5.478-47.276 16.993.001-.002 47.275Z" fill="#FFB8B8"/><path d="M595.923 504.145h22.204v14.883h-36.184c0-1.954.362-3.889 1.064-5.695a14.988 14.988 0 0 1 3.031-4.828 13.958 13.958 0 0 1 4.535-3.227 13.246 13.246 0 0 1 5.35-1.133Z" fill="#2F2E41"/><path d="M500.622 338.579a11.128 11.128 0 0 1-1.613-4.326 11.393 11.393 0 0 1 .257-4.646 10.98 10.98 0 0 1 2.08-4.094 10.158 10.158 0 0 1 3.511-2.772l39.137-114.836 19.258 11.188-44.686 109.741c.86 2.48.835 5.21-.069 7.672-.904 2.462-2.625 4.485-4.837 5.686a9.59 9.59 0 0 1-7.164.831c-2.403-.666-4.493-2.247-5.874-4.444Zm109.157 21.579a10.353 10.353 0 0 1-3.231-3.135 11.13 11.13 0 0 1-1.683-4.296 11.428 11.428 0 0 1 .183-4.651 11.006 11.006 0 0 1 2.014-4.131l-12.124-121.477 21.916 1.066 5.039 119.489c1.794 1.827 2.896 4.292 3.097 6.927.202 2.634-.512 5.256-2.005 7.368-1.493 2.112-3.662 3.568-6.096 4.091-2.434.524-4.964.078-7.11-1.251Zm-34.962-173.524c12.738 0 23.064-10.994 23.064-24.555s-10.326-24.554-23.064-24.554c-12.739 0-23.065 10.993-23.065 24.554 0 13.561 10.326 24.555 23.065 24.555Z" fill="#FFB8B8"/><path d="M609.632 332.53h-69.536l.084-.576c.125-.861 12.392-86.416 3.344-114.405a12.52 12.52 0 0 1 .225-8.454c1.052-2.691 3.002-4.873 5.475-6.126 12.933-6.484 37.758-14.467 58.712 4.908 3.083 2.898 5.491 6.52 7.032 10.579a29.88 29.88 0 0 1 1.851 12.811l-7.187 101.263Z" fill="#458CAC"/><path d="m553.451 258.182-31.306-6.762 14.675-37.02c.878-3.585 3.056-6.654 6.056-8.532 3.001-1.878 6.579-2.413 9.949-1.486 3.37.926 6.257 3.237 8.029 6.427 1.771 3.19 2.282 6.997 1.42 10.587l-8.823 36.786Zm40.095 12.554-1.882-45.929c-1.427-8.634 3.216-16.796 10.356-18.13 7.142-1.329 14.116 4.659 15.549 13.356l7.074 42.916-31.097 7.787Z" fill="#458CAC"/><path d="M607.318 327.031c11.189 45.365 12.41 103.042 9.391 165.956l-15.025-1.999-27.233-119.968-15.026 121.967-16.903-.999c-5.05-66.013-9.967-122.683-1.878-159.958l66.674-4.999Zm-17.304-145.975c-4.303 4.879-12.294 2.26-12.854-4.406a8.603 8.603 0 0 1 .009-1.556c.29-2.952 1.892-5.633 1.508-8.751a4.76 4.76 0 0 0-.789-2.148c-3.429-4.888-11.477 2.186-14.713-2.239-1.985-2.713.348-6.985-1.175-10.018-2.01-4.002-7.962-2.028-11.695-4.22-4.153-2.439-3.905-9.222-1.171-13.349 3.334-5.032 9.18-7.717 14.953-8.104 5.773-.387 11.507 1.274 16.897 3.51 6.123 2.541 12.196 6.052 15.965 11.785 4.582 6.971 5.023 16.343 2.731 24.495-1.394 4.959-6.152 11.016-9.666 15.001Z" fill="#2F2E41"/><path d="M768.964 519.862H95.929c-.287-.002-.562-.16-.765-.441-.203-.281-.317-.662-.317-1.059 0-.397.114-.778.317-1.059.203-.281.478-.44.766-.441h673.034c.287.001.562.16.765.441.203.281.317.662.317 1.059 0 .397-.114.778-.317 1.059-.203.281-.478.439-.765.441Z" fill="#3F3D56"/><path d="M440.429 410.391H318.348c-1.607.009-3.153-.661-4.297-1.864-1.145-1.202-1.794-2.838-1.807-4.55V113.885c.013-1.712.662-3.348 1.807-4.55 1.144-1.203 2.69-1.873 4.297-1.864h122.081c1.608-.009 3.153.661 4.297 1.864 1.145 1.202 1.794 2.838 1.807 4.55v290.092c-.013 1.712-.662 3.348-1.807 4.55-1.144 1.203-2.689 1.873-4.297 1.864Z" fill="#fff"/><path d="M446.533 201.336H312.244v1.999h134.289v-1.999Zm.469 114.08H312.714v1.999h134.288v-1.999Z" fill="#CCC"/><path d="M356.381 107.471h-1.878V411.39h1.878V107.471Zm46.954 0h-1.878V411.39h1.878V107.471Z" fill="#CCC"/><path d="M214.463 186.701c40.13 0 72.661-34.633 72.661-77.355s-32.531-77.355-72.661-77.355-72.662 34.633-72.662 77.355 32.532 77.355 72.662 77.355Z" fill="#458CAC"/><path d="M244.565 143.051H184.36a4.04 4.04 0 0 1-2.935-1.296 4.577 4.577 0 0 1-1.217-3.125V99.953a4.575 4.575 0 0 1 1.217-3.124 4.034 4.034 0 0 1 2.935-1.296h60.205a4.033 4.033 0 0 1 2.935 1.296 4.575 4.575 0 0 1 1.217 3.124v38.677a4.572 4.572 0 0 1-1.217 3.125 4.038 4.038 0 0 1-2.935 1.296ZM184.36 99.953v38.677h60.208l-.003-38.677H184.36Z" fill="#fff"/><path d="M233.147 99.953h-37.369V82.272c0-12.806 7.858-22.101 18.685-22.101 10.826 0 18.684 9.295 18.684 22.101v17.681Zm-33.217-4.42h29.065V82.272c0-10.41-5.976-17.681-14.532-17.681-8.557 0-14.533 7.27-14.533 17.681v13.26Zm14.533 27.074c2.293 0 4.152-1.979 4.152-4.42 0-2.442-1.859-4.421-4.152-4.421s-4.152 1.979-4.152 4.421c0 2.441 1.859 4.42 4.152 4.42Z" fill="#fff"/></g><defs><clipPath id="a"><path fill="#fff" d="M0 0h817v520H0z"/></clipPath></defs></svg>