<svg width="40" height="40" viewBox="0 0 40 40" fill="none" xmlns="http://www.w3.org/2000/svg">
<g clip-path="url(#clip0_60_363)">
<rect width="40" height="40" rx="10" fill="url(#paint0_linear_60_363)"/>
<path d="M25 28.9999C23.886 28.9999 22.941 28.6119 22.165 27.8359C21.3883 27.0586 21 26.1132 21 24.9999C21 23.8866 21.3883 22.9416 22.165 22.1649C22.9417 21.3882 23.8867 20.9999 25 20.9999C26.1133 20.9999 27.0587 21.3882 27.836 22.1649C28.6133 22.9416 29.0013 23.8866 29 24.9999C28.9987 26.1132 28.6107 27.0586 27.836 27.8359C27.0613 28.6132 26.116 29.0012 25 28.9999ZM20 28.9609C17.9907 28.3649 16.3217 27.1482 14.993 25.3109C13.6643 23.4736 13 21.4032 13 19.0999V13.6919L20 11.0769L27 13.6919V19.3479C26.72 19.2339 26.3993 19.1472 26.038 19.0879C25.6767 19.0286 25.3307 18.9992 25 18.9999C23.336 18.9999 21.92 19.5839 20.752 20.7519C19.584 21.9199 19 23.3359 19 24.9999C19 25.6866 19.1157 26.3569 19.347 27.0109C19.5783 27.6649 19.9237 28.2682 20.383 28.8209L20.191 28.8909L20 28.9609ZM25 24.9999C25.4167 24.9999 25.771 24.8542 26.063 24.5629C26.355 24.2716 26.5007 23.9172 26.5 23.4999C26.4993 23.0826 26.3537 22.7286 26.063 22.4379C25.7723 22.1472 25.418 22.0012 25 21.9999C24.582 21.9986 24.228 22.1446 23.938 22.4379C23.648 22.7312 23.502 23.0852 23.5 23.4999C23.498 23.9146 23.644 24.2689 23.938 24.5629C24.232 24.8569 24.586 25.0026 25 24.9999ZM25 27.9999C25.5293 27.9999 26.0077 27.8822 26.435 27.6469C26.8617 27.4116 27.215 27.0939 27.495 26.6939C27.115 26.4646 26.7167 26.2916 26.3 26.1749C25.8833 26.0582 25.45 25.9999 25 25.9999C24.55 25.9999 24.1167 26.0582 23.7 26.1749C23.2833 26.2916 22.8853 26.4649 22.506 26.6949C22.7853 27.0949 23.1387 27.4122 23.566 27.6469C23.992 27.8822 24.47 27.9999 25 27.9999Z" fill="white"/>
</g>
<defs>
<linearGradient id="paint0_linear_60_363" x1="20" y1="0" x2="20" y2="40" gradientUnits="userSpaceOnUse">
<stop stop-color="#FF6868"/>
<stop offset="1" stop-color="#FF0101"/>
</linearGradient>
<clipPath id="clip0_60_363">
<rect width="40" height="40" fill="white"/>
</clipPath>
</defs>
</svg>
