<svg width="40" height="40" viewBox="0 0 40 40" fill="none" xmlns="http://www.w3.org/2000/svg">
    <g clip-path="url(#clip0_58_714)">
        <rect width="40" height="40" rx="10" fill="url(#paint0_linear_58_714)"/>
        <path fill-rule="evenodd" clip-rule="evenodd"
              d="M20.0194 11C17.7609 11 15.7034 11.746 14.4859 12.3555C14.3759 12.4105 14.2732 12.4642 14.1779 12.5165C13.9889 12.6195 13.8279 12.7155 13.6999 12.8L15.0849 14.839L15.7369 15.0985C18.2849 16.384 21.7019 16.384 24.2504 15.0985L24.9904 14.7145L26.2999 12.8C26.0283 12.6236 25.7463 12.4638 25.4554 12.3215C24.2439 11.7185 22.2354 11 20.0199 11M16.7989 13.308C16.3085 13.2157 15.8242 13.0942 15.3484 12.944C16.4889 12.4375 18.1884 11.9 20.0199 11.9C21.2884 11.9 22.4879 12.158 23.4799 12.485C22.3174 12.6485 21.0769 12.926 19.8949 13.2675C18.9649 13.5365 17.8779 13.5075 16.7989 13.308ZM24.7789 15.84L24.6559 15.902C21.8529 17.316 18.1349 17.316 15.3319 15.902L15.2154 15.843C11.0039 20.4635 7.78887 28.9985 20.0194 28.9985C32.2499 28.9985 28.9569 20.305 24.7789 15.84ZM19.4999 20C19.2347 20 18.9803 20.1054 18.7928 20.2929C18.6052 20.4804 18.4999 20.7348 18.4999 21C18.4999 21.2652 18.6052 21.5196 18.7928 21.7071C18.9803 21.8946 19.2347 22 19.4999 22V20ZM20.4999 19V18.5H19.4999V19C18.9694 19 18.4607 19.2107 18.0857 19.5858C17.7106 19.9609 17.4999 20.4696 17.4999 21C17.4999 21.5304 17.7106 22.0391 18.0857 22.4142C18.4607 22.7893 18.9694 23 19.4999 23V25C19.0649 25 18.6944 24.7225 18.5564 24.3335C18.5359 24.2699 18.5029 24.211 18.4592 24.1603C18.4156 24.1097 18.3623 24.0683 18.3024 24.0386C18.2424 24.0089 18.1772 23.9916 18.1105 23.9875C18.0437 23.9835 17.9769 23.9929 17.9138 24.0152C17.8508 24.0375 17.7929 24.0721 17.7435 24.1172C17.6941 24.1622 17.6542 24.2167 17.6262 24.2775C17.5983 24.3382 17.5828 24.4039 17.5806 24.4707C17.5785 24.5376 17.5898 24.6041 17.6139 24.6665C17.7517 25.0565 18.0071 25.3942 18.3449 25.633C18.6827 25.8719 19.0862 26.0001 19.4999 26V26.5H20.4999V26C21.0303 26 21.539 25.7893 21.9141 25.4142C22.2892 25.0391 22.4999 24.5304 22.4999 24C22.4999 23.4696 22.2892 22.9609 21.9141 22.5858C21.539 22.2107 21.0303 22 20.4999 22V20C20.9349 20 21.3054 20.2775 21.4434 20.6665C21.4638 20.7301 21.4969 20.789 21.5405 20.8397C21.5841 20.8903 21.6375 20.9317 21.6974 20.9614C21.7573 20.9911 21.8225 21.0084 21.8893 21.0125C21.956 21.0165 22.0229 21.0071 22.0859 20.9848C22.1489 20.9625 22.2069 20.9279 22.2563 20.8828C22.3057 20.8378 22.3455 20.7833 22.3735 20.7225C22.4015 20.6618 22.417 20.5961 22.4191 20.5293C22.4212 20.4624 22.4099 20.3959 22.3859 20.3335C22.248 19.9435 21.9926 19.6058 21.6548 19.367C21.3171 19.1281 20.9135 18.9999 20.4999 19ZM20.4999 23V25C20.7651 25 21.0194 24.8946 21.207 24.7071C21.3945 24.5196 21.4999 24.2652 21.4999 24C21.4999 23.7348 21.3945 23.4804 21.207 23.2929C21.0194 23.1054 20.7651 23 20.4999 23Z"
              fill="white"/>
    </g>
    <defs>
        <linearGradient id="paint0_linear_58_714" x1="34.5" y1="-5.96046e-08" x2="20" y2="40"
                        gradientUnits="userSpaceOnUse">
            <stop stop-color="#67FFD4"/>
            <stop offset="1" stop-color="#23C4B4"/>
        </linearGradient>
        <clipPath id="clip0_58_714">
            <rect width="40" height="40" fill="white"/>
        </clipPath>
    </defs>
</svg>
