<svg width="40" height="40" viewBox="0 0 40 40" fill="none" xmlns="http://www.w3.org/2000/svg">
    <g clip-path="url(#clip0_58_682)">
        <rect width="40" height="40" rx="10" fill="url(#paint0_linear_58_682)"/>
        <path d="M21.1249 9.125C21.1249 8.50156 20.6233 8 19.9999 8C19.3765 8 18.8749 8.50156 18.8749 9.125V12.875C18.8749 13.4984 19.3765 14 19.9999 14C20.6233 14 21.1249 13.4984 21.1249 12.875V9.125ZM16.7093 18.5H23.2858C23.6046 18.5 23.8858 18.7016 23.9937 18.9969L24.889 21.5H15.1108L16.0062 18.9969C16.114 18.6969 16.3952 18.5 16.714 18.5H16.7093ZM13.1796 17.9891L11.853 21.7062C10.9108 22.1047 10.2499 23.0375 10.2499 24.125V30.5C10.2499 31.3297 10.9202 32 11.7499 32H12.4999C13.3296 32 13.9999 31.3297 13.9999 30.5V29H25.9999V30.5C25.9999 31.3297 26.6702 32 27.4999 32H28.2499C29.0796 32 29.7499 31.3297 29.7499 30.5V24.125C29.7499 23.0375 29.089 22.1047 28.1468 21.7062L26.8202 17.9891C26.2858 16.4984 24.8749 15.5 23.2905 15.5H16.714C15.1296 15.5 13.714 16.4984 13.1843 17.9891H13.1796ZM13.9999 24.125C14.2983 24.125 14.5844 24.2435 14.7954 24.4545C15.0064 24.6655 15.1249 24.9516 15.1249 25.25C15.1249 25.5484 15.0064 25.8345 14.7954 26.0455C14.5844 26.2565 14.2983 26.375 13.9999 26.375C13.7015 26.375 13.4154 26.2565 13.2044 26.0455C12.9934 25.8345 12.8749 25.5484 12.8749 25.25C12.8749 24.9516 12.9934 24.6655 13.2044 24.4545C13.4154 24.2435 13.7015 24.125 13.9999 24.125ZM24.8749 25.25C24.8749 24.9516 24.9934 24.6655 25.2044 24.4545C25.4154 24.2435 25.7015 24.125 25.9999 24.125C26.2983 24.125 26.5844 24.2435 26.7954 24.4545C27.0064 24.6655 27.1249 24.9516 27.1249 25.25C27.1249 25.5484 27.0064 25.8345 26.7954 26.0455C26.5844 26.2565 26.2983 26.375 25.9999 26.375C25.7015 26.375 25.4154 26.2565 25.2044 26.0455C24.9934 25.8345 24.8749 25.5484 24.8749 25.25ZM9.82803 9.82812C9.3874 10.2687 9.3874 10.9813 9.82803 11.4172L12.078 13.6672C12.5187 14.1078 13.2312 14.1078 13.6671 13.6672C14.103 13.2266 14.1077 12.5141 13.6671 12.0781L11.4218 9.82812C10.9812 9.3875 10.2687 9.3875 9.83271 9.82812H9.82803ZM28.578 9.82812L26.328 12.0781C25.8874 12.5187 25.8874 13.2313 26.328 13.6672C26.7687 14.1031 27.4812 14.1078 27.9171 13.6672L30.1671 11.4172C30.6077 10.9766 30.6077 10.2641 30.1671 9.82812C29.7265 9.39219 29.014 9.3875 28.578 9.82812Z"
              fill="white"/>
    </g>
    <defs>
        <linearGradient id="paint0_linear_58_682" x1="20" y1="0" x2="20" y2="40" gradientUnits="userSpaceOnUse">
            <stop stop-color="#C982FB"/>
            <stop offset="1" stop-color="#9A1CBD"/>
        </linearGradient>
        <clipPath id="clip0_58_682">
            <rect width="40" height="40" fill="white"/>
        </clipPath>
    </defs>
</svg>
