<svg width="40" height="40" viewBox="0 0 40 40" fill="none" xmlns="http://www.w3.org/2000/svg">
    <g clip-path="url(#clip0_58_666)">
        <rect width="40" height="40" rx="10" fill="url(#paint0_linear_58_666)"/>
        <path d="M20 19.9929C19.8011 19.9929 19.6104 20.0719 19.4697 20.2126C19.3291 20.3532 19.25 20.544 19.25 20.7429V20.7489C19.25 21.1629 19.586 21.4989 20 21.4989H20.006C20.205 21.4989 20.3957 21.4199 20.5364 21.2793C20.677 21.1386 20.756 20.9478 20.756 20.7489V20.7429C20.756 20.544 20.677 20.3532 20.5364 20.2126C20.3957 20.0719 20.205 19.9929 20.006 19.9929H20ZM20 24.4939C19.8011 24.4939 19.6104 24.5729 19.4697 24.7136C19.3291 24.8542 19.25 25.045 19.25 25.2439V25.2489C19.25 25.6629 19.585 25.9989 20 25.9989H20.005C20.204 25.9989 20.3947 25.9199 20.5354 25.7792C20.676 25.6386 20.755 25.4478 20.755 25.2489V25.2439C20.755 25.045 20.676 24.8542 20.5354 24.7136C20.3947 24.5729 20.204 24.4939 20.005 24.4939H20ZM16.999 25.2439C16.999 25.045 17.0781 24.8542 17.2187 24.7136C17.3594 24.5729 17.5501 24.4939 17.749 24.4939H17.755C17.954 24.4939 18.1447 24.5729 18.2854 24.7136C18.426 24.8542 18.505 25.045 18.505 25.2439V25.2499C18.505 25.4488 18.426 25.6396 18.2854 25.7803C18.1447 25.9209 17.954 25.9999 17.755 25.9999H17.749C17.5501 25.9999 17.3594 25.9209 17.2187 25.7803C17.0781 25.6396 16.999 25.4488 16.999 25.2499V25.2439ZM15.499 24.4939C15.3001 24.4939 15.1094 24.5729 14.9687 24.7136C14.8281 24.8542 14.749 25.045 14.749 25.2439V25.2489C14.749 25.6629 15.085 25.9989 15.499 25.9989H15.504C15.703 25.9989 15.8937 25.9199 16.0344 25.7792C16.175 25.6386 16.254 25.4478 16.254 25.2489V25.2439C16.254 25.045 16.175 24.8542 16.0344 24.7136C15.8937 24.5729 15.703 24.4939 15.504 24.4939H15.499ZM21.499 22.9969C21.499 22.798 21.5781 22.6072 21.7187 22.4666C21.8594 22.3259 22.0501 22.2469 22.249 22.2469H22.255C22.454 22.2469 22.6447 22.3259 22.7854 22.4666C22.926 22.6072 23.005 22.798 23.005 22.9969V23.0019C23.005 23.2008 22.926 23.3916 22.7854 23.5323C22.6447 23.6729 22.454 23.7519 22.255 23.7519H22.249C22.0501 23.7519 21.8594 23.6729 21.7187 23.5323C21.5781 23.3916 21.499 23.2008 21.499 23.0019V22.9969ZM22.25 24.4939C22.0511 24.4939 21.8604 24.5729 21.7197 24.7136C21.5791 24.8542 21.5 25.045 21.5 25.2439V25.2499C21.5 25.6639 21.835 25.9999 22.25 25.9999H22.255C22.454 25.9999 22.6447 25.9209 22.7854 25.7803C22.926 25.6396 23.005 25.4488 23.005 25.2499V25.2439C23.005 25.045 22.926 24.8542 22.7854 24.7136C22.6447 24.5729 22.454 24.4939 22.255 24.4939H22.25ZM23.75 22.9949C23.75 22.796 23.8291 22.6052 23.9697 22.4646C24.1104 22.3239 24.3011 22.2449 24.5 22.2449H24.505C24.704 22.2449 24.8947 22.3239 25.0354 22.4646C25.176 22.6052 25.255 22.796 25.255 22.9949V23.0009C25.255 23.1998 25.176 23.3906 25.0354 23.5312C24.8947 23.6719 24.704 23.7509 24.505 23.7509H24.5C24.3011 23.7509 24.1104 23.6719 23.9697 23.5312C23.8291 23.3906 23.75 23.1998 23.75 23.0009V22.9949ZM21.498 20.7429C21.498 20.544 21.5771 20.3532 21.7177 20.2126C21.8584 20.0719 22.0491 19.9929 22.248 19.9929H24.498C24.697 19.9929 24.8877 20.0719 25.0284 20.2126C25.169 20.3532 25.248 20.544 25.248 20.7429C25.248 20.9418 25.169 21.1326 25.0284 21.2732C24.8877 21.4139 24.697 21.4929 24.498 21.4929H22.248C22.0491 21.4929 21.8584 21.4139 21.7177 21.2732C21.5771 21.1326 21.498 20.9418 21.498 20.7429ZM14.748 22.9929C14.748 22.794 14.8271 22.6032 14.9677 22.4626C15.1084 22.3219 15.2991 22.2429 15.498 22.2429H19.998C20.197 22.2429 20.3877 22.3219 20.5284 22.4626C20.669 22.6032 20.748 22.794 20.748 22.9929C20.748 23.1918 20.669 23.3826 20.5284 23.5232C20.3877 23.6639 20.197 23.7429 19.998 23.7429H15.498C15.2991 23.7429 15.1084 23.6639 14.9677 23.5232C14.8271 23.3826 14.748 23.1918 14.748 22.9929Z"
              fill="white"/>
        <path fill-rule="evenodd" clip-rule="evenodd"
              d="M26 10.9929C26 10.794 25.921 10.6032 25.7804 10.4626C25.6397 10.3219 25.449 10.2429 25.25 10.2429C25.0511 10.2429 24.8604 10.3219 24.7197 10.4626C24.5791 10.6032 24.5 10.794 24.5 10.9929V12.4929H15.5V10.9939C15.5 10.795 15.421 10.6042 15.2804 10.4636C15.1397 10.3229 14.949 10.2439 14.75 10.2439C14.5511 10.2439 14.3604 10.3229 14.2197 10.4636C14.0791 10.6042 14 10.795 14 10.9939V12.4909H13.248C12.4524 12.4909 11.6893 12.807 11.1267 13.3696C10.5641 13.9322 10.248 14.6953 10.248 15.4909V26.7429C10.248 27.5386 10.5641 28.3016 11.1267 28.8642C11.6893 29.4268 12.4524 29.7429 13.248 29.7429H26.748C27.5437 29.7429 28.3068 29.4268 28.8694 28.8642C29.432 28.3016 29.748 27.5386 29.748 26.7429V15.4919C29.748 14.6963 29.432 13.9332 28.8694 13.3706C28.3068 12.808 27.5437 12.4919 26.748 12.4919H26V10.9929ZM11.748 26.7429V19.2429C11.748 18.8451 11.9061 18.4636 12.1874 18.1823C12.4687 17.901 12.8502 17.7429 13.248 17.7429H26.748C27.1459 17.7429 27.5274 17.901 27.8087 18.1823C28.09 18.4636 28.248 18.8451 28.248 19.2429V26.7429C28.248 27.1407 28.09 27.5223 27.8087 27.8036C27.5274 28.0849 27.1459 28.2429 26.748 28.2429H13.248C12.8502 28.2429 12.4687 28.0849 12.1874 27.8036C11.9061 27.5223 11.748 27.1407 11.748 26.7429Z"
              fill="white"/>
    </g>
    <defs>
        <linearGradient id="paint0_linear_58_666" x1="20" y1="0" x2="20" y2="40" gradientUnits="userSpaceOnUse">
            <stop stop-color="#00BECE"/>
            <stop offset="1" stop-color="#0193BC"/>
        </linearGradient>
        <clipPath id="clip0_58_666">
            <rect width="40" height="40" fill="white"/>
        </clipPath>
    </defs>
</svg>
