<svg width="40" height="40" viewBox="0 0 40 40" fill="none" xmlns="http://www.w3.org/2000/svg">
    <g clip-path="url(#clip0_58_650)">
        <rect width="40" height="40" rx="10" fill="url(#paint0_linear_58_650)"/>
        <path fill-rule="evenodd" clip-rule="evenodd"
              d="M13.625 9.5C12.589 9.5 11.75 10.34 11.75 11.375V28.625C11.75 29.66 12.59 30.5 13.625 30.5H26.375C27.41 30.5 28.25 29.66 28.25 28.625V20.75C28.25 19.7554 27.8549 18.8016 27.1517 18.0983C26.4484 17.3951 25.4946 17 24.5 17H22.625C22.1277 17 21.6508 16.8025 21.2992 16.4508C20.9475 16.0992 20.75 15.6223 20.75 15.125V13.25C20.75 12.2554 20.3549 11.3016 19.6517 10.5983C18.9484 9.89509 17.9946 9.5 17 9.5H13.625ZM15.5 23C15.5 22.8011 15.579 22.6103 15.7197 22.4697C15.8603 22.329 16.0511 22.25 16.25 22.25H23.75C23.9489 22.25 24.1397 22.329 24.2803 22.4697C24.421 22.6103 24.5 22.8011 24.5 23C24.5 23.1989 24.421 23.3897 24.2803 23.5303C24.1397 23.671 23.9489 23.75 23.75 23.75H16.25C16.0511 23.75 15.8603 23.671 15.7197 23.5303C15.579 23.3897 15.5 23.1989 15.5 23ZM16.25 25.25C16.0511 25.25 15.8603 25.329 15.7197 25.4697C15.579 25.6103 15.5 25.8011 15.5 26C15.5 26.1989 15.579 26.3897 15.7197 26.5303C15.8603 26.671 16.0511 26.75 16.25 26.75H20C20.1989 26.75 20.3897 26.671 20.5303 26.5303C20.671 26.3897 20.75 26.1989 20.75 26C20.75 25.8011 20.671 25.6103 20.5303 25.4697C20.3897 25.329 20.1989 25.25 20 25.25H16.25Z"
              fill="white"/>
        <path d="M20.9712 9.81592C21.7977 10.7689 22.2519 11.9885 22.2502 13.2499V15.1249C22.2502 15.3319 22.4182 15.4999 22.6252 15.4999H24.5002C25.7616 15.4982 26.9812 15.9524 27.9342 16.7789C27.4942 15.1056 26.6177 13.5792 25.3943 12.3558C24.1709 11.1324 22.6445 10.2559 20.9712 9.81592Z"
              fill="white"/>
    </g>
    <defs>
        <linearGradient id="paint0_linear_58_650" x1="20" y1="0" x2="20" y2="40" gradientUnits="userSpaceOnUse">
            <stop stop-color="#94E2FF"/>
            <stop offset="1" stop-color="#33BBFF"/>
        </linearGradient>
        <clipPath id="clip0_58_650">
            <rect width="40" height="40" fill="white"/>
        </clipPath>
    </defs>
</svg>
