<svg width="40" height="40" viewBox="0 0 40 40" fill="none" xmlns="http://www.w3.org/2000/svg">
    <g clip-path="url(#clip0_58_722)">
        <rect width="40" height="40" rx="10" fill="url(#paint0_linear_58_722)"/>
        <path d="M17.7498 28.85C19.5298 28.15 19.1398 26.22 18.2398 25C17.3498 23.75 16.1198 22.89 14.8798 22.06C13.9949 21.5026 13.2049 20.8071 12.5398 20C12.2598 19.67 11.6898 19.06 12.2698 18.94C12.8598 18.82 13.8798 19.4 14.3998 19.62C15.3098 20 16.2098 20.44 17.0498 20.96C17.8898 21.48 19.6198 20.29 18.0598 19.26C16.4998 18.23 14.4998 17.32 12.6398 17.05C11.5798 16.89 10.4598 17.11 10.0998 18.26C9.77983 19.25 10.2898 20.25 10.8698 21.03C12.2398 22.86 14.3698 23.74 15.9598 25.32C16.2998 25.65 16.7098 26.04 16.9098 26.5C17.1198 26.94 17.0698 26.97 16.5998 26.97C15.3598 26.97 13.8098 26 12.7998 25.36C11.7898 24.72 10.2598 26.12 11.7898 27.06C13.3198 28 15.8798 29.47 17.7498 28.85ZM26.9598 15.33L21.2898 21H18.9998V18.71L24.6698 13.03L26.9598 15.33ZM30.3598 14.55C30.3498 14.85 30.0398 15.16 29.7198 15.47L27.1998 18L26.3298 17.13L28.9298 14.54L28.3398 13.95L27.6698 14.62L25.3798 12.33L27.5298 10.18C27.7698 9.94 28.1598 9.94 28.3898 10.18L29.8198 11.61C30.0598 11.83 30.0598 12.23 29.8198 12.47C29.6098 12.68 29.4098 12.88 29.4098 13.08C29.3898 13.28 29.5898 13.5 29.7898 13.67C30.0798 13.97 30.3698 14.25 30.3598 14.55Z"
              fill="white"/>
    </g>
    <defs>
        <linearGradient id="paint0_linear_58_722" x1="20" y1="0" x2="20" y2="40" gradientUnits="userSpaceOnUse">
            <stop stop-color="#FF7B84"/>
            <stop offset="1" stop-color="#FF4552"/>
        </linearGradient>
        <clipPath id="clip0_58_722">
            <rect width="40" height="40" fill="white"/>
        </clipPath>
    </defs>
</svg>
