<svg width="40" height="40" viewBox="0 0 40 40" fill="none" xmlns="http://www.w3.org/2000/svg">
    <g clip-path="url(#clip0_58_698)">
        <rect width="40" height="40" rx="10" fill="url(#paint0_linear_58_698)"/>
        <path fill-rule="evenodd" clip-rule="evenodd"
              d="M16.25 14.75C16.25 13.7554 16.6451 12.8016 17.3483 12.0983C18.0516 11.3951 19.0054 11 20 11C20.9946 11 21.9484 11.3951 22.6517 12.0983C23.3549 12.8016 23.75 13.7554 23.75 14.75C23.75 15.7446 23.3549 16.6984 22.6517 17.4017C21.9484 18.1049 20.9946 18.5 20 18.5C19.0054 18.5 18.0516 18.1049 17.3483 17.4017C16.6451 16.6984 16.25 15.7446 16.25 14.75ZM23.75 17.75C23.75 16.9544 24.0661 16.1913 24.6287 15.6287C25.1913 15.0661 25.9544 14.75 26.75 14.75C27.5456 14.75 28.3087 15.0661 28.8713 15.6287C29.4339 16.1913 29.75 16.9544 29.75 17.75C29.75 18.5456 29.4339 19.3087 28.8713 19.8713C28.3087 20.4339 27.5456 20.75 26.75 20.75C25.9544 20.75 25.1913 20.4339 24.6287 19.8713C24.0661 19.3087 23.75 18.5456 23.75 17.75ZM10.25 17.75C10.25 16.9544 10.5661 16.1913 11.1287 15.6287C11.6913 15.0661 12.4544 14.75 13.25 14.75C14.0456 14.75 14.8087 15.0661 15.3713 15.6287C15.9339 16.1913 16.25 16.9544 16.25 17.75C16.25 18.5456 15.9339 19.3087 15.3713 19.8713C14.8087 20.4339 14.0456 20.75 13.25 20.75C12.4544 20.75 11.6913 20.4339 11.1287 19.8713C10.5661 19.3087 10.25 18.5456 10.25 17.75ZM14.31 23.117C14.92 22.161 15.7611 21.3743 16.7556 20.8294C17.7502 20.2846 18.866 19.9994 20 20C20.9498 19.9991 21.8891 20.1989 22.7564 20.5862C23.6237 20.9734 24.3994 21.5395 25.0327 22.2474C25.6661 22.9552 26.1428 23.7888 26.4317 24.6936C26.7205 25.5985 26.815 26.5541 26.709 27.498C26.696 27.6153 26.6556 27.7278 26.591 27.8265C26.5263 27.9252 26.4393 28.0073 26.337 28.066C24.4086 29.1725 22.2233 29.7532 20 29.75C17.695 29.75 15.53 29.138 13.663 28.066C13.5607 28.0073 13.4737 27.9252 13.409 27.8265C13.3444 27.7278 13.304 27.6153 13.291 27.498C13.1231 25.9646 13.4825 24.4198 14.31 23.118V23.117Z"
              fill="white"/>
        <path d="M13.0821 22.2539C12.0958 23.7763 11.6363 25.5802 11.7741 27.3889C11.1736 27.2979 10.583 27.1505 10.0101 26.9489L9.89508 26.9089C9.79248 26.8725 9.70263 26.8071 9.63643 26.7207C9.57023 26.6342 9.53051 26.5305 9.52208 26.4219L9.51208 26.3009C9.47169 25.7989 9.53284 25.2938 9.69188 24.816C9.85093 24.3381 10.1046 23.8971 10.4378 23.5194C10.771 23.1417 11.1768 22.835 11.6312 22.6176C12.0855 22.4001 12.5789 22.2765 13.0821 22.2539ZM28.2261 27.3889C28.3638 25.5802 27.9043 23.7763 26.9181 22.2539C27.4212 22.2765 27.9147 22.4001 28.369 22.6176C28.8233 22.835 29.2292 23.1417 29.5624 23.5194C29.8955 23.8971 30.1492 24.3381 30.3083 24.816C30.4673 25.2938 30.5285 25.7989 30.4881 26.3009L30.4781 26.4219C30.4695 26.5303 30.4297 26.6338 30.3635 26.7201C30.2973 26.8063 30.2075 26.8716 30.1051 26.9079L29.9901 26.9479C29.4231 27.1479 28.8341 27.2969 28.2261 27.3889Z"
              fill="white"/>
    </g>
    <defs>
        <linearGradient id="paint0_linear_58_698" x1="35" y1="5.96046e-07" x2="20" y2="40"
                        gradientUnits="userSpaceOnUse">
            <stop stop-color="#51FF6F"/>
            <stop offset="1" stop-color="#19B543"/>
        </linearGradient>
        <clipPath id="clip0_58_698">
            <rect width="40" height="40" fill="white"/>
        </clipPath>
    </defs>
</svg>
