<svg width="40" height="40" viewBox="0 0 40 40" fill="none" xmlns="http://www.w3.org/2000/svg">
    <g clip-path="url(#clip0_58_706)">
        <rect width="40" height="40" rx="10" fill="url(#paint0_linear_58_706)"/>
        <path fill-rule="evenodd" clip-rule="evenodd"
              d="M12.125 11C11.089 11 10.25 11.84 10.25 12.875V26C10.25 26.7956 10.5661 27.5587 11.1287 28.1213C11.6913 28.6839 12.4544 29 13.25 29H28.25C27.4544 29 26.6913 28.6839 26.1287 28.1213C25.5661 27.5587 25.25 26.7956 25.25 26V12.875C25.25 11.839 24.41 11 23.375 11H12.125ZM20 17.75C19.8011 17.75 19.6103 17.829 19.4697 17.9697C19.329 18.1103 19.25 18.3011 19.25 18.5C19.25 18.6989 19.329 18.8897 19.4697 19.0303C19.6103 19.171 19.8011 19.25 20 19.25H21.5C21.6989 19.25 21.8897 19.171 22.0303 19.0303C22.171 18.8897 22.25 18.6989 22.25 18.5C22.25 18.3011 22.171 18.1103 22.0303 17.9697C21.8897 17.829 21.6989 17.75 21.5 17.75H20ZM19.25 15.5C19.25 15.3011 19.329 15.1103 19.4697 14.9697C19.6103 14.829 19.8011 14.75 20 14.75H21.5C21.6989 14.75 21.8897 14.829 22.0303 14.9697C22.171 15.1103 22.25 15.3011 22.25 15.5C22.25 15.6989 22.171 15.8897 22.0303 16.0303C21.8897 16.171 21.6989 16.25 21.5 16.25H20C19.8011 16.25 19.6103 16.171 19.4697 16.0303C19.329 15.8897 19.25 15.6989 19.25 15.5ZM14 20.75C13.8011 20.75 13.6103 20.829 13.4697 20.9697C13.329 21.1103 13.25 21.3011 13.25 21.5C13.25 21.6989 13.329 21.8897 13.4697 22.0303C13.6103 22.171 13.8011 22.25 14 22.25H21.5C21.6989 22.25 21.8897 22.171 22.0303 22.0303C22.171 21.8897 22.25 21.6989 22.25 21.5C22.25 21.3011 22.171 21.1103 22.0303 20.9697C21.8897 20.829 21.6989 20.75 21.5 20.75H14ZM13.25 24.5C13.25 24.3011 13.329 24.1103 13.4697 23.9697C13.6103 23.829 13.8011 23.75 14 23.75H21.5C21.6989 23.75 21.8897 23.829 22.0303 23.9697C22.171 24.1103 22.25 24.3011 22.25 24.5C22.25 24.6989 22.171 24.8897 22.0303 25.0303C21.8897 25.171 21.6989 25.25 21.5 25.25H14C13.8011 25.25 13.6103 25.171 13.4697 25.0303C13.329 24.8897 13.25 24.6989 13.25 24.5ZM14 14.75C13.8011 14.75 13.6103 14.829 13.4697 14.9697C13.329 15.1103 13.25 15.3011 13.25 15.5V18.5C13.25 18.914 13.586 19.25 14 19.25H17C17.1989 19.25 17.3897 19.171 17.5303 19.0303C17.671 18.8897 17.75 18.6989 17.75 18.5V15.5C17.75 15.3011 17.671 15.1103 17.5303 14.9697C17.3897 14.829 17.1989 14.75 17 14.75H14Z"
              fill="white"/>
        <path d="M26.75 14.75H28.625C29.246 14.75 29.75 15.254 29.75 15.875V26C29.75 26.3978 29.592 26.7794 29.3107 27.0607C29.0294 27.342 28.6478 27.5 28.25 27.5C27.8522 27.5 27.4706 27.342 27.1893 27.0607C26.908 26.7794 26.75 26.3978 26.75 26V14.75Z"
              fill="white"/>
    </g>
    <defs>
        <linearGradient id="paint0_linear_58_706" x1="20" y1="0" x2="20" y2="40" gradientUnits="userSpaceOnUse">
            <stop stop-color="#FF74AE"/>
            <stop offset="1" stop-color="#FF388B"/>
        </linearGradient>
        <clipPath id="clip0_58_706">
            <rect width="40" height="40" fill="white"/>
        </clipPath>
    </defs>
</svg>
