<svg width="40" height="40" viewBox="0 0 40 40" fill="none" xmlns="http://www.w3.org/2000/svg">
    <g clip-path="url(#clip0_58_690)">
        <rect width="40" height="40" rx="10" fill="url(#paint0_linear_58_690)"/>
        <path d="M12.5 27C12.078 27 11.7227 26.8553 11.434 26.566C11.1447 26.2773 11 25.922 11 25.5V14.616C11 14.194 11.1637 13.819 11.491 13.491C11.819 13.1637 12.1937 13 12.615 13H16.925C17.1403 13 17.3497 13.0433 17.553 13.13C17.7563 13.218 17.9303 13.3343 18.075 13.479L19.596 15H28.327C28.4697 15 28.5887 15.0477 28.684 15.143C28.7793 15.2383 28.827 15.3573 28.827 15.5C28.827 15.6427 28.7793 15.7617 28.684 15.857C28.5887 15.9523 28.4697 16 28.327 16H15.447C14.5157 16 13.7083 16.2993 13.025 16.898C12.3417 17.4967 12 18.2513 12 19.162V25.385C12 25.5257 12.0353 25.641 12.106 25.731C12.1767 25.821 12.2697 25.8977 12.385 25.961L14.302 19.541C14.41 19.197 14.6077 18.9183 14.895 18.705C15.1823 18.4917 15.5047 18.385 15.862 18.385H28.685C29.227 18.385 29.662 18.6013 29.99 19.034C30.3167 19.4667 30.4013 19.942 30.244 20.46L28.598 25.94C28.5033 26.258 28.3217 26.5143 28.053 26.709C27.7843 26.903 27.4843 27 27.153 27H12.5Z"
              fill="white"/>
    </g>
    <defs>
        <linearGradient id="paint0_linear_58_690" x1="20" y1="0" x2="20" y2="40" gradientUnits="userSpaceOnUse">
            <stop stop-color="#FBD72C"/>
            <stop offset="1" stop-color="#F8A909"/>
        </linearGradient>
        <clipPath id="clip0_58_690">
            <rect width="40" height="40" fill="white"/>
        </clipPath>
    </defs>
</svg>
