<svg width="40" height="40" viewBox="0 0 40 40" fill="none" xmlns="http://www.w3.org/2000/svg">
    <g clip-path="url(#clip0_58_674)">
        <rect width="40" height="40" rx="10" fill="url(#paint0_linear_58_674)"/>
        <path d="M28.9552 11.8711C29.0007 11.7557 29.0118 11.6292 28.9873 11.5075C28.9627 11.3857 28.9035 11.2739 28.8169 11.186C28.7304 11.0981 28.6205 11.0379 28.5006 11.013C28.3808 10.988 28.2563 10.9993 28.1428 11.0455L9.95965 18.4365H9.9584L9.39342 18.6651C9.28642 18.7085 9.19329 18.7811 9.12433 18.8748C9.05537 18.9686 9.01326 19.0799 9.00265 19.1965C8.99205 19.3131 9.01336 19.4304 9.06423 19.5354C9.1151 19.6404 9.19356 19.7291 9.29093 19.7917L9.80341 20.122L9.80466 20.1245L16.0482 24.161L18.0356 27.3338C19.0006 28.7818 19.0006 27.5117 19.0006 26.8766C19.0004 26.0695 19.1685 25.2716 19.4937 24.5353C19.8189 23.7989 20.2939 23.141 20.8873 22.6046C21.4808 22.0683 22.1793 21.6657 22.937 21.4234C23.6946 21.1812 24.4941 21.1047 25.2829 21.199L28.9552 11.8711ZM26.6641 14.2717L17.2969 23.7901L17.0282 23.3608C16.9789 23.282 16.9132 23.2153 16.8357 23.1652L16.4132 22.8921L25.7804 13.3737L27.2528 12.7754L26.6641 14.2717Z"
              fill="white"/>
        <path d="M29 26.5C29 27.6935 28.5259 28.8381 27.682 29.682C26.8381 30.5259 25.6935 31 24.5 31C23.3065 31 22.1619 30.5259 21.318 29.682C20.4741 28.8381 20 27.6935 20 26.5C20 25.3065 20.4741 24.1619 21.318 23.318C22.1619 22.4741 23.3065 22 24.5 22C25.6935 22 26.8381 22.4741 27.682 23.318C28.5259 24.1619 29 25.3065 29 26.5ZM26.4376 24.3413C26.3651 24.2979 26.2849 24.2692 26.2013 24.2568C26.1178 24.2444 26.0327 24.2486 25.9508 24.2691C25.8689 24.2897 25.7918 24.3261 25.724 24.3765C25.6562 24.4268 25.599 24.49 25.5556 24.5624L24.0513 27.0696L23.348 26.3663C23.2273 26.2456 23.0636 26.1778 22.8929 26.1778C22.7221 26.1778 22.5584 26.2456 22.4377 26.3663C22.317 26.487 22.2492 26.6507 22.2492 26.8214C22.2492 26.9921 22.317 27.1559 22.4377 27.2766L23.4329 28.2704C23.5364 28.3742 23.6623 28.453 23.8009 28.5008C23.9395 28.5486 24.0872 28.5642 24.2328 28.5464C24.3783 28.5285 24.5179 28.4777 24.6408 28.3978C24.7637 28.3179 24.8669 28.211 24.9423 28.0853L26.6587 25.2233C26.7021 25.1509 26.7308 25.0706 26.7432 24.9871C26.7556 24.9035 26.7514 24.8184 26.7309 24.7365C26.7103 24.6546 26.6738 24.5775 26.6235 24.5097C26.5732 24.4419 26.51 24.3847 26.4376 24.3413Z"
              fill="white"/>
    </g>
    <defs>
        <linearGradient id="paint0_linear_58_674" x1="20" y1="0" x2="20" y2="40" gradientUnits="userSpaceOnUse">
            <stop stop-color="#589BFF"/>
            <stop offset="1" stop-color="#1A57D0"/>
        </linearGradient>
        <clipPath id="clip0_58_674">
            <rect width="40" height="40" fill="white"/>
        </clipPath>
    </defs>
</svg>
