<svg width="40" height="40" viewBox="0 0 40 40" fill="none" xmlns="http://www.w3.org/2000/svg">
<g clip-path="url(#clip0_60_367)">
<rect width="40" height="40" rx="10" fill="url(#paint0_linear_60_367)"/>
<g clip-path="url(#clip1_60_367)">
<path d="M25.4705 14.483L15.554 10.2335L12.443 11.4305C12.134 11.5505 11.8625 11.7305 11.6405 11.9585L21.5 16.184L25.4705 14.483ZM19.8845 8.56854L17.5595 9.46254L27.3755 13.6655L31.3595 11.9585C31.1335 11.727 30.8603 11.5469 30.5585 11.4305L23.1155 8.56854C22.0756 8.16856 20.9243 8.16856 19.8845 8.56854ZM22.25 17.4935L31.9895 13.3205C31.9965 13.3905 32 13.4605 32 13.5305V23.4695C32 23.9242 31.8623 24.3683 31.605 24.7432C31.3477 25.118 30.9828 25.4061 30.5585 25.5695L23.1155 28.433C22.8356 28.5407 22.5456 28.6201 22.25 28.67V17.4935ZM20.75 23.75V17.495L11.0105 13.3205C11.0045 13.3904 11.001 13.4604 11 13.5305V17.3855C11.705 17.135 12.461 17 13.25 17C17.3915 17 20.75 20.0225 20.75 23.75ZM13.25 29C14.429 29 15.518 28.61 16.394 27.9545L20.219 31.7795C20.2886 31.8493 20.3713 31.9046 20.4623 31.9424C20.5533 31.9802 20.6509 31.9996 20.7494 31.9997C20.848 31.9998 20.9456 31.9804 21.0366 31.9428C21.1277 31.9051 21.2105 31.8499 21.2802 31.7803C21.3499 31.7107 21.4053 31.628 21.4431 31.5369C21.4808 31.4459 21.5003 31.3484 21.5004 31.2498C21.5004 31.1513 21.4811 31.0537 21.4435 30.9626C21.4058 30.8715 21.3506 30.7888 21.281 30.719L17.456 26.894C18.164 25.9472 18.5317 24.7891 18.4995 23.6073C18.4674 22.4254 18.0373 21.289 17.2788 20.3821C16.5204 19.4751 15.478 18.8508 14.3205 18.61C13.163 18.3693 11.9581 18.5263 10.9009 19.0556C9.84376 19.585 8.99621 20.4556 8.49552 21.5267C7.99482 22.5977 7.87029 23.8063 8.14208 24.957C8.41388 26.1076 9.06609 27.1328 9.99311 27.8665C10.9201 28.6003 12.0677 28.9997 13.25 29ZM13.25 27.5C12.2554 27.5 11.3016 27.1049 10.5983 26.4017C9.89505 25.6984 9.49996 24.7446 9.49996 23.75C9.49996 22.7555 9.89505 21.8016 10.5983 21.0984C11.3016 20.3951 12.2554 20 13.25 20C14.2445 20 15.1984 20.3951 15.9016 21.0984C16.6049 21.8016 17 22.7555 17 23.75C17 24.7446 16.6049 25.6984 15.9016 26.4017C15.1984 27.1049 14.2445 27.5 13.25 27.5Z" fill="white"/>
</g>
</g>
<defs>
<linearGradient id="paint0_linear_60_367" x1="20" y1="0" x2="20" y2="40" gradientUnits="userSpaceOnUse">
<stop stop-color="#FFB507"/>
<stop offset="1" stop-color="#FF7C1F"/>
</linearGradient>
<clipPath id="clip0_60_367">
<rect width="40" height="40" fill="white"/>
</clipPath>
<clipPath id="clip1_60_367">
<rect width="24" height="24" fill="white" transform="translate(8 8)"/>
</clipPath>
</defs>
</svg>
