<svg width="40" height="40" viewBox="0 0 40 40" fill="none" xmlns="http://www.w3.org/2000/svg">
    <g clip-path="url(#clip0_58_658)">
        <rect width="40" height="40" rx="10" fill="url(#paint0_linear_58_658)"/>
        <path d="M14.2144 9.71436C13.4756 9.71436 12.7671 10.0078 12.2446 10.5303C11.7222 11.0527 11.4287 11.7613 11.4287 12.5001V27.5001C11.4287 28.2389 11.7222 28.9474 12.2446 29.4699C12.7671 29.9923 13.4756 30.2858 14.2144 30.2858H22.4156L20.5667 28.4369C20.3876 28.2578 20.2456 28.0452 20.1486 27.8112C20.0517 27.5773 20.0018 27.3265 20.0018 27.0732C20.0018 26.8199 20.0517 26.5692 20.1486 26.3352C20.2456 26.1012 20.3876 25.8886 20.5667 25.7095C20.7458 25.5304 20.9584 25.3884 21.1924 25.2914C21.4264 25.1945 21.6772 25.1446 21.9304 25.1446C22.1837 25.1446 22.4345 25.1945 22.6685 25.2914C22.9024 25.3884 23.1151 25.5304 23.2941 25.7095L24.5001 26.9155L28.2793 23.1364C28.3707 23.0449 28.4681 22.9649 28.5716 22.8964V12.5001C28.5716 11.7613 28.2781 11.0527 27.7557 10.5303C27.2332 10.0078 26.5247 9.71436 25.7859 9.71436H14.2144ZM17.0001 15.5001C17.0001 15.7842 16.8873 16.0568 16.6863 16.2577C16.4854 16.4586 16.2129 16.5715 15.9287 16.5715C15.6446 16.5715 15.372 16.4586 15.1711 16.2577C14.9702 16.0568 14.8573 15.7842 14.8573 15.5001C14.8573 15.2159 14.9702 14.9434 15.1711 14.7425C15.372 14.5415 15.6446 14.4286 15.9287 14.4286C16.2129 14.4286 16.4854 14.5415 16.6863 14.7425C16.8873 14.9434 17.0001 15.2159 17.0001 15.5001ZM15.9287 21.0715C15.6446 21.0715 15.372 20.9586 15.1711 20.7577C14.9702 20.5568 14.8573 20.2842 14.8573 20.0001C14.8573 19.7159 14.9702 19.4434 15.1711 19.2425C15.372 19.0415 15.6446 18.9286 15.9287 18.9286C16.2129 18.9286 16.4854 19.0415 16.6863 19.2425C16.8873 19.4434 17.0001 19.7159 17.0001 20.0001C17.0001 20.2842 16.8873 20.5568 16.6863 20.7577C16.4854 20.9586 16.2129 21.0715 15.9287 21.0715ZM15.9287 25.5715C15.6446 25.5715 15.372 25.4586 15.1711 25.2577C14.9702 25.0568 14.8573 24.7842 14.8573 24.5001C14.8573 24.2159 14.9702 23.9434 15.1711 23.7425C15.372 23.5415 15.6446 23.4286 15.9287 23.4286C16.2129 23.4286 16.4854 23.5415 16.6863 23.7425C16.8873 23.9434 17.0001 24.2159 17.0001 24.5001C17.0001 24.7842 16.8873 25.0568 16.6863 25.2577C16.4854 25.4586 16.2129 25.5715 15.9287 25.5715ZM18.9287 14.8572H24.5001C24.6706 14.8572 24.8341 14.9249 24.9547 15.0455C25.0753 15.1661 25.143 15.3296 25.143 15.5001C25.143 15.6706 25.0753 15.8341 24.9547 15.9546C24.8341 16.0752 24.6706 16.1429 24.5001 16.1429H18.9287C18.7582 16.1429 18.5947 16.0752 18.4741 15.9546C18.3536 15.8341 18.2859 15.6706 18.2859 15.5001C18.2859 15.3296 18.3536 15.1661 18.4741 15.0455C18.5947 14.9249 18.7582 14.8572 18.9287 14.8572ZM18.2859 20.0001C18.2859 19.8296 18.3536 19.6661 18.4741 19.5455C18.5947 19.4249 18.7582 19.3572 18.9287 19.3572H24.5001C24.6706 19.3572 24.8341 19.4249 24.9547 19.5455C25.0753 19.6661 25.143 19.8296 25.143 20.0001C25.143 20.1706 25.0753 20.3341 24.9547 20.4546C24.8341 20.5752 24.6706 20.6429 24.5001 20.6429H18.9287C18.7582 20.6429 18.5947 20.5752 18.4741 20.4546C18.3536 20.3341 18.2859 20.1706 18.2859 20.0001ZM18.9287 23.8572H24.5001C24.6706 23.8572 24.8341 23.9249 24.9547 24.0455C25.0753 24.1661 25.143 24.3296 25.143 24.5001C25.143 24.6706 25.0753 24.8341 24.9547 24.9546C24.8341 25.0752 24.6706 25.1429 24.5001 25.1429H18.9287C18.7582 25.1429 18.5947 25.0752 18.4741 24.9546C18.3536 24.8341 18.2859 24.6706 18.2859 24.5001C18.2859 24.3296 18.3536 24.1661 18.4741 24.0455C18.5947 23.9249 18.7582 23.8572 18.9287 23.8572ZM24.9544 30.0972L30.0973 24.9544C30.1604 24.8955 30.2111 24.8245 30.2462 24.7457C30.2814 24.6668 30.3003 24.5817 30.3018 24.4954C30.3033 24.4091 30.2874 24.3233 30.2551 24.2433C30.2228 24.1632 30.1746 24.0905 30.1136 24.0295C30.0526 23.9684 29.9798 23.9203 29.8998 23.888C29.8197 23.8556 29.734 23.8398 29.6477 23.8413C29.5614 23.8428 29.4762 23.8617 29.3974 23.8968C29.3185 23.932 29.2476 23.9826 29.1887 24.0458L24.5001 28.7344L22.3847 26.6189C22.2628 26.5054 22.1017 26.4436 21.9351 26.4465C21.7686 26.4494 21.6097 26.5169 21.4919 26.6347C21.3741 26.7525 21.3066 26.9114 21.3037 27.0779C21.3008 27.2445 21.3626 27.4056 21.4761 27.5275L24.0459 30.0972C24.1664 30.2176 24.3298 30.2852 24.5001 30.2852C24.6705 30.2852 24.8339 30.2176 24.9544 30.0972Z"
              fill="white"/>
    </g>
    <defs>
        <linearGradient id="paint0_linear_58_658" x1="20" y1="0" x2="20" y2="40" gradientUnits="userSpaceOnUse">
            <stop stop-color="#FF9D5A"/>
            <stop offset="1" stop-color="#FF6337"/>
        </linearGradient>
        <clipPath id="clip0_58_658">
            <rect width="40" height="40" fill="white"/>
        </clipPath>
    </defs>
</svg>
