<?xml version="1.0" encoding="UTF-8"?>
<svg id="Layer_1" data-name="Layer 1" xmlns="http://www.w3.org/2000/svg" xmlns:xlink="http://www.w3.org/1999/xlink" viewBox="0 0 40 40">
  <defs>
    <style>
      .cls-1 {
        fill: url(#linear-gradient);
      }

      .cls-1, .cls-2 {
        stroke-width: 0px;
      }

      .cls-2 {
        fill: #fff;
      }
    </style>
    <linearGradient id="linear-gradient" x1="32.01" y1="-.69" x2="9.67" y2="37.48" gradientUnits="userSpaceOnUse">
      <stop offset="0" stop-color="#00edff"/>
      <stop offset="1" stop-color="#0065eb"/>
    </linearGradient>
  </defs>
  <rect class="cls-1" width="40" height="39.66" rx="8.08" ry="8.08"/>
  <path class="cls-2" d="M23.02,19.79c-.27.13-.52.25-.78.38-.05.02-.08.06-.12.1-1.08,1.09-2.16,2.17-3.31,3.18-.48.43-.98.85-1.52,1.21-.03.02-.05.08-.05.12.03.39.06.77.09,1.16.06.75.11,1.5.16,2.26.03.42.06.85.04,1.28-.03.82-.34,1.55-.81,2.21-.1.15-.26.2-.44.18-.18-.03-.29-.14-.36-.31-.41-1.02-.82-2.04-1.23-3.06-.2-.49-.4-.99-.6-1.48-.02-.04-.03-.08-.05-.13-.07.05-.14.1-.2.15-.24.17-.57.15-.78-.05-.08-.07-.15-.15-.22-.23-.19-.21-.21-.51-.06-.75.05-.07.1-.15.15-.23-.04-.02-.07-.03-.1-.05-1.49-.61-2.99-1.23-4.48-1.84-.25-.1-.37-.3-.32-.54.02-.12.09-.21.19-.28.85-.59,1.79-.89,2.83-.81,1.22.09,2.44.18,3.66.28.12,0,.25.02.37.03.03,0,.08-.02.09-.04.53-.81,1.17-1.53,1.82-2.23.82-.89,1.67-1.75,2.5-2.63.06-.06.11-.13.14-.21.12-.23.23-.47.35-.72-.05-.02-.09-.04-.13-.06-3.95-1.68-7.89-3.35-11.84-5.03-.38-.16-.45-.52-.17-.82.47-.5,1.02-.83,1.7-.93.31-.05.62,0,.93.04.8.1,1.61.21,2.41.31.48.06.95.11,1.43.18.07,0,.11-.01.15-.07.37-.47.77-.91,1.26-1.26.22-.16.46-.3.72-.39.05-.02.09-.02.13.03.29.3.59.6.89.89.04.04.04.08.03.13-.09.29-.24.54-.42.79-.03.05-.07.1-.12.16.25.03.48.06.71.09.6.08,1.2.15,1.79.23.07,0,.12,0,.17-.07.35-.43.72-.82,1.16-1.15.23-.17.47-.32.75-.41.05-.02.09-.01.13.03.29.3.59.6.89.89.04.04.05.07.03.13-.09.27-.23.52-.4.75-.02.03-.05.07-.08.12.23.03.44.06.66.08.53.06,1.05.11,1.58.16.42.04.83-.06,1.21-.22.06-.02.11-.07.15-.11.68-.67,1.35-1.34,2.02-2.01.82-.82,1.81-1.36,2.91-1.69.24-.07.48-.13.73-.18.36-.08.71.1.87.43.09.18.11.37.06.57-.3,1.31-.81,2.51-1.74,3.5-.61.65-1.24,1.28-1.85,1.91-.01.02-.03.03-.05.04-.37.28-.46.7-.53,1.12-.05.36.01.72.04,1.07.04.41.08.81.13,1.24.04-.02.07-.04.1-.06.19-.08.38-.17.58-.25.03-.01.09,0,.11.02.3.3.6.6.89.9.02.02.03.08.02.12-.13.42-.38.76-.66,1.08-.22.24-.46.47-.69.7-.04.04-.06.08-.05.15.1.86.21,1.73.31,2.59,0,.04.01.08.02.13.13-.08.24-.17.36-.24.15-.08.31-.15.46-.23.06-.03.09-.01.14.03.29.3.58.59.88.89.05.05.05.09.03.15-.15.45-.42.82-.74,1.16-.24.26-.51.51-.77.75-.05.05-.06.09-.06.16.15,1.16.3,2.33.44,3.49.04.31.08.63.12.94.09.74-.12,1.39-.58,1.97-.09.12-.21.23-.31.34-.26.29-.68.19-.82-.17-.44-1.08-.89-2.15-1.33-3.22-1.22-2.93-2.44-5.86-3.66-8.79-.01-.03-.03-.06-.04-.1Z"/>
</svg>